<?xml version="1.0"?><svg xmlns="http://www.w3.org/2000/svg" version="1.1" width="120" height="60">


<defs><clipPath id="chart0-0"><rect x="-2.000000" y="-0.500000" width="4.000000" height="2.000000" /></clipPath></defs>
<g transform="translate(0.000000 60.000000) scale(30.000000 -30.000000) translate(2.000000 0.500000)">

<!-- Horiz labels -->
<line x1="-2.000000" y1="-0.500000" x2="-2.000000" y2="1.500000" style="stroke:#c0c0c0;stroke-width:0.006667"/>
<line x1="-1.500000" y1="-0.500000" x2="-1.500000" y2="1.500000" style="stroke:#c0c0c0;stroke-width:0.006667"/>
<line x1="-1.000000" y1="-0.500000" x2="-1.000000" y2="1.500000" style="stroke:#c0c0c0;stroke-width:0.006667"/>
<line x1="-0.500000" y1="-0.500000" x2="-0.500000" y2="1.500000" style="stroke:#c0c0c0;stroke-width:0.006667"/>
<line x1="0.000000" y1="-0.500000" x2="0.000000" y2="1.500000" style="stroke:#000000;stroke-width:0.006667"/>
<line x1="0.500000" y1="-0.500000" x2="0.500000" y2="1.500000" style="stroke:#c0c0c0;stroke-width:0.006667"/>
<line x1="1.000000" y1="-0.500000" x2="1.000000" y2="1.500000" style="stroke:#c0c0c0;stroke-width:0.006667"/>
<line x1="1.500000" y1="-0.500000" x2="1.500000" y2="1.500000" style="stroke:#c0c0c0;stroke-width:0.006667"/>
<line x1="2.000000" y1="-0.500000" x2="2.000000" y2="1.500000" style="stroke:#c0c0c0;stroke-width:0.006667"/>


<!-- Vert labels -->
<line x1="-2.000000" y1="-0.500000" x2="2.000000" y2="-0.500000" style="stroke:#c0c0c0;stroke-width:0.006667"/>
<line x1="-2.000000" y1="0.000000" x2="2.000000" y2="0.000000" style="stroke:#000000;stroke-width:0.006667"/>
<line x1="-2.000000" y1="0.500000" x2="2.000000" y2="0.500000" style="stroke:#c0c0c0;stroke-width:0.006667"/>
<line x1="-2.000000" y1="1.000000" x2="2.000000" y2="1.000000" style="stroke:#c0c0c0;stroke-width:0.006667"/>
<line x1="-2.000000" y1="1.500000" x2="2.000000" y2="1.500000" style="stroke:#c0c0c0;stroke-width:0.006667"/>


<!-- Clipped region -->
<g clip-path="url(#chart0-0)">
<line x1="-2.000000" y1="0.000000" x2="-1.933333" y2="0.000000" style="stroke:#7f0000;stroke-width:0.016667"/>
<line x1="-1.933333" y1="0.000000" x2="-1.866667" y2="0.000000" style="stroke:#7f0000;stroke-width:0.016667"/>
<line x1="-1.866667" y1="0.000000" x2="-1.800000" y2="0.000000" style="stroke:#7f0000;stroke-width:0.016667"/>
<line x1="-1.800000" y1="0.000000" x2="-1.733333" y2="0.000000" style="stroke:#7f0000;stroke-width:0.016667"/>
<line x1="-1.733333" y1="0.000000" x2="-1.666667" y2="0.000000" style="stroke:#7f0000;stroke-width:0.016667"/>
<line x1="-1.666667" y1="0.000000" x2="-1.600000" y2="0.000000" style="stroke:#7f0000;stroke-width:0.016667"/>
<line x1="-1.600000" y1="0.000000" x2="-1.533333" y2="0.000000" style="stroke:#7f0000;stroke-width:0.016667"/>
<line x1="-1.533333" y1="0.000000" x2="-1.466667" y2="0.000000" style="stroke:#7f0000;stroke-width:0.016667"/>
<line x1="-1.466667" y1="0.000000" x2="-1.400000" y2="0.000000" style="stroke:#7f0000;stroke-width:0.016667"/>
<line x1="-1.400000" y1="0.000000" x2="-1.333333" y2="0.000000" style="stroke:#7f0000;stroke-width:0.016667"/>
<line x1="-1.333333" y1="0.000000" x2="-1.266667" y2="0.000000" style="stroke:#7f0000;stroke-width:0.016667"/>
<line x1="-1.266667" y1="0.000000" x2="-1.200000" y2="0.000000" style="stroke:#7f0000;stroke-width:0.016667"/>
<line x1="-1.200000" y1="0.000000" x2="-1.133333" y2="0.000000" style="stroke:#7f0000;stroke-width:0.016667"/>
<line x1="-1.133333" y1="0.000000" x2="-1.066667" y2="0.000000" style="stroke:#7f0000;stroke-width:0.016667"/>
<line x1="-1.066667" y1="0.000000" x2="-1.000000" y2="0.000000" style="stroke:#7f0000;stroke-width:0.016667"/>
<line x1="-1.000000" y1="0.000000" x2="-0.933333" y2="0.000000" style="stroke:#7f0000;stroke-width:0.016667"/>
<line x1="-0.933333" y1="0.000000" x2="-0.866667" y2="0.000000" style="stroke:#7f0000;stroke-width:0.016667"/>
<line x1="-0.866667" y1="0.000000" x2="-0.800000" y2="0.000000" style="stroke:#7f0000;stroke-width:0.016667"/>
<line x1="-0.800000" y1="0.000000" x2="-0.733333" y2="0.000000" style="stroke:#7f0000;stroke-width:0.016667"/>
<line x1="-0.733333" y1="0.000000" x2="-0.666667" y2="0.000000" style="stroke:#7f0000;stroke-width:0.016667"/>
<line x1="-0.666667" y1="0.000000" x2="-0.600000" y2="0.000000" style="stroke:#7f0000;stroke-width:0.016667"/>
<line x1="-0.600000" y1="0.000000" x2="-0.533333" y2="0.000000" style="stroke:#7f0000;stroke-width:0.016667"/>
<line x1="-0.533333" y1="0.000000" x2="-0.466667" y2="0.000000" style="stroke:#7f0000;stroke-width:0.016667"/>
<line x1="-0.466667" y1="0.000000" x2="-0.400000" y2="0.000000" style="stroke:#7f0000;stroke-width:0.016667"/>
<line x1="-0.400000" y1="0.000000" x2="-0.333333" y2="0.000000" style="stroke:#7f0000;stroke-width:0.016667"/>
<line x1="-0.333333" y1="0.000000" x2="-0.266667" y2="0.000000" style="stroke:#7f0000;stroke-width:0.016667"/>
<line x1="-0.266667" y1="0.000000" x2="-0.200000" y2="0.000000" style="stroke:#7f0000;stroke-width:0.016667"/>
<line x1="-0.200000" y1="0.000000" x2="-0.133333" y2="0.000000" style="stroke:#7f0000;stroke-width:0.016667"/>
<line x1="-0.133333" y1="0.000000" x2="-0.066667" y2="0.000000" style="stroke:#7f0000;stroke-width:0.016667"/>
<line x1="-0.066667" y1="0.000000" x2="-0.000000" y2="0.000000" style="stroke:#7f0000;stroke-width:0.016667"/>
<line x1="-0.000000" y1="0.000000" x2="0.066667" y2="1.000000" style="stroke:#7f0000;stroke-width:0.017738"/>
<line x1="0.066667" y1="1.000000" x2="0.133333" y2="1.000000" style="stroke:#7f0000;stroke-width:0.016667"/>
<line x1="0.133333" y1="1.000000" x2="0.200000" y2="1.000000" style="stroke:#7f0000;stroke-width:0.016667"/>
<line x1="0.200000" y1="1.000000" x2="0.266667" y2="1.000000" style="stroke:#7f0000;stroke-width:0.016667"/>
<line x1="0.266667" y1="1.000000" x2="0.333333" y2="1.000000" style="stroke:#7f0000;stroke-width:0.016667"/>
<line x1="0.333333" y1="1.000000" x2="0.400000" y2="1.000000" style="stroke:#7f0000;stroke-width:0.016667"/>
<line x1="0.400000" y1="1.000000" x2="0.466667" y2="1.000000" style="stroke:#7f0000;stroke-width:0.016667"/>
<line x1="0.466667" y1="1.000000" x2="0.533333" y2="1.000000" style="stroke:#7f0000;stroke-width:0.016667"/>
<line x1="0.533333" y1="1.000000" x2="0.600000" y2="1.000000" style="stroke:#7f0000;stroke-width:0.016667"/>
<line x1="0.600000" y1="1.000000" x2="0.666667" y2="1.000000" style="stroke:#7f0000;stroke-width:0.016667"/>
<line x1="0.666667" y1="1.000000" x2="0.733333" y2="1.000000" style="stroke:#7f0000;stroke-width:0.016667"/>
<line x1="0.733333" y1="1.000000" x2="0.800000" y2="1.000000" style="stroke:#7f0000;stroke-width:0.016667"/>
<line x1="0.800000" y1="1.000000" x2="0.866667" y2="1.000000" style="stroke:#7f0000;stroke-width:0.016667"/>
<line x1="0.866667" y1="1.000000" x2="0.933333" y2="1.000000" style="stroke:#7f0000;stroke-width:0.016667"/>
<line x1="0.933333" y1="1.000000" x2="1.000000" y2="1.000000" style="stroke:#7f0000;stroke-width:0.016667"/>
<line x1="1.000000" y1="1.000000" x2="1.066667" y2="1.000000" style="stroke:#7f0000;stroke-width:0.016667"/>
<line x1="1.066667" y1="1.000000" x2="1.133333" y2="1.000000" style="stroke:#7f0000;stroke-width:0.016667"/>
<line x1="1.133333" y1="1.000000" x2="1.200000" y2="1.000000" style="stroke:#7f0000;stroke-width:0.016667"/>
<line x1="1.200000" y1="1.000000" x2="1.266667" y2="1.000000" style="stroke:#7f0000;stroke-width:0.016667"/>
<line x1="1.266667" y1="1.000000" x2="1.333333" y2="1.000000" style="stroke:#7f0000;stroke-width:0.016667"/>
<line x1="1.333333" y1="1.000000" x2="1.400000" y2="1.000000" style="stroke:#7f0000;stroke-width:0.016667"/>
<line x1="1.400000" y1="1.000000" x2="1.466667" y2="1.000000" style="stroke:#7f0000;stroke-width:0.016667"/>
<line x1="1.466667" y1="1.000000" x2="1.533333" y2="1.000000" style="stroke:#7f0000;stroke-width:0.016667"/>
<line x1="1.533333" y1="1.000000" x2="1.600000" y2="1.000000" style="stroke:#7f0000;stroke-width:0.016667"/>
<line x1="1.600000" y1="1.000000" x2="1.666667" y2="1.000000" style="stroke:#7f0000;stroke-width:0.016667"/>
<line x1="1.666667" y1="1.000000" x2="1.733333" y2="1.000000" style="stroke:#7f0000;stroke-width:0.016667"/>
<line x1="1.733333" y1="1.000000" x2="1.800000" y2="1.000000" style="stroke:#7f0000;stroke-width:0.016667"/>
<line x1="1.800000" y1="1.000000" x2="1.866667" y2="1.000000" style="stroke:#7f0000;stroke-width:0.016667"/>
<line x1="1.866667" y1="1.000000" x2="1.933333" y2="1.000000" style="stroke:#7f0000;stroke-width:0.016667"/>
<line x1="1.933333" y1="1.000000" x2="2.000000" y2="1.000000" style="stroke:#7f0000;stroke-width:0.016667"/>
<line x1="2.000000" y1="1.000000" x2="2.066667" y2="1.000000" style="stroke:#7f0000;stroke-width:0.016667"/>
</g></g>

</svg>
