<?xml version="1.0" encoding="UTF-8" standalone="no"?>
<!-- Created with Inkscape (http://www.inkscape.org/) -->

<svg
   width="1134.9453mm"
   height="592.65399mm"
   viewBox="0 0 1134.9453 592.65396"
   version="1.1"
   id="svg5"
   inkscape:version="1.1.2 (0a00cf5339, 2022-02-04)"
   sodipodi:docname="real-neuron-layers.svg"
   xmlns:inkscape="http://www.inkscape.org/namespaces/inkscape"
   xmlns:sodipodi="http://sodipodi.sourceforge.net/DTD/sodipodi-0.dtd"
   xmlns:xlink="http://www.w3.org/1999/xlink"
   xmlns="http://www.w3.org/2000/svg"
   xmlns:svg="http://www.w3.org/2000/svg">
  <sodipodi:namedview
     id="namedview7"
     pagecolor="#ffffff"
     bordercolor="#666666"
     borderopacity="1.0"
     inkscape:pageshadow="2"
     inkscape:pageopacity="0.0"
     inkscape:pagecheckerboard="0"
     inkscape:document-units="mm"
     showgrid="false"
     inkscape:snap-global="true"
     inkscape:zoom="0.25055622"
     inkscape:cx="2195.1161"
     inkscape:cy="1153.4337"
     inkscape:window-width="2554"
     inkscape:window-height="1365"
     inkscape:window-x="1920"
     inkscape:window-y="32"
     inkscape:window-maximized="1"
     inkscape:current-layer="layer1"
     fit-margin-top="5"
     fit-margin-left="5"
     fit-margin-right="5"
     fit-margin-bottom="5"
     inkscape:snap-page="true" />
  <defs
     id="defs2" />
  <g
     inkscape:label="Layer 1"
     inkscape:groupmode="layer"
     id="layer1"
     transform="translate(798.05611,125.71797)">
    <text
       xml:space="preserve"
       style="font-size:8.46667px;line-height:1.25;font-family:'DejaVu Sans';-inkscape-font-specification:'DejaVu Sans';stroke-width:0.264583"
       x="115.11166"
       y="134.7278"
       id="text53086"><tspan
         sodipodi:role="line"
         id="tspan53084"
         style="stroke-width:0.264583"
         x="115.11166"
         y="134.7278" /></text>
    <g
       id="g207775"
       transform="translate(-0.55280887,77.885772)" />
    <g
       id="g5232"
       transform="translate(-1.6204395e-5,87.117285)">
      <path
         id="path249465"
         style="font-variation-settings:normal;opacity:1;vector-effect:none;fill:#fff6d5;fill-opacity:1;stroke:#000000;stroke-width:0.264583;stroke-linecap:butt;stroke-linejoin:miter;stroke-miterlimit:4;stroke-dasharray:none;stroke-dashoffset:0;stroke-opacity:1;-inkscape-stroke:none;stop-color:#000000;stop-opacity:1"
         d="m -792.9238,100.74909 h 51.29546 v 18.79417 l 24.69045,-34.715773 -24.69045,-34.715778 v 18.794175 h -51.29546 c 0,10.473355 0,21.258187 0,31.843206 z"
         sodipodi:nodetypes="cccccccc" />
      <text
         xml:space="preserve"
         style="font-size:8.46667px;line-height:1.25;font-family:'DejaVu Sans';-inkscape-font-specification:'DejaVu Sans';text-align:center;text-anchor:middle;stroke-width:0.264583"
         x="-762.95306"
         y="81.581718"
         id="text220565"><tspan
           sodipodi:role="line"
           id="tspan220563"
           style="font-style:normal;font-variant:normal;font-weight:normal;font-stretch:normal;font-size:8.46667px;font-family:'Nimbus Sans';-inkscape-font-specification:'Nimbus Sans';text-align:center;text-anchor:middle;stroke-width:0.264583"
           x="-762.95306"
           y="81.581718">input signals</tspan><tspan
           sodipodi:role="line"
           style="font-style:normal;font-variant:normal;font-weight:normal;font-stretch:normal;font-size:8.46667px;font-family:'Nimbus Sans';-inkscape-font-specification:'Nimbus Sans';text-align:center;text-anchor:middle;stroke-width:0.264583"
           x="-762.95306"
           y="92.425537"
           id="tspan243336">x<tspan
   style="font-size:65%;baseline-shift:sub"
   id="tspan244222">1</tspan>, x<tspan
   style="font-size:65%;baseline-shift:sub"
   id="tspan244220">2</tspan>, ..., x<tspan
   style="font-size:65%;baseline-shift:sub"
   id="tspan244218">10</tspan></tspan></text>
    </g>
    <g
       id="g5243"
       transform="translate(-2.6459522e-5,87.117285)">
      <path
         id="path250205"
         style="font-variation-settings:normal;opacity:1;vector-effect:none;fill:#fff6d5;fill-opacity:1;stroke:#000000;stroke-width:0.264583;stroke-linecap:butt;stroke-linejoin:miter;stroke-miterlimit:4;stroke-dasharray:none;stroke-dashoffset:0;stroke-opacity:1;-inkscape-stroke:none;stop-color:#000000;stop-opacity:1"
         d="m 255.74098,100.74909 h 51.2954 v 18.79417 l 24.6905,-34.715773 -24.6905,-34.715778 v 18.794175 h -51.2954 c 0,10.473355 0,21.258187 0,31.843206 z"
         sodipodi:nodetypes="cccccccc" />
      <text
         xml:space="preserve"
         style="font-size:8.46667px;line-height:1.25;font-family:'DejaVu Sans';-inkscape-font-specification:'DejaVu Sans';text-align:center;text-anchor:middle;stroke-width:0.264583"
         x="287.85205"
         y="81.56881"
         id="text221194"><tspan
           sodipodi:role="line"
           id="tspan221192"
           style="font-style:normal;font-variant:normal;font-weight:normal;font-stretch:normal;font-size:8.46667px;font-family:'Nimbus Sans';-inkscape-font-specification:'Nimbus Sans';text-align:center;text-anchor:middle;stroke-width:0.264583"
           x="287.85205"
           y="81.56881">output signals</tspan><tspan
           sodipodi:role="line"
           style="font-style:normal;font-variant:normal;font-weight:normal;font-stretch:normal;font-size:8.46667px;font-family:'Nimbus Sans';-inkscape-font-specification:'Nimbus Sans';text-align:center;text-anchor:middle;stroke-width:0.264583"
           x="287.85205"
           y="92.412628"
           id="tspan247546">y<tspan
   style="font-size:65%;baseline-shift:sub"
   id="tspan249184">1</tspan>, y<tspan
   style="font-size:65%;baseline-shift:sub"
   id="tspan249182">2</tspan>, y<tspan
   style="font-size:65%;baseline-shift:sub"
   id="tspan249180">3</tspan>, y<tspan
   style="font-size:65%;baseline-shift:sub"
   id="tspan249178">4</tspan>, y<tspan
   style="font-size:65%;baseline-shift:sub"
   id="tspan249176">5</tspan></tspan></text>
    </g>
    <g
       id="g5223"
       transform="translate(-8.0976999,-73.985115)">
      <g
         id="g208872"
         transform="translate(-719.48195,14.008518)">
        <path
           style="font-variation-settings:normal;opacity:1;vector-effect:none;fill:#a78ed0;fill-opacity:1;stroke:#000000;stroke-width:0.264583;stroke-linecap:butt;stroke-linejoin:miter;stroke-miterlimit:4;stroke-dasharray:none;stroke-dashoffset:0;stroke-opacity:1;-inkscape-stroke:none;stop-color:#000000;stop-opacity:1"
           d="m 104.77599,73.851159 c -6.376892,-1.41616 -13.539578,-5.27148 -14.68401,-12.325194 0.156554,-5.626065 2.488495,-10.863308 4.032994,-16.196141 1.794134,-4.260457 9.373876,-5.319343 9.951616,-9.096612 -5.688262,0.308943 3.30594,-9.12628 -1.46442,-5.334545 -2.11347,1.736665 -6.557122,9.847669 -6.608732,6.395567 -0.57802,-3.593773 1.19305,-7.045073 1.61149,-10.581182 0.41853,-2.064935 2.25368,-8.164797 0.25789,-7.884727 -0.85403,2.634392 -1.98209,5.175462 -2.951213,7.770659 -3.506234,1.688585 -1.348306,8.487288 -2.46448,12.090826 -0.167115,5.658947 -2.154793,10.999829 -4.456613,16.097422 -5.77816,-2.340915 -3.796417,-9.729325 -0.904185,-13.621177 0.798742,-3.511567 7.543566,-8.746134 3.373036,-11.353515 -0.843415,-5.541695 -0.670715,2.795477 -2.17098,4.330168 -1.026206,1.874298 -2.864069,6.939833 -2.10559,2.170606 0.287196,-2.109288 0.872481,-3.740973 -1.654499,-3.223287 -2.382815,-4.240378 -0.663479,5.476589 -1.046218,7.243745 0.06577,2.017477 0.6814,6.046362 -1.496981,2.53716 -3.64711,-2.559769 -1.953428,5.290913 -1.429443,7.124893 0.784574,5.281001 5.813159,9.195283 4.835863,14.695442 -0.965044,5.63197 -7.783702,-0.0765 -10.23388,-2.239819 -4.795929,-4.148879 -6.516175,-11.406486 -3.66344,-17.134064 1.752938,-4.550723 7.202534,-6.050167 9.095914,-10.39432 -1.87504,1.124049 -3.484806,1.992805 -3.353692,-0.790636 -1.463742,1.647715 -3.722084,7.81786 -5.973755,5.698753 0.816048,-4.216572 4.211861,-7.114895 6.488634,-10.584661 3.2452,-3.671389 -3.127237,1.774947 -2.475842,-0.951509 l 1.122662,-5.832432 c -2.490549,3.402705 -3.354097,9.087924 -7.513225,10.654007 -3.377356,-2.515077 -1.931795,1.825755 -2.151137,3.810211 0.05581,3.318778 0.111627,6.637557 0.16744,9.956335 -4.117999,2.688912 -3.892488,-5.868451 -4.12459,-8.467377 0.216763,-6.77049 1.949741,-13.368354 3.495951,-19.933648 -2.901218,-0.284476 -2.611445,8.046799 -3.071123,1.961047 l -0.413252,-5.25441 c -1.476697,3.433677 -1.927386,7.081078 -1.569406,10.769868 -0.152743,2.863408 -0.109305,12.197176 -4.530019,9.010895 -1.707593,-4.403531 -1.107272,-9.586668 0.601977,-13.920849 1.187468,-2.60522 1.762812,-5.138962 -0.543353,-6.08467 -0.440507,-3.587735 -0.865514,0.715235 -1.153685,1.978344 -0.197139,1.823025 -0.446244,3.485952 -1.941121,1.310856 -2.691175,-3.170701 -1.252471,0.03571 -0.485629,2.339172 0.515269,2.245288 1.240018,7.990257 0.15957,8.241737 l -5.234342,-4.586216 c -1.73275,2.842001 3.394798,5.850814 4.542743,8.683207 2.683733,3.833023 5.812922,7.451853 7.913189,11.628861 -0.816143,5.761202 -7.712017,-0.02989 -9.864943,-2.256278 -2.957527,-5.125809 -6.208563,-10.119334 -9.820348,-14.794122 -1.358601,-1.867815 -0.110685,-8.438721 -0.7163,-7.376212 -1.52824,0.578528 -2.830891,-1.891321 -1.799181,1.260237 1.081234,3.901557 -1.582721,7.223138 2.479443,9.807711 2.520177,2.95265 4.997942,6.042926 6.480351,9.668117 l -7.814238,-0.936659 c 2.853566,3.443519 8.555987,2.755951 10.869186,7.065064 2.456794,3.901796 7.501953,2.053738 10.563101,4.55231 2.301182,3.623876 4.816064,7.115548 7.201756,10.687142 0.254153,4.17906 3.478518,10.78005 -0.514029,13.50688 -2.339201,-0.041 -6.23216,-8.105786 -5.470401,-2.2999 0.472765,4.07427 -4.812272,-1.63033 -6.734658,-1.65962 -1.541595,-0.5307 -8.231311,1.38624 -3.6853,1.72247 2.766026,-0.11205 8.003489,4.14613 2.255767,3.82688 -5.047172,1.39564 -10.659446,-1.44253 -10.643344,-7.055139 -0.952865,-5.330351 -0.1251,-10.751475 0.630393,-16.050067 -0.758245,1.764021 -2.478972,2.27245 -2.911029,0.91774 -0.930302,5.699917 -1.020976,11.524744 -1.140668,17.301656 -2.62483,3.62252 4.922613,7.63563 0.414187,10.43997 -1.164858,0.31117 2.684609,-0.53444 3.704633,-0.72731 2.309837,-0.47488 4.619673,-0.94977 6.92951,-1.42466 -1.658019,3.74667 -4.874536,6.86824 -6.042337,10.66003 4.561665,0.5532 5.377055,-6.79072 9.259928,-8.66694 3.90476,-4.18441 11.268982,-3.68124 13.576282,1.89351 1.640203,6.18926 -8.015414,5.51108 -11.648012,7.98225 -6.109126,2.22974 -12.204357,4.62826 -17.787041,8.001961 -0.475098,3.03083 3.708358,0.14767 5.442731,0.0972 1.931757,-0.6231 4.118477,-1.456021 1.803731,1.41559 -1.294721,2.77602 -4.116722,7.8629 -4.496035,9.25387 1.577575,-1.85693 3.155149,-3.71387 4.732724,-5.5708 -0.232542,2.86452 0.812992,3.54614 2.049193,0.57542 1.869604,-2.43543 5.387973,-8.532971 6.207092,-8.635131 -0.504513,3.357721 -3.06504,9.356801 -2.271591,11.047021 2.525052,-1.42457 2.483427,4.69223 3.492896,-0.12015 -0.520265,-5.49824 2.21648,-11.204471 7.111429,-13.994811 3.798456,-1.69011 11.406979,0.81422 7.974326,5.852371 -1.183872,6.14023 -6.679435,9.86818 -11.140431,13.63934 3.176236,1.0663 7.087471,-4.93506 8.061125,-3.89866 l -1.961066,5.87451 c 0.691434,-3.86676 4.843559,0.70468 4.157433,-0.43615 0.395672,-3.99635 1.984095,-10.43441 4.013938,-12.29057 0.921777,1.55588 3.009506,8.08661 3.188641,6.47382 L 75.858586,93.501589 c 2.998533,0.71445 7.759572,-1.54196 9.296292,1.6667 2.508751,5.216541 1.732555,11.178931 2.641179,16.699941 2.542318,-1.08132 -0.668311,-9.07831 3.758866,-5.6296 2.777922,2.27963 3.374265,6.58291 6.893575,8.05826 -2.40597,-2.948 -2.97896,-8.05569 2.362482,-5.93881 3.17254,0.34734 -2.744582,-3.08683 -3.624792,-4.3454 -3.130539,-2.90782 -6.722421,-5.405061 -9.545519,-8.585491 -2.122762,-2.54239 -0.382609,-7.09862 2.691899,-3.39468 4.020822,1.94462 9.814732,7.67962 13.435482,6.17584 -1.89671,-1.51319 -4.658592,-4.28196 -0.2486,-3.20588 1.88836,0.11355 4.57956,-0.008 1.05347,-0.97948 -4.05524,-2.39539 -10.464514,-2.51434 -12.642693,-7.02597 1.302427,-4.30943 6.169651,-6.78631 9.909523,-8.75641 2.64312,0.0477 2.42717,-2.46225 2.92658,-4.34563 l 0.01,-0.0438 z"
           id="path3850"
           sodipodi:nodetypes="ccscccccccccaccccccccccccccccaccccccccccccsccccccccccccsccccccccccccccccccccccccccsscccccccccccccccccccccc" />
        <path
           style="font-variation-settings:normal;opacity:1;vector-effect:none;fill:#a28ac6;fill-opacity:1;stroke:#000000;stroke-width:0.264583;stroke-linecap:butt;stroke-linejoin:miter;stroke-miterlimit:4;stroke-dasharray:none;stroke-dashoffset:0;stroke-opacity:1;-inkscape-stroke:none;stop-color:#000000;stop-opacity:1"
           d="m 127.35129,80.502129 c 1.30745,-0.059 2.3341,0.96784 3.57848,1.19935 1.02737,0.55006 0.69079,2.26355 -0.56426,2.07869 -1.30298,0.11098 -2.53025,-0.44042 -3.75294,-0.78808 -1.14863,-0.84641 -0.0652,-1.95152 0.73872,-2.48996 z"
           id="path13747" />
        <path
           style="font-variation-settings:normal;opacity:1;vector-effect:none;fill:#a28ac6;fill-opacity:1;stroke:#000000;stroke-width:0.264583;stroke-linecap:butt;stroke-linejoin:miter;stroke-miterlimit:4;stroke-dasharray:none;stroke-dashoffset:0;stroke-opacity:1;-inkscape-stroke:none;stop-color:#000000;stop-opacity:1"
           d="m 157.49738,86.196699 c -1.63998,-0.35151 -3.3423,-0.13868 -4.98151,-0.50332 -1.72807,-0.12656 -1.91209,2.70026 -0.19587,2.86811 1.53298,0.22724 3.08806,-0.10659 4.63292,-0.0677 1.28422,0.29801 1.62839,-1.69212 0.68948,-2.25365 z"
           id="path14481" />
        <path
           style="font-variation-settings:normal;opacity:1;vector-effect:none;fill:#a28ac6;fill-opacity:1;stroke:#000000;stroke-width:0.264583;stroke-linecap:butt;stroke-linejoin:miter;stroke-miterlimit:4;stroke-dasharray:none;stroke-dashoffset:0;stroke-opacity:1;-inkscape-stroke:none;stop-color:#000000;stop-opacity:1"
           d="m 182.10307,82.106149 c -1.46485,0.23556 -2.84273,0.8086 -4.22412,1.30657 -0.9832,0.48506 -1.41572,1.79489 -1.11382,2.79594 0.74799,1.03164 2.17306,-0.0226 3.2145,0.0945 1.36368,0.007 2.79598,-0.74842 2.88281,-2.25615 0.10871,-0.68996 0.0194,-1.68147 -0.75937,-1.94091 z"
           id="path15312" />
        <path
           style="font-variation-settings:normal;opacity:1;vector-effect:none;fill:#a28ac6;fill-opacity:1;stroke:#000000;stroke-width:0.264583;stroke-linecap:butt;stroke-linejoin:miter;stroke-miterlimit:4;stroke-dasharray:none;stroke-dashoffset:0;stroke-opacity:1;-inkscape-stroke:none;stop-color:#000000;stop-opacity:1"
           d="m 206.12907,78.469274 c -1.48468,-0.111329 -3.09165,0.312541 -4.22008,1.296534 -1.12447,1.147282 0.26005,2.369531 1.4798,2.403262 1.52878,0.261918 3.17324,-0.152919 4.40771,-1.082235 0.88943,-1.277128 -1.25322,-1.730107 -1.66743,-2.617561 z"
           id="path15747" />
        <path
           style="font-variation-settings:normal;opacity:1;vector-effect:none;fill:#2b7130;fill-opacity:1;stroke:#000000;stroke-width:0.264583;stroke-linecap:butt;stroke-linejoin:miter;stroke-miterlimit:4;stroke-dasharray:none;stroke-dashoffset:0;stroke-opacity:1;-inkscape-stroke:none;stop-color:#000000;stop-opacity:1"
           d="m 84.095399,86.838079 c 3.018852,-2.47519 1.4071,-5.05387 -0.302888,-6.94352 -1.689752,-1.48463 -3.839728,-3.73831 -6.114478,-3.30156 -3.346458,0.64251 -1.553486,4.29087 0.03598,5.62771 1.410811,1.53086 2.131581,3.49411 4.251233,4.16085 0.568553,0.20818 1.660583,0.84153 2.130153,0.45652 z"
           id="path12069"
           sodipodi:nodetypes="scsccs" />
        <path
           style="font-variation-settings:normal;opacity:1;vector-effect:none;fill:#f3cd4b;fill-opacity:1;stroke:#000000;stroke-width:0.264583;stroke-linecap:butt;stroke-linejoin:miter;stroke-miterlimit:4;stroke-dasharray:none;stroke-dashoffset:0;stroke-opacity:1;-inkscape-stroke:none;stop-color:#000000;stop-opacity:1"
           d="m 103.98574,77.189529 c 0.81494,2.68315 3.2345,4.14039 5.63391,5.16672 2.59777,1.81635 5.75526,1.8763 8.71666,2.48852 2.49698,-0.15665 5.27908,0.70762 7.53799,-0.69658 1.65864,-1.24201 3.11272,-3.98715 1.40938,-5.78212 -2.20385,-1.45181 -4.73961,-2.40871 -7.20146,-3.38411 -2.87723,-0.43992 -5.46326,-2.00674 -8.40366,-2.20056 -2.33963,-0.34797 -6.24442,-0.98145 -7.17794,1.91357 -0.24058,0.86714 -0.23038,1.77527 -0.38023,2.65784"
           id="path12615" />
        <path
           style="font-variation-settings:normal;opacity:1;vector-effect:none;fill:#d999aa;fill-opacity:1;stroke:#000000;stroke-width:0.264583;stroke-linecap:butt;stroke-linejoin:miter;stroke-miterlimit:4;stroke-dasharray:none;stroke-dashoffset:0;stroke-opacity:1;-inkscape-stroke:none;stop-color:#000000;stop-opacity:1"
           d="m 112.17643,75.436689 c -0.52962,-0.0345 -1.09542,-0.052 -1.57959,0.19992 -0.31364,0.15793 -0.47676,0.5172 -0.44584,0.85863 0.008,0.34314 0.1351,0.69666 0.41808,0.90841 0.44739,0.34435 1.0263,0.41815 1.5654,0.51687 0.30403,0.041 0.5982,0.16413 0.90995,0.13443 0.60487,-0.0231 1.19966,-0.44146 1.33901,-1.04566 0.0447,-0.1727 0.0341,-0.35182 0.0754,-0.52482 0.0546,-0.34322 -0.13531,-0.69374 -0.44172,-0.85127 -0.37516,-0.21005 -0.82516,-0.22722 -1.24065,-0.16169 -0.2004,0.001 -0.40195,-0.002 -0.60006,-0.0348 z"
           id="path12749" />
        <path
           style="font-variation-settings:normal;opacity:1;vector-effect:none;fill:#f3cd4b;fill-opacity:1;stroke:#000000;stroke-width:0.264583;stroke-linecap:butt;stroke-linejoin:miter;stroke-miterlimit:4;stroke-dasharray:none;stroke-dashoffset:0;stroke-opacity:1;-inkscape-stroke:none;stop-color:#000000;stop-opacity:1"
           d="m 143.31401,81.512659 c -4.12871,-0.43545 -8.86617,-2.69118 -12.68635,-0.13216 -3.19324,3.8321 2.27877,6.55686 5.27219,7.74435 4.09828,1.48131 8.56429,1.38058 12.85867,1.50412 4.94559,0.4282 5.35228,-5.93853 1.15252,-7.41984 -2.04413,-0.94629 -4.30052,-1.8552 -6.59703,-1.69647 z"
           id="path13048" />
        <path
           style="font-variation-settings:normal;opacity:1;vector-effect:none;fill:#d999aa;fill-opacity:1;stroke:#000000;stroke-width:0.264583;stroke-linecap:butt;stroke-linejoin:miter;stroke-miterlimit:4;stroke-dasharray:none;stroke-dashoffset:0;stroke-opacity:1;-inkscape-stroke:none;stop-color:#000000;stop-opacity:1"
           d="m 140.77596,84.836539 c -0.6075,0.1939 -1.1399,-0.36521 -1.72937,-0.2635 -0.96486,0.22754 -1.40354,1.55102 -0.75624,2.30961 0.40982,0.65729 1.26773,0.52039 1.92209,0.47116 0.65862,-0.13627 1.3487,-0.44488 1.7805,-0.97468 0.29585,-0.48092 0.24095,-1.30808 -0.42176,-1.43338 -0.32345,-0.0136 -0.64295,-0.0726 -0.96443,-0.11254"
           id="path13314" />
        <path
           style="font-variation-settings:normal;opacity:1;vector-effect:none;fill:#f3cd4b;fill-opacity:1;stroke:#000000;stroke-width:0.264583;stroke-linecap:butt;stroke-linejoin:miter;stroke-miterlimit:4;stroke-dasharray:none;stroke-dashoffset:0;stroke-opacity:1;-inkscape-stroke:none;stop-color:#000000;stop-opacity:1"
           d="m 170.30469,82.610289 c -4.646,0.69036 -9.50673,0.95464 -13.76172,3.13931 -0.90893,0.25591 -1.23927,1.25465 -1.15784,2.11872 0.24593,1.72885 1.85795,2.81342 3.29177,3.55776 1.41432,0.75379 3.00203,1.05364 4.5861,1.16466 3.58293,0.3463 7.28432,0.36451 10.75982,-0.67795 2.31878,-0.88759 4.51165,-2.76436 4.99023,-5.29965 0.18025,-1.11807 -0.004,-2.41559 -0.95045,-3.15294 -1.51135,-1.30211 -3.65449,-1.11356 -5.50648,-0.97968 -0.74936,0.0583 -1.49901,0.13255 -2.25143,0.12977 z"
           id="path14015" />
        <path
           style="font-variation-settings:normal;opacity:1;vector-effect:none;fill:#d999aa;fill-opacity:1;stroke:#000000;stroke-width:0.264583;stroke-linecap:butt;stroke-linejoin:miter;stroke-miterlimit:4;stroke-dasharray:none;stroke-dashoffset:0;stroke-opacity:1;-inkscape-stroke:none;stop-color:#000000;stop-opacity:1"
           d="m 167.88728,86.331149 c -0.80104,-0.0351 -2.10549,0.12192 -2.09842,1.16606 -0.0782,0.76471 0.15299,1.90893 1.12448,1.89245 0.94548,-0.0357 1.97414,0.28795 2.79899,-0.35642 0.89689,-0.50816 0.9763,-2.04784 -0.0858,-2.41191 -0.56771,-0.13042 -1.16941,-0.11677 -1.73929,-0.29018 z"
           id="path14248" />
        <path
           style="font-variation-settings:normal;opacity:1;vector-effect:none;fill:#f3cd4b;fill-opacity:1;stroke:#000000;stroke-width:0.264583;stroke-linecap:butt;stroke-linejoin:miter;stroke-miterlimit:4;stroke-dasharray:none;stroke-dashoffset:0;stroke-opacity:1;-inkscape-stroke:none;stop-color:#000000;stop-opacity:1"
           d="m 187.42907,78.688001 c -2.64842,0.288467 -6.49442,1.43981 -6.1692,4.791822 1.19682,2.589448 4.78134,2.927448 7.30953,3.040383 3.41007,-0.271355 6.76971,-0.176987 10.12435,-0.957704 3.70115,0.359172 7.17442,-3.810568 3.02309,-6.205241 -3.07612,-1.686431 -6.8714,-1.413638 -10.26882,-1.125691 -1.32972,0.229609 -2.66664,0.433417 -4.01895,0.456431 z"
           id="path14747" />
        <path
           style="font-variation-settings:normal;opacity:1;vector-effect:none;fill:#d999aa;fill-opacity:1;stroke:#000000;stroke-width:0.264583;stroke-linecap:butt;stroke-linejoin:miter;stroke-miterlimit:4;stroke-dasharray:none;stroke-dashoffset:0;stroke-opacity:1;-inkscape-stroke:none;stop-color:#000000;stop-opacity:1"
           d="m 192.82924,80.401483 c -1.72908,-1.054669 -3.00645,1.772134 -1.34488,2.680687 0.9109,1.296234 3.80661,1.403526 3.73699,-0.600803 -0.23605,-1.16264 -1.44155,-1.874812 -2.49459,-2.192576"
           id="path14947" />
        <path
           style="font-variation-settings:normal;opacity:1;vector-effect:none;fill:#a78ed0;fill-opacity:1;stroke:#000000;stroke-width:0.264583;stroke-linecap:butt;stroke-linejoin:miter;stroke-miterlimit:4;stroke-dasharray:none;stroke-dashoffset:0;stroke-opacity:1;-inkscape-stroke:none;stop-color:#000000;stop-opacity:1"
           d="m 227.36179,78.845545 c 4.58903,-0.172265 8.92113,2.963067 9.65415,7.387897 -0.3523,3.188386 0.20237,8.14274 -1.87645,11.216354 -2.44825,3.965824 -1.8902,8.789194 -1.54913,13.371134 -0.88369,4.24476 -1.3926,8.49964 -0.74632,12.81552 0.74528,3.27903 0.50064,7.28527 -0.006,10.73555 9.54946,16.10636 5.46672,3.8536 5.36438,-3.44828 3.64702,-1.58415 8.60281,-1.98153 12.54599,-1.08092 3.66342,0.90943 3.28484,5.32179 5.72073,7.92832 3.69587,2.45783 -0.35836,-6.89556 -0.72881,-8.53602 -2.43265,-2.35605 -5.67721,-3.22814 -9.27959,-3.59018 -1.31866,-1.54305 -3.58373,-2.75063 -4.97611,-4.09782 3.6667,-1.78054 6.35305,-1.58601 8.7539,-5.08447 3.41144,-1.4422 7.18546,-3.34764 11.00212,-3.69964 3.7414,-1.20904 6.5668,-0.12887 8.0892,3.13426 2.93513,3.36151 0.10402,7.93037 1.22519,11.53094 2.43131,-2.34923 1.60434,-10.02804 6.5854,-8.71749 2.16856,-0.53627 6.35543,3.7324 4.00862,-0.36464 -3.37123,-1.21107 -6.12823,-2.49753 -9.87034,-3.78445 -2.03749,-2.21297 -3.88715,-5.28265 -7.69423,-5.32218 -4.255,0.70717 -8.73825,0.27187 -12.55142,2.58326 -3.85511,0.89626 -9.45095,0.95766 -9.92085,-4.14548 -0.36241,-4.3601 0.48712,-9.415893 4.51126,-11.937252 3.99737,-0.715476 7.88864,-0.793267 11.56034,0.749687 1.38476,0.889902 4.69796,1.469251 4.73754,1.917667 -3.63779,-0.473222 -4.16628,-5.463422 -5.05894,-6.719019 -0.962,-2.252816 -1.10988,-7.572867 -5.30354,-5.153255 -3.25296,2.269121 -10.03167,-1.817369 -5.77022,-4.501491 1.0893,-3.581171 5.26992,-3.168031 8.08687,-3.32054 3.65803,-1.878078 8.48769,-1.488799 11.32826,1.139727 -0.17059,3.497145 3.11481,-0.90973 4.69529,-0.779191 2.4593,-1.216206 3.35826,-3.71195 6.34391,-3.983475 -0.15285,-4.182197 4.98672,-4.263585 5.22646,-7.780803 0.75889,-4.112403 4.24104,-4.590916 6.84146,-5.024098 1.69969,-0.925737 1.02776,-3.73687 -1.43301,-2.460991 -1.7912,0.147369 -3.01108,0.228961 -2.20833,-2.482912 -4.58743,-3.441061 -2.14469,5.438552 -4.14192,7.025511 -1.63593,2.840512 -4.77603,5.553458 -5.96014,8.072243 -2.30742,2.080093 -5.4144,1.165684 -7.79853,1.93979 -2.21882,1.036765 -9.73546,0.416902 -7.17408,-4.487848 0.0352,-2.582651 4.33951,-4.652391 3.25028,-6.535152 -2.1429,1.834011 -5.67585,1.778703 -6.15465,4.198885 -2.21377,3.863398 -7.40757,3.075356 -10.74819,2.980889 -2.82783,-2.272201 -0.90618,-6.18457 -1.17455,-9.485077 3.06555,-2.02735 4.13325,-4.481459 6.80207,-7.668017 3.37036,-0.819209 6.68661,-1.316774 10.48496,-0.591856 5.07756,1.148311 -2.96618,-0.819503 -0.94366,-4.0547 -1.69389,-2.812886 6.47384,-2.734547 2.16285,-4.760718 -4.18945,-1.551251 -5.72248,4.143826 -9.72111,3.587185 -1.57431,0.534328 -2.92223,3.916701 -5.6388,1.463717 -3.38179,-0.33384 -2.43983,-5.678922 -2.68606,-8.95884 1.21855,-2.696674 2.64546,-6.999327 5.7567,-8.086709 5.05918,-3.393282 -0.11174,-3.930907 -4.31859,-2.277042 -2.83953,1.824878 -5.07598,4.242575 -4.84076,7.927062 -2.28643,4.228233 1.51374,9.542133 -2.47854,13.293869 0.28984,3.851449 -0.66487,7.349205 -2.06561,10.765111 -2.76461,3.248457 -1.46256,8.539521 -4.85914,11.267277 -2.09107,0.6946 -6.807,3.131306 -5.05987,5.888701 z"
           id="path4314"
           sodipodi:nodetypes="ccccccccccccccccccccccccccccccccccccccccccccccccccccccccccc" />
        <path
           style="font-variation-settings:normal;opacity:1;vector-effect:none;fill:#f3cd4b;fill-opacity:1;stroke:#000000;stroke-width:0.264583;stroke-linecap:butt;stroke-linejoin:miter;stroke-miterlimit:4;stroke-dasharray:none;stroke-dashoffset:0;stroke-opacity:1;-inkscape-stroke:none;stop-color:#000000;stop-opacity:1"
           d="m 221.04434,73.178728 c -3.77168,0.867581 -7.7941,0.59446 -11.34198,2.367054 -3.84112,0.790211 -4.96117,6.625239 -0.73476,7.676674 3.34227,0.362162 6.75825,0.375493 10.12406,0.210036 3.1452,-0.49987 6.3182,-1.35229 9.1749,-2.776202 2.7491,-1.525781 1.6041,-6.127904 -0.9511,-7.291866 -2.08786,-0.158702 -4.20091,0.23546 -6.27112,-0.185696 z"
           id="path15514" />
        <path
           style="font-variation-settings:normal;opacity:1;vector-effect:none;fill:#d999aa;fill-opacity:1;stroke:#000000;stroke-width:0.264583;stroke-linecap:butt;stroke-linejoin:miter;stroke-miterlimit:4;stroke-dasharray:none;stroke-dashoffset:0;stroke-opacity:1;-inkscape-stroke:none;stop-color:#000000;stop-opacity:1"
           d="m 219.65026,76.424411 c -1.06283,-0.551119 -2.82511,-0.542018 -3.29001,0.781163 -0.60212,1.356205 1.17772,2.473301 2.34112,1.843326 1.04165,0.0041 2.88844,-0.873906 1.9178,-2.094372 -0.28315,-0.35456 -0.73656,-0.642901 -1.20721,-0.563243"
           id="path16013" />
      </g>
      <use
         x="0"
         y="0"
         xlink:href="#g208872"
         id="use2951"
         transform="translate(222.25008,-42.333335)"
         width="100%"
         height="100%" />
      <use
         x="0"
         y="0"
         xlink:href="#g208872"
         id="use2953"
         transform="translate(0,105.83334)"
         width="100%"
         height="100%" />
      <use
         x="0"
         y="0"
         xlink:href="#g208872"
         id="use2955"
         transform="translate(222.25008,63.500001)"
         width="100%"
         height="100%" />
      <use
         x="0"
         y="0"
         xlink:href="#g208872"
         id="use3569"
         transform="translate(0,-105.83334)"
         width="100%"
         height="100%" />
      <use
         x="0"
         y="0"
         xlink:href="#g208872"
         id="use3571"
         transform="translate(222.25008,-148.1667)"
         width="100%"
         height="100%" />
      <use
         x="0"
         y="0"
         xlink:href="#g208872"
         id="use4279"
         transform="translate(222.25008,169.33338)"
         width="100%"
         height="100%" />
      <g
         id="g5090"
         transform="translate(-274.98167,35.175186)">
        <path
           style="font-variation-settings:normal;opacity:1;vector-effect:none;fill:#a78ed0;fill-opacity:1;stroke:#000000;stroke-width:0.264583;stroke-linecap:butt;stroke-linejoin:miter;stroke-miterlimit:4;stroke-dasharray:none;stroke-dashoffset:0;stroke-opacity:1;-inkscape-stroke:none;stop-color:#000000;stop-opacity:1"
           d="m 104.77599,73.851159 c -6.376892,-1.41616 -13.539578,-5.27148 -14.68401,-12.325194 0.156554,-5.626065 2.488495,-10.863308 4.032994,-16.196141 1.794134,-4.260457 9.373876,-5.319343 9.951616,-9.096612 -5.688262,0.308943 3.30594,-9.12628 -1.46442,-5.334545 -2.11347,1.736665 -6.557122,9.847669 -6.608732,6.395567 -0.57802,-3.593773 1.19305,-7.045073 1.61149,-10.581182 0.41853,-2.064935 2.25368,-8.164797 0.25789,-7.884727 -0.85403,2.634392 -1.98209,5.175462 -2.951213,7.770659 -3.506234,1.688585 -1.348306,8.487288 -2.46448,12.090826 -0.167115,5.658947 -2.154793,10.999829 -4.456613,16.097422 -5.77816,-2.340915 -3.796417,-9.729325 -0.904185,-13.621177 0.798742,-3.511567 7.543566,-8.746134 3.373036,-11.353515 -0.843415,-5.541695 -0.670715,2.795477 -2.17098,4.330168 -1.026206,1.874298 -2.864069,6.939833 -2.10559,2.170606 0.287196,-2.109288 0.872481,-3.740973 -1.654499,-3.223287 -2.382815,-4.240378 -0.663479,5.476589 -1.046218,7.243745 0.06577,2.017477 0.6814,6.046362 -1.496981,2.53716 -3.64711,-2.559769 -1.953428,5.290913 -1.429443,7.124893 0.784574,5.281001 5.813159,9.195283 4.835863,14.695442 -0.965044,5.63197 -7.783702,-0.0765 -10.23388,-2.239819 -4.795929,-4.148879 -6.516175,-11.406486 -3.66344,-17.134064 1.752938,-4.550723 7.202534,-6.050167 9.095914,-10.39432 -1.87504,1.124049 -3.484806,1.992805 -3.353692,-0.790636 -1.463742,1.647715 -3.722084,7.81786 -5.973755,5.698753 0.816048,-4.216572 4.211861,-7.114895 6.488634,-10.584661 3.2452,-3.671389 -3.127237,1.774947 -2.475842,-0.951509 l 1.122662,-5.832432 c -2.490549,3.402705 -3.354097,9.087924 -7.513225,10.654007 -3.377356,-2.515077 -1.931795,1.825755 -2.151137,3.810211 0.05581,3.318778 0.111627,6.637557 0.16744,9.956335 -4.117999,2.688912 -3.892488,-5.868451 -4.12459,-8.467377 0.216763,-6.77049 1.949741,-13.368354 3.495951,-19.933648 -2.901218,-0.284476 -2.611445,8.046799 -3.071123,1.961047 l -0.413252,-5.25441 c -1.476697,3.433677 -1.927386,7.081078 -1.569406,10.769868 -0.152743,2.863408 -0.109305,12.197176 -4.530019,9.010895 -1.707593,-4.403531 -1.107272,-9.586668 0.601977,-13.920849 1.187468,-2.60522 1.762812,-5.138962 -0.543353,-6.08467 -0.440507,-3.587735 -0.865514,0.715235 -1.153685,1.978344 -0.197139,1.823025 -0.446244,3.485952 -1.941121,1.310856 -2.691175,-3.170701 -1.252471,0.03571 -0.485629,2.339172 0.515269,2.245288 1.240018,7.990257 0.15957,8.241737 l -5.234342,-4.586216 c -1.73275,2.842001 3.394798,5.850814 4.542743,8.683207 2.683733,3.833023 5.812922,7.451853 7.913189,11.628861 -0.816143,5.761202 -7.712017,-0.02989 -9.864943,-2.256278 -2.957527,-5.125809 -6.208563,-10.119334 -9.820348,-14.794122 -1.358601,-1.867815 -0.110685,-8.438721 -0.7163,-7.376212 -1.52824,0.578528 -2.830891,-1.891321 -1.799181,1.260237 1.081234,3.901557 -1.582721,7.223138 2.479443,9.807711 2.520177,2.95265 4.997942,6.042926 6.480351,9.668117 l -7.814238,-0.936659 c 2.853566,3.443519 8.555987,2.755951 10.869186,7.065064 2.456794,3.901796 7.501953,2.053738 10.563101,4.55231 2.301182,3.623876 4.816064,7.115548 7.201756,10.687142 0.254153,4.17906 3.478518,10.78005 -0.514029,13.50688 -2.339201,-0.041 -6.23216,-8.105786 -5.470401,-2.2999 0.472765,4.07427 -4.812272,-1.63033 -6.734658,-1.65962 -1.541595,-0.5307 -8.231311,1.38624 -3.6853,1.72247 2.766026,-0.11205 8.003489,4.14613 2.255767,3.82688 -5.047172,1.39564 -10.659446,-1.44253 -10.643344,-7.055139 -0.952865,-5.330351 -0.1251,-10.751475 0.630393,-16.050067 -0.758245,1.764021 -2.478972,2.27245 -2.911029,0.91774 -0.930302,5.699917 -1.020976,11.524744 -1.140668,17.301656 -2.62483,3.62252 4.922613,7.63563 0.414187,10.43997 -1.164858,0.31117 2.684609,-0.53444 3.704633,-0.72731 2.309837,-0.47488 4.619673,-0.94977 6.92951,-1.42466 -1.658019,3.74667 -4.874536,6.86824 -6.042337,10.66003 4.561665,0.5532 5.377055,-6.79072 9.259928,-8.66694 3.90476,-4.18441 11.268982,-3.68124 13.576282,1.89351 1.640203,6.18926 -8.015414,5.51108 -11.648012,7.98225 -6.109126,2.22974 -12.204357,4.62826 -17.787041,8.001961 -0.475098,3.03083 3.708358,0.14767 5.442731,0.0972 1.931757,-0.6231 4.118477,-1.456021 1.803731,1.41559 -1.294721,2.77602 -4.116722,7.8629 -4.496035,9.25387 1.577575,-1.85693 3.155149,-3.71387 4.732724,-5.5708 -0.232542,2.86452 0.812992,3.54614 2.049193,0.57542 1.869604,-2.43543 5.387973,-8.532971 6.207092,-8.635131 -0.504513,3.357721 -3.06504,9.356801 -2.271591,11.047021 2.525052,-1.42457 2.483427,4.69223 3.492896,-0.12015 -0.520265,-5.49824 2.21648,-11.204471 7.111429,-13.994811 3.798456,-1.69011 11.406979,0.81422 7.974326,5.852371 -1.183872,6.14023 -6.679435,9.86818 -11.140431,13.63934 3.176236,1.0663 7.087471,-4.93506 8.061125,-3.89866 l -1.961066,5.87451 c 0.691434,-3.86676 4.843559,0.70468 4.157433,-0.43615 0.395672,-3.99635 1.984095,-10.43441 4.013938,-12.29057 0.921777,1.55588 3.009506,8.08661 3.188641,6.47382 L 75.858586,93.501589 c 2.998533,0.71445 7.759572,-1.54196 9.296292,1.6667 2.508751,5.216541 1.732555,11.178931 2.641179,16.699941 2.542318,-1.08132 -0.668311,-9.07831 3.758866,-5.6296 2.777922,2.27963 3.374265,6.58291 6.893575,8.05826 -2.40597,-2.948 -2.97896,-8.05569 2.362482,-5.93881 3.17254,0.34734 -2.744582,-3.08683 -3.624792,-4.3454 -3.130539,-2.90782 -6.722421,-5.405061 -9.545519,-8.585491 -2.122762,-2.54239 -0.382609,-7.09862 2.691899,-3.39468 4.020822,1.94462 9.814732,7.67962 13.435482,6.17584 -1.89671,-1.51319 -4.658592,-4.28196 -0.2486,-3.20588 1.88836,0.11355 4.57956,-0.008 1.05347,-0.97948 -4.05524,-2.39539 -10.464514,-2.51434 -12.642693,-7.02597 1.302427,-4.30943 6.169651,-6.78631 9.909523,-8.75641 2.64312,0.0477 2.42717,-2.46225 2.92658,-4.34563 l 0.01,-0.0438 z"
           id="path5056"
           sodipodi:nodetypes="ccscccccccccaccccccccccccccccaccccccccccccsccccccccccccsccccccccccccccccccccccccccsscccccccccccccccccccccc" />
        <path
           style="font-variation-settings:normal;opacity:1;vector-effect:none;fill:#a28ac6;fill-opacity:1;stroke:#000000;stroke-width:0.264583;stroke-linecap:butt;stroke-linejoin:miter;stroke-miterlimit:4;stroke-dasharray:none;stroke-dashoffset:0;stroke-opacity:1;-inkscape-stroke:none;stop-color:#000000;stop-opacity:1"
           d="m 127.35129,80.502129 c 1.30745,-0.059 2.3341,0.96784 3.57848,1.19935 1.02737,0.55006 0.69079,2.26355 -0.56426,2.07869 -1.30298,0.11098 -2.53025,-0.44042 -3.75294,-0.78808 -1.14863,-0.84641 -0.0652,-1.95152 0.73872,-2.48996 z"
           id="path5058" />
        <path
           style="font-variation-settings:normal;opacity:1;vector-effect:none;fill:#a28ac6;fill-opacity:1;stroke:#000000;stroke-width:0.264583;stroke-linecap:butt;stroke-linejoin:miter;stroke-miterlimit:4;stroke-dasharray:none;stroke-dashoffset:0;stroke-opacity:1;-inkscape-stroke:none;stop-color:#000000;stop-opacity:1"
           d="m 157.49738,86.196699 c -1.63998,-0.35151 -3.3423,-0.13868 -4.98151,-0.50332 -1.72807,-0.12656 -1.91209,2.70026 -0.19587,2.86811 1.53298,0.22724 3.08806,-0.10659 4.63292,-0.0677 1.28422,0.29801 1.62839,-1.69212 0.68948,-2.25365 z"
           id="path5060" />
        <path
           style="font-variation-settings:normal;opacity:1;vector-effect:none;fill:#a28ac6;fill-opacity:1;stroke:#000000;stroke-width:0.264583;stroke-linecap:butt;stroke-linejoin:miter;stroke-miterlimit:4;stroke-dasharray:none;stroke-dashoffset:0;stroke-opacity:1;-inkscape-stroke:none;stop-color:#000000;stop-opacity:1"
           d="m 182.10307,82.106149 c -1.46485,0.23556 -2.84273,0.8086 -4.22412,1.30657 -0.9832,0.48506 -1.41572,1.79489 -1.11382,2.79594 0.74799,1.03164 2.17306,-0.0226 3.2145,0.0945 1.36368,0.007 2.79598,-0.74842 2.88281,-2.25615 0.10871,-0.68996 0.0194,-1.68147 -0.75937,-1.94091 z"
           id="path5062" />
        <path
           style="font-variation-settings:normal;opacity:1;vector-effect:none;fill:#a28ac6;fill-opacity:1;stroke:#000000;stroke-width:0.264583;stroke-linecap:butt;stroke-linejoin:miter;stroke-miterlimit:4;stroke-dasharray:none;stroke-dashoffset:0;stroke-opacity:1;-inkscape-stroke:none;stop-color:#000000;stop-opacity:1"
           d="m 206.12907,78.469274 c -1.48468,-0.111329 -3.09165,0.312541 -4.22008,1.296534 -1.12447,1.147282 0.26005,2.369531 1.4798,2.403262 1.52878,0.261918 3.17324,-0.152919 4.40771,-1.082235 0.88943,-1.277128 -1.25322,-1.730107 -1.66743,-2.617561 z"
           id="path5064" />
        <path
           style="font-variation-settings:normal;opacity:1;vector-effect:none;fill:#2b7130;fill-opacity:1;stroke:#000000;stroke-width:0.264583;stroke-linecap:butt;stroke-linejoin:miter;stroke-miterlimit:4;stroke-dasharray:none;stroke-dashoffset:0;stroke-opacity:1;-inkscape-stroke:none;stop-color:#000000;stop-opacity:1"
           d="m 84.095399,86.838079 c 3.018852,-2.47519 1.4071,-5.05387 -0.302888,-6.94352 -1.689752,-1.48463 -3.839728,-3.73831 -6.114478,-3.30156 -3.346458,0.64251 -1.553486,4.29087 0.03598,5.62771 1.410811,1.53086 2.131581,3.49411 4.251233,4.16085 0.568553,0.20818 1.660583,0.84153 2.130153,0.45652 z"
           id="path5066"
           sodipodi:nodetypes="scsccs" />
        <path
           style="font-variation-settings:normal;opacity:1;vector-effect:none;fill:#f3cd4b;fill-opacity:1;stroke:#000000;stroke-width:0.264583;stroke-linecap:butt;stroke-linejoin:miter;stroke-miterlimit:4;stroke-dasharray:none;stroke-dashoffset:0;stroke-opacity:1;-inkscape-stroke:none;stop-color:#000000;stop-opacity:1"
           d="m 103.98574,77.189529 c 0.81494,2.68315 3.2345,4.14039 5.63391,5.16672 2.59777,1.81635 5.75526,1.8763 8.71666,2.48852 2.49698,-0.15665 5.27908,0.70762 7.53799,-0.69658 1.65864,-1.24201 3.11272,-3.98715 1.40938,-5.78212 -2.20385,-1.45181 -4.73961,-2.40871 -7.20146,-3.38411 -2.87723,-0.43992 -5.46326,-2.00674 -8.40366,-2.20056 -2.33963,-0.34797 -6.24442,-0.98145 -7.17794,1.91357 -0.24058,0.86714 -0.23038,1.77527 -0.38023,2.65784"
           id="path5068" />
        <path
           style="font-variation-settings:normal;opacity:1;vector-effect:none;fill:#d999aa;fill-opacity:1;stroke:#000000;stroke-width:0.264583;stroke-linecap:butt;stroke-linejoin:miter;stroke-miterlimit:4;stroke-dasharray:none;stroke-dashoffset:0;stroke-opacity:1;-inkscape-stroke:none;stop-color:#000000;stop-opacity:1"
           d="m 112.17643,75.436689 c -0.52962,-0.0345 -1.09542,-0.052 -1.57959,0.19992 -0.31364,0.15793 -0.47676,0.5172 -0.44584,0.85863 0.008,0.34314 0.1351,0.69666 0.41808,0.90841 0.44739,0.34435 1.0263,0.41815 1.5654,0.51687 0.30403,0.041 0.5982,0.16413 0.90995,0.13443 0.60487,-0.0231 1.19966,-0.44146 1.33901,-1.04566 0.0447,-0.1727 0.0341,-0.35182 0.0754,-0.52482 0.0546,-0.34322 -0.13531,-0.69374 -0.44172,-0.85127 -0.37516,-0.21005 -0.82516,-0.22722 -1.24065,-0.16169 -0.2004,0.001 -0.40195,-0.002 -0.60006,-0.0348 z"
           id="path5070" />
        <path
           style="font-variation-settings:normal;opacity:1;vector-effect:none;fill:#f3cd4b;fill-opacity:1;stroke:#000000;stroke-width:0.264583;stroke-linecap:butt;stroke-linejoin:miter;stroke-miterlimit:4;stroke-dasharray:none;stroke-dashoffset:0;stroke-opacity:1;-inkscape-stroke:none;stop-color:#000000;stop-opacity:1"
           d="m 143.31401,81.512659 c -4.12871,-0.43545 -8.86617,-2.69118 -12.68635,-0.13216 -3.19324,3.8321 2.27877,6.55686 5.27219,7.74435 4.09828,1.48131 8.56429,1.38058 12.85867,1.50412 4.94559,0.4282 5.35228,-5.93853 1.15252,-7.41984 -2.04413,-0.94629 -4.30052,-1.8552 -6.59703,-1.69647 z"
           id="path5072" />
        <path
           style="font-variation-settings:normal;opacity:1;vector-effect:none;fill:#d999aa;fill-opacity:1;stroke:#000000;stroke-width:0.264583;stroke-linecap:butt;stroke-linejoin:miter;stroke-miterlimit:4;stroke-dasharray:none;stroke-dashoffset:0;stroke-opacity:1;-inkscape-stroke:none;stop-color:#000000;stop-opacity:1"
           d="m 140.77596,84.836539 c -0.6075,0.1939 -1.1399,-0.36521 -1.72937,-0.2635 -0.96486,0.22754 -1.40354,1.55102 -0.75624,2.30961 0.40982,0.65729 1.26773,0.52039 1.92209,0.47116 0.65862,-0.13627 1.3487,-0.44488 1.7805,-0.97468 0.29585,-0.48092 0.24095,-1.30808 -0.42176,-1.43338 -0.32345,-0.0136 -0.64295,-0.0726 -0.96443,-0.11254"
           id="path5074" />
        <path
           style="font-variation-settings:normal;opacity:1;vector-effect:none;fill:#f3cd4b;fill-opacity:1;stroke:#000000;stroke-width:0.264583;stroke-linecap:butt;stroke-linejoin:miter;stroke-miterlimit:4;stroke-dasharray:none;stroke-dashoffset:0;stroke-opacity:1;-inkscape-stroke:none;stop-color:#000000;stop-opacity:1"
           d="m 170.30469,82.610289 c -4.646,0.69036 -9.50673,0.95464 -13.76172,3.13931 -0.90893,0.25591 -1.23927,1.25465 -1.15784,2.11872 0.24593,1.72885 1.85795,2.81342 3.29177,3.55776 1.41432,0.75379 3.00203,1.05364 4.5861,1.16466 3.58293,0.3463 7.28432,0.36451 10.75982,-0.67795 2.31878,-0.88759 4.51165,-2.76436 4.99023,-5.29965 0.18025,-1.11807 -0.004,-2.41559 -0.95045,-3.15294 -1.51135,-1.30211 -3.65449,-1.11356 -5.50648,-0.97968 -0.74936,0.0583 -1.49901,0.13255 -2.25143,0.12977 z"
           id="path5076" />
        <path
           style="font-variation-settings:normal;opacity:1;vector-effect:none;fill:#d999aa;fill-opacity:1;stroke:#000000;stroke-width:0.264583;stroke-linecap:butt;stroke-linejoin:miter;stroke-miterlimit:4;stroke-dasharray:none;stroke-dashoffset:0;stroke-opacity:1;-inkscape-stroke:none;stop-color:#000000;stop-opacity:1"
           d="m 167.88728,86.331149 c -0.80104,-0.0351 -2.10549,0.12192 -2.09842,1.16606 -0.0782,0.76471 0.15299,1.90893 1.12448,1.89245 0.94548,-0.0357 1.97414,0.28795 2.79899,-0.35642 0.89689,-0.50816 0.9763,-2.04784 -0.0858,-2.41191 -0.56771,-0.13042 -1.16941,-0.11677 -1.73929,-0.29018 z"
           id="path5078" />
        <path
           style="font-variation-settings:normal;opacity:1;vector-effect:none;fill:#f3cd4b;fill-opacity:1;stroke:#000000;stroke-width:0.264583;stroke-linecap:butt;stroke-linejoin:miter;stroke-miterlimit:4;stroke-dasharray:none;stroke-dashoffset:0;stroke-opacity:1;-inkscape-stroke:none;stop-color:#000000;stop-opacity:1"
           d="m 187.42907,78.688001 c -2.64842,0.288467 -6.49442,1.43981 -6.1692,4.791822 1.19682,2.589448 4.78134,2.927448 7.30953,3.040383 3.41007,-0.271355 6.76971,-0.176987 10.12435,-0.957704 3.70115,0.359172 7.17442,-3.810568 3.02309,-6.205241 -3.07612,-1.686431 -6.8714,-1.413638 -10.26882,-1.125691 -1.32972,0.229609 -2.66664,0.433417 -4.01895,0.456431 z"
           id="path5080" />
        <path
           style="font-variation-settings:normal;opacity:1;vector-effect:none;fill:#d999aa;fill-opacity:1;stroke:#000000;stroke-width:0.264583;stroke-linecap:butt;stroke-linejoin:miter;stroke-miterlimit:4;stroke-dasharray:none;stroke-dashoffset:0;stroke-opacity:1;-inkscape-stroke:none;stop-color:#000000;stop-opacity:1"
           d="m 192.82924,80.401483 c -1.72908,-1.054669 -3.00645,1.772134 -1.34488,2.680687 0.9109,1.296234 3.80661,1.403526 3.73699,-0.600803 -0.23605,-1.16264 -1.44155,-1.874812 -2.49459,-2.192576"
           id="path5082" />
        <path
           style="font-variation-settings:normal;opacity:1;vector-effect:none;fill:#a78ed0;fill-opacity:1;stroke:#000000;stroke-width:0.264583;stroke-linecap:butt;stroke-linejoin:miter;stroke-miterlimit:4;stroke-dasharray:none;stroke-dashoffset:0;stroke-opacity:1;-inkscape-stroke:none;stop-color:#000000;stop-opacity:1"
           d="m 227.36179,78.845545 c 4.58903,-0.172265 8.92113,2.963067 9.65415,7.387897 -0.3523,3.188386 0.20237,8.14274 -1.87645,11.216354 -2.44825,3.965824 -1.8902,8.789194 -1.54913,13.371134 -0.88369,4.24476 -1.3926,8.49964 -0.74632,12.81552 0.74528,3.27903 0.50064,7.28527 -0.006,10.73555 9.54946,16.10636 5.46672,3.8536 5.36438,-3.44828 3.64702,-1.58415 8.60281,-1.98153 12.54599,-1.08092 3.66342,0.90943 3.28484,5.32179 5.72073,7.92832 3.69587,2.45783 -0.35836,-6.89556 -0.72881,-8.53602 -2.43265,-2.35605 -5.67721,-3.22814 -9.27959,-3.59018 -1.31866,-1.54305 -3.58373,-2.75063 -4.97611,-4.09782 3.6667,-1.78054 6.35305,-1.58601 8.7539,-5.08447 3.41144,-1.4422 7.18546,-3.34764 11.00212,-3.69964 3.7414,-1.20904 6.5668,-0.12887 8.0892,3.13426 2.93513,3.36151 0.10402,7.93037 1.22519,11.53094 2.43131,-2.34923 1.60434,-10.02804 6.5854,-8.71749 2.16856,-0.53627 6.35543,3.7324 4.00862,-0.36464 -3.37123,-1.21107 -6.12823,-2.49753 -9.87034,-3.78445 -2.03749,-2.21297 -3.88715,-5.28265 -7.69423,-5.32218 -4.255,0.70717 -8.73825,0.27187 -12.55142,2.58326 -3.85511,0.89626 -9.45095,0.95766 -9.92085,-4.14548 -0.36241,-4.3601 0.48712,-9.415893 4.51126,-11.937252 3.99737,-0.715476 7.88864,-0.793267 11.56034,0.749687 1.38476,0.889902 4.69796,1.469251 4.73754,1.917667 -3.63779,-0.473222 -4.16628,-5.463422 -5.05894,-6.719019 -0.962,-2.252816 -1.10988,-7.572867 -5.30354,-5.153255 -3.25296,2.269121 -10.03167,-1.817369 -5.77022,-4.501491 1.0893,-3.581171 5.26992,-3.168031 8.08687,-3.32054 3.65803,-1.878078 8.48769,-1.488799 11.32826,1.139727 -0.17059,3.497145 3.11481,-0.90973 4.69529,-0.779191 2.4593,-1.216206 3.35826,-3.71195 6.34391,-3.983475 -0.15285,-4.182197 4.98672,-4.263585 5.22646,-7.780803 0.75889,-4.112403 4.24104,-4.590916 6.84146,-5.024098 1.69969,-0.925737 1.02776,-3.73687 -1.43301,-2.460991 -1.7912,0.147369 -3.01108,0.228961 -2.20833,-2.482912 -4.58743,-3.441061 -2.14469,5.438552 -4.14192,7.025511 -1.63593,2.840512 -4.77603,5.553458 -5.96014,8.072243 -2.30742,2.080093 -5.4144,1.165684 -7.79853,1.93979 -2.21882,1.036765 -9.73546,0.416902 -7.17408,-4.487848 0.0352,-2.582651 4.33951,-4.652391 3.25028,-6.535152 -2.1429,1.834011 -5.67585,1.778703 -6.15465,4.198885 -2.21377,3.863398 -7.40757,3.075356 -10.74819,2.980889 -2.82783,-2.272201 -0.90618,-6.18457 -1.17455,-9.485077 3.06555,-2.02735 4.13325,-4.481459 6.80207,-7.668017 3.37036,-0.819209 6.68661,-1.316774 10.48496,-0.591856 5.07756,1.148311 -2.96618,-0.819503 -0.94366,-4.0547 -1.69389,-2.812886 6.47384,-2.734547 2.16285,-4.760718 -4.18945,-1.551251 -5.72248,4.143826 -9.72111,3.587185 -1.57431,0.534328 -2.92223,3.916701 -5.6388,1.463717 -3.38179,-0.33384 -2.43983,-5.678922 -2.68606,-8.95884 1.21855,-2.696674 2.64546,-6.999327 5.7567,-8.086709 5.05918,-3.393282 -0.11174,-3.930907 -4.31859,-2.277042 -2.83953,1.824878 -5.07598,4.242575 -4.84076,7.927062 -2.28643,4.228233 1.51374,9.542133 -2.47854,13.293869 0.28984,3.851449 -0.66487,7.349205 -2.06561,10.765111 -2.76461,3.248457 -1.46256,8.539521 -4.85914,11.267277 -2.09107,0.6946 -6.807,3.131306 -5.05987,5.888701 z"
           id="path5084"
           sodipodi:nodetypes="ccccccccccccccccccccccccccccccccccccccccccccccccccccccccccc" />
        <path
           style="font-variation-settings:normal;opacity:1;vector-effect:none;fill:#f3cd4b;fill-opacity:1;stroke:#000000;stroke-width:0.264583;stroke-linecap:butt;stroke-linejoin:miter;stroke-miterlimit:4;stroke-dasharray:none;stroke-dashoffset:0;stroke-opacity:1;-inkscape-stroke:none;stop-color:#000000;stop-opacity:1"
           d="m 221.04434,73.178728 c -3.77168,0.867581 -7.7941,0.59446 -11.34198,2.367054 -3.84112,0.790211 -4.96117,6.625239 -0.73476,7.676674 3.34227,0.362162 6.75825,0.375493 10.12406,0.210036 3.1452,-0.49987 6.3182,-1.35229 9.1749,-2.776202 2.7491,-1.525781 1.6041,-6.127904 -0.9511,-7.291866 -2.08786,-0.158702 -4.20091,0.23546 -6.27112,-0.185696 z"
           id="path5086" />
        <path
           style="font-variation-settings:normal;opacity:1;vector-effect:none;fill:#d999aa;fill-opacity:1;stroke:#000000;stroke-width:0.264583;stroke-linecap:butt;stroke-linejoin:miter;stroke-miterlimit:4;stroke-dasharray:none;stroke-dashoffset:0;stroke-opacity:1;-inkscape-stroke:none;stop-color:#000000;stop-opacity:1"
           d="m 219.65026,76.424411 c -1.06283,-0.551119 -2.82511,-0.542018 -3.29001,0.781163 -0.60212,1.356205 1.17772,2.473301 2.34112,1.843326 1.04165,0.0041 2.88844,-0.873906 1.9178,-2.094372 -0.28315,-0.35456 -0.73656,-0.642901 -1.20721,-0.563243"
           id="path5088" />
      </g>
      <use
         x="0"
         y="0"
         xlink:href="#g208872"
         id="use5092"
         transform="translate(444.50022,127.00002)"
         width="100%"
         height="100%" />
      <use
         x="0"
         y="0"
         xlink:href="#g208872"
         id="use5094"
         transform="translate(444.50022,-84.666669)"
         width="100%"
         height="100%" />
      <use
         x="0"
         y="0"
         xlink:href="#g208872"
         id="use5096"
         transform="translate(666.75036,-21.166667)"
         width="100%"
         height="100%" />
      <use
         x="0"
         y="0"
         xlink:href="#g208872"
         id="use5098"
         transform="translate(666.75036,84.666669)"
         width="100%"
         height="100%" />
      <use
         x="0"
         y="0"
         xlink:href="#g208872"
         id="use5100"
         transform="translate(666.75036,-127.00002)"
         width="100%"
         height="100%" />
      <use
         x="0"
         y="0"
         xlink:href="#g208872"
         id="use5102"
         transform="translate(666.75036,190.50006)"
         width="100%"
         height="100%" />
    </g>
    <g
       id="g5505"
       transform="translate(-8.0976999,243.51497)">
      <g
         id="g5443"
         transform="translate(-719.48195,14.008518)">
        <path
           style="font-variation-settings:normal;opacity:1;vector-effect:none;fill:#a78ed0;fill-opacity:1;stroke:#000000;stroke-width:0.264583;stroke-linecap:butt;stroke-linejoin:miter;stroke-miterlimit:4;stroke-dasharray:none;stroke-dashoffset:0;stroke-opacity:1;-inkscape-stroke:none;stop-color:#000000;stop-opacity:1"
           d="m 104.77599,73.851159 c -6.376892,-1.41616 -13.539578,-5.27148 -14.68401,-12.325194 0.156554,-5.626065 2.488495,-10.863308 4.032994,-16.196141 1.794134,-4.260457 9.373876,-5.319343 9.951616,-9.096612 -5.688262,0.308943 3.30594,-9.12628 -1.46442,-5.334545 -2.11347,1.736665 -6.557122,9.847669 -6.608732,6.395567 -0.57802,-3.593773 1.19305,-7.045073 1.61149,-10.581182 0.41853,-2.064935 2.25368,-8.164797 0.25789,-7.884727 -0.85403,2.634392 -1.98209,5.175462 -2.951213,7.770659 -3.506234,1.688585 -1.348306,8.487288 -2.46448,12.090826 -0.167115,5.658947 -2.154793,10.999829 -4.456613,16.097422 -5.77816,-2.340915 -3.796417,-9.729325 -0.904185,-13.621177 0.798742,-3.511567 7.543566,-8.746134 3.373036,-11.353515 -0.843415,-5.541695 -0.670715,2.795477 -2.17098,4.330168 -1.026206,1.874298 -2.864069,6.939833 -2.10559,2.170606 0.287196,-2.109288 0.872481,-3.740973 -1.654499,-3.223287 -2.382815,-4.240378 -0.663479,5.476589 -1.046218,7.243745 0.06577,2.017477 0.6814,6.046362 -1.496981,2.53716 -3.64711,-2.559769 -1.953428,5.290913 -1.429443,7.124893 0.784574,5.281001 5.813159,9.195283 4.835863,14.695442 -0.965044,5.63197 -7.783702,-0.0765 -10.23388,-2.239819 -4.795929,-4.148879 -6.516175,-11.406486 -3.66344,-17.134064 1.752938,-4.550723 7.202534,-6.050167 9.095914,-10.39432 -1.87504,1.124049 -3.484806,1.992805 -3.353692,-0.790636 -1.463742,1.647715 -3.722084,7.81786 -5.973755,5.698753 0.816048,-4.216572 4.211861,-7.114895 6.488634,-10.584661 3.2452,-3.671389 -3.127237,1.774947 -2.475842,-0.951509 l 1.122662,-5.832432 c -2.490549,3.402705 -3.354097,9.087924 -7.513225,10.654007 -3.377356,-2.515077 -1.931795,1.825755 -2.151137,3.810211 0.05581,3.318778 0.111627,6.637557 0.16744,9.956335 -4.117999,2.688912 -3.892488,-5.868451 -4.12459,-8.467377 0.216763,-6.77049 1.949741,-13.368354 3.495951,-19.933648 -2.901218,-0.284476 -2.611445,8.046799 -3.071123,1.961047 l -0.413252,-5.25441 c -1.476697,3.433677 -1.927386,7.081078 -1.569406,10.769868 -0.152743,2.863408 -0.109305,12.197176 -4.530019,9.010895 -1.707593,-4.403531 -1.107272,-9.586668 0.601977,-13.920849 1.187468,-2.60522 1.762812,-5.138962 -0.543353,-6.08467 -0.440507,-3.587735 -0.865514,0.715235 -1.153685,1.978344 -0.197139,1.823025 -0.446244,3.485952 -1.941121,1.310856 -2.691175,-3.170701 -1.252471,0.03571 -0.485629,2.339172 0.515269,2.245288 1.240018,7.990257 0.15957,8.241737 l -5.234342,-4.586216 c -1.73275,2.842001 3.394798,5.850814 4.542743,8.683207 2.683733,3.833023 5.812922,7.451853 7.913189,11.628861 -0.816143,5.761202 -7.712017,-0.02989 -9.864943,-2.256278 -2.957527,-5.125809 -6.208563,-10.119334 -9.820348,-14.794122 -1.358601,-1.867815 -0.110685,-8.438721 -0.7163,-7.376212 -1.52824,0.578528 -2.830891,-1.891321 -1.799181,1.260237 1.081234,3.901557 -1.582721,7.223138 2.479443,9.807711 2.520177,2.95265 4.997942,6.042926 6.480351,9.668117 l -7.814238,-0.936659 c 2.853566,3.443519 8.555987,2.755951 10.869186,7.065064 2.456794,3.901796 7.501953,2.053738 10.563101,4.55231 2.301182,3.623876 4.816064,7.115548 7.201756,10.687142 0.254153,4.17906 3.478518,10.78005 -0.514029,13.50688 -2.339201,-0.041 -6.23216,-8.105786 -5.470401,-2.2999 0.472765,4.07427 -4.812272,-1.63033 -6.734658,-1.65962 -1.541595,-0.5307 -8.231311,1.38624 -3.6853,1.72247 2.766026,-0.11205 8.003489,4.14613 2.255767,3.82688 -5.047172,1.39564 -10.659446,-1.44253 -10.643344,-7.055139 -0.952865,-5.330351 -0.1251,-10.751475 0.630393,-16.050067 -0.758245,1.764021 -2.478972,2.27245 -2.911029,0.91774 -0.930302,5.699917 -1.020976,11.524744 -1.140668,17.301656 -2.62483,3.62252 4.922613,7.63563 0.414187,10.43997 -1.164858,0.31117 2.684609,-0.53444 3.704633,-0.72731 2.309837,-0.47488 4.619673,-0.94977 6.92951,-1.42466 -1.658019,3.74667 -4.874536,6.86824 -6.042337,10.66003 4.561665,0.5532 5.377055,-6.79072 9.259928,-8.66694 3.90476,-4.18441 11.268982,-3.68124 13.576282,1.89351 1.640203,6.18926 -8.015414,5.51108 -11.648012,7.98225 -6.109126,2.22974 -12.204357,4.62826 -17.787041,8.001961 -0.475098,3.03083 3.708358,0.14767 5.442731,0.0972 1.931757,-0.6231 4.118477,-1.456021 1.803731,1.41559 -1.294721,2.77602 -4.116722,7.8629 -4.496035,9.25387 1.577575,-1.85693 3.155149,-3.71387 4.732724,-5.5708 -0.232542,2.86452 0.812992,3.54614 2.049193,0.57542 1.869604,-2.43543 5.387973,-8.532971 6.207092,-8.635131 -0.504513,3.357721 -3.06504,9.356801 -2.271591,11.047021 2.525052,-1.42457 2.483427,4.69223 3.492896,-0.12015 -0.520265,-5.49824 2.21648,-11.204471 7.111429,-13.994811 3.798456,-1.69011 11.406979,0.81422 7.974326,5.852371 -1.183872,6.14023 -6.679435,9.86818 -11.140431,13.63934 3.176236,1.0663 7.087471,-4.93506 8.061125,-3.89866 l -1.961066,5.87451 c 0.691434,-3.86676 4.843559,0.70468 4.157433,-0.43615 0.395672,-3.99635 1.984095,-10.43441 4.013938,-12.29057 0.921777,1.55588 3.009506,8.08661 3.188641,6.47382 L 75.858586,93.501589 c 2.998533,0.71445 7.759572,-1.54196 9.296292,1.6667 2.508751,5.216541 1.732555,11.178931 2.641179,16.699941 2.542318,-1.08132 -0.668311,-9.07831 3.758866,-5.6296 2.777922,2.27963 3.374265,6.58291 6.893575,8.05826 -2.40597,-2.948 -2.97896,-8.05569 2.362482,-5.93881 3.17254,0.34734 -2.744582,-3.08683 -3.624792,-4.3454 -3.130539,-2.90782 -6.722421,-5.405061 -9.545519,-8.585491 -2.122762,-2.54239 -0.382609,-7.09862 2.691899,-3.39468 4.020822,1.94462 9.814732,7.67962 13.435482,6.17584 -1.89671,-1.51319 -4.658592,-4.28196 -0.2486,-3.20588 1.88836,0.11355 4.57956,-0.008 1.05347,-0.97948 -4.05524,-2.39539 -10.464514,-2.51434 -12.642693,-7.02597 1.302427,-4.30943 6.169651,-6.78631 9.909523,-8.75641 2.64312,0.0477 2.42717,-2.46225 2.92658,-4.34563 l 0.01,-0.0438 z"
           id="path5409"
           sodipodi:nodetypes="ccscccccccccaccccccccccccccccaccccccccccccsccccccccccccsccccccccccccccccccccccccccsscccccccccccccccccccccc" />
        <path
           style="font-variation-settings:normal;opacity:1;vector-effect:none;fill:#a28ac6;fill-opacity:1;stroke:#000000;stroke-width:0.264583;stroke-linecap:butt;stroke-linejoin:miter;stroke-miterlimit:4;stroke-dasharray:none;stroke-dashoffset:0;stroke-opacity:1;-inkscape-stroke:none;stop-color:#000000;stop-opacity:1"
           d="m 127.35129,80.502129 c 1.30745,-0.059 2.3341,0.96784 3.57848,1.19935 1.02737,0.55006 0.69079,2.26355 -0.56426,2.07869 -1.30298,0.11098 -2.53025,-0.44042 -3.75294,-0.78808 -1.14863,-0.84641 -0.0652,-1.95152 0.73872,-2.48996 z"
           id="path5411" />
        <path
           style="font-variation-settings:normal;opacity:1;vector-effect:none;fill:#a28ac6;fill-opacity:1;stroke:#000000;stroke-width:0.264583;stroke-linecap:butt;stroke-linejoin:miter;stroke-miterlimit:4;stroke-dasharray:none;stroke-dashoffset:0;stroke-opacity:1;-inkscape-stroke:none;stop-color:#000000;stop-opacity:1"
           d="m 157.49738,86.196699 c -1.63998,-0.35151 -3.3423,-0.13868 -4.98151,-0.50332 -1.72807,-0.12656 -1.91209,2.70026 -0.19587,2.86811 1.53298,0.22724 3.08806,-0.10659 4.63292,-0.0677 1.28422,0.29801 1.62839,-1.69212 0.68948,-2.25365 z"
           id="path5413" />
        <path
           style="font-variation-settings:normal;opacity:1;vector-effect:none;fill:#a28ac6;fill-opacity:1;stroke:#000000;stroke-width:0.264583;stroke-linecap:butt;stroke-linejoin:miter;stroke-miterlimit:4;stroke-dasharray:none;stroke-dashoffset:0;stroke-opacity:1;-inkscape-stroke:none;stop-color:#000000;stop-opacity:1"
           d="m 182.10307,82.106149 c -1.46485,0.23556 -2.84273,0.8086 -4.22412,1.30657 -0.9832,0.48506 -1.41572,1.79489 -1.11382,2.79594 0.74799,1.03164 2.17306,-0.0226 3.2145,0.0945 1.36368,0.007 2.79598,-0.74842 2.88281,-2.25615 0.10871,-0.68996 0.0194,-1.68147 -0.75937,-1.94091 z"
           id="path5415" />
        <path
           style="font-variation-settings:normal;opacity:1;vector-effect:none;fill:#a28ac6;fill-opacity:1;stroke:#000000;stroke-width:0.264583;stroke-linecap:butt;stroke-linejoin:miter;stroke-miterlimit:4;stroke-dasharray:none;stroke-dashoffset:0;stroke-opacity:1;-inkscape-stroke:none;stop-color:#000000;stop-opacity:1"
           d="m 206.12907,78.469274 c -1.48468,-0.111329 -3.09165,0.312541 -4.22008,1.296534 -1.12447,1.147282 0.26005,2.369531 1.4798,2.403262 1.52878,0.261918 3.17324,-0.152919 4.40771,-1.082235 0.88943,-1.277128 -1.25322,-1.730107 -1.66743,-2.617561 z"
           id="path5417" />
        <path
           style="font-variation-settings:normal;opacity:1;vector-effect:none;fill:#2b7130;fill-opacity:1;stroke:#000000;stroke-width:0.264583;stroke-linecap:butt;stroke-linejoin:miter;stroke-miterlimit:4;stroke-dasharray:none;stroke-dashoffset:0;stroke-opacity:1;-inkscape-stroke:none;stop-color:#000000;stop-opacity:1"
           d="m 84.095399,86.838079 c 3.018852,-2.47519 1.4071,-5.05387 -0.302888,-6.94352 -1.689752,-1.48463 -3.839728,-3.73831 -6.114478,-3.30156 -3.346458,0.64251 -1.553486,4.29087 0.03598,5.62771 1.410811,1.53086 2.131581,3.49411 4.251233,4.16085 0.568553,0.20818 1.660583,0.84153 2.130153,0.45652 z"
           id="path5419"
           sodipodi:nodetypes="scsccs" />
        <path
           style="font-variation-settings:normal;opacity:1;vector-effect:none;fill:#f3cd4b;fill-opacity:1;stroke:#000000;stroke-width:0.264583;stroke-linecap:butt;stroke-linejoin:miter;stroke-miterlimit:4;stroke-dasharray:none;stroke-dashoffset:0;stroke-opacity:1;-inkscape-stroke:none;stop-color:#000000;stop-opacity:1"
           d="m 103.98574,77.189529 c 0.81494,2.68315 3.2345,4.14039 5.63391,5.16672 2.59777,1.81635 5.75526,1.8763 8.71666,2.48852 2.49698,-0.15665 5.27908,0.70762 7.53799,-0.69658 1.65864,-1.24201 3.11272,-3.98715 1.40938,-5.78212 -2.20385,-1.45181 -4.73961,-2.40871 -7.20146,-3.38411 -2.87723,-0.43992 -5.46326,-2.00674 -8.40366,-2.20056 -2.33963,-0.34797 -6.24442,-0.98145 -7.17794,1.91357 -0.24058,0.86714 -0.23038,1.77527 -0.38023,2.65784"
           id="path5421" />
        <path
           style="font-variation-settings:normal;opacity:1;vector-effect:none;fill:#d999aa;fill-opacity:1;stroke:#000000;stroke-width:0.264583;stroke-linecap:butt;stroke-linejoin:miter;stroke-miterlimit:4;stroke-dasharray:none;stroke-dashoffset:0;stroke-opacity:1;-inkscape-stroke:none;stop-color:#000000;stop-opacity:1"
           d="m 112.17643,75.436689 c -0.52962,-0.0345 -1.09542,-0.052 -1.57959,0.19992 -0.31364,0.15793 -0.47676,0.5172 -0.44584,0.85863 0.008,0.34314 0.1351,0.69666 0.41808,0.90841 0.44739,0.34435 1.0263,0.41815 1.5654,0.51687 0.30403,0.041 0.5982,0.16413 0.90995,0.13443 0.60487,-0.0231 1.19966,-0.44146 1.33901,-1.04566 0.0447,-0.1727 0.0341,-0.35182 0.0754,-0.52482 0.0546,-0.34322 -0.13531,-0.69374 -0.44172,-0.85127 -0.37516,-0.21005 -0.82516,-0.22722 -1.24065,-0.16169 -0.2004,0.001 -0.40195,-0.002 -0.60006,-0.0348 z"
           id="path5423" />
        <path
           style="font-variation-settings:normal;opacity:1;vector-effect:none;fill:#f3cd4b;fill-opacity:1;stroke:#000000;stroke-width:0.264583;stroke-linecap:butt;stroke-linejoin:miter;stroke-miterlimit:4;stroke-dasharray:none;stroke-dashoffset:0;stroke-opacity:1;-inkscape-stroke:none;stop-color:#000000;stop-opacity:1"
           d="m 143.31401,81.512659 c -4.12871,-0.43545 -8.86617,-2.69118 -12.68635,-0.13216 -3.19324,3.8321 2.27877,6.55686 5.27219,7.74435 4.09828,1.48131 8.56429,1.38058 12.85867,1.50412 4.94559,0.4282 5.35228,-5.93853 1.15252,-7.41984 -2.04413,-0.94629 -4.30052,-1.8552 -6.59703,-1.69647 z"
           id="path5425" />
        <path
           style="font-variation-settings:normal;opacity:1;vector-effect:none;fill:#d999aa;fill-opacity:1;stroke:#000000;stroke-width:0.264583;stroke-linecap:butt;stroke-linejoin:miter;stroke-miterlimit:4;stroke-dasharray:none;stroke-dashoffset:0;stroke-opacity:1;-inkscape-stroke:none;stop-color:#000000;stop-opacity:1"
           d="m 140.77596,84.836539 c -0.6075,0.1939 -1.1399,-0.36521 -1.72937,-0.2635 -0.96486,0.22754 -1.40354,1.55102 -0.75624,2.30961 0.40982,0.65729 1.26773,0.52039 1.92209,0.47116 0.65862,-0.13627 1.3487,-0.44488 1.7805,-0.97468 0.29585,-0.48092 0.24095,-1.30808 -0.42176,-1.43338 -0.32345,-0.0136 -0.64295,-0.0726 -0.96443,-0.11254"
           id="path5427" />
        <path
           style="font-variation-settings:normal;opacity:1;vector-effect:none;fill:#f3cd4b;fill-opacity:1;stroke:#000000;stroke-width:0.264583;stroke-linecap:butt;stroke-linejoin:miter;stroke-miterlimit:4;stroke-dasharray:none;stroke-dashoffset:0;stroke-opacity:1;-inkscape-stroke:none;stop-color:#000000;stop-opacity:1"
           d="m 170.30469,82.610289 c -4.646,0.69036 -9.50673,0.95464 -13.76172,3.13931 -0.90893,0.25591 -1.23927,1.25465 -1.15784,2.11872 0.24593,1.72885 1.85795,2.81342 3.29177,3.55776 1.41432,0.75379 3.00203,1.05364 4.5861,1.16466 3.58293,0.3463 7.28432,0.36451 10.75982,-0.67795 2.31878,-0.88759 4.51165,-2.76436 4.99023,-5.29965 0.18025,-1.11807 -0.004,-2.41559 -0.95045,-3.15294 -1.51135,-1.30211 -3.65449,-1.11356 -5.50648,-0.97968 -0.74936,0.0583 -1.49901,0.13255 -2.25143,0.12977 z"
           id="path5429" />
        <path
           style="font-variation-settings:normal;opacity:1;vector-effect:none;fill:#d999aa;fill-opacity:1;stroke:#000000;stroke-width:0.264583;stroke-linecap:butt;stroke-linejoin:miter;stroke-miterlimit:4;stroke-dasharray:none;stroke-dashoffset:0;stroke-opacity:1;-inkscape-stroke:none;stop-color:#000000;stop-opacity:1"
           d="m 167.88728,86.331149 c -0.80104,-0.0351 -2.10549,0.12192 -2.09842,1.16606 -0.0782,0.76471 0.15299,1.90893 1.12448,1.89245 0.94548,-0.0357 1.97414,0.28795 2.79899,-0.35642 0.89689,-0.50816 0.9763,-2.04784 -0.0858,-2.41191 -0.56771,-0.13042 -1.16941,-0.11677 -1.73929,-0.29018 z"
           id="path5431" />
        <path
           style="font-variation-settings:normal;opacity:1;vector-effect:none;fill:#f3cd4b;fill-opacity:1;stroke:#000000;stroke-width:0.264583;stroke-linecap:butt;stroke-linejoin:miter;stroke-miterlimit:4;stroke-dasharray:none;stroke-dashoffset:0;stroke-opacity:1;-inkscape-stroke:none;stop-color:#000000;stop-opacity:1"
           d="m 187.42907,78.688001 c -2.64842,0.288467 -6.49442,1.43981 -6.1692,4.791822 1.19682,2.589448 4.78134,2.927448 7.30953,3.040383 3.41007,-0.271355 6.76971,-0.176987 10.12435,-0.957704 3.70115,0.359172 7.17442,-3.810568 3.02309,-6.205241 -3.07612,-1.686431 -6.8714,-1.413638 -10.26882,-1.125691 -1.32972,0.229609 -2.66664,0.433417 -4.01895,0.456431 z"
           id="path5433" />
        <path
           style="font-variation-settings:normal;opacity:1;vector-effect:none;fill:#d999aa;fill-opacity:1;stroke:#000000;stroke-width:0.264583;stroke-linecap:butt;stroke-linejoin:miter;stroke-miterlimit:4;stroke-dasharray:none;stroke-dashoffset:0;stroke-opacity:1;-inkscape-stroke:none;stop-color:#000000;stop-opacity:1"
           d="m 192.82924,80.401483 c -1.72908,-1.054669 -3.00645,1.772134 -1.34488,2.680687 0.9109,1.296234 3.80661,1.403526 3.73699,-0.600803 -0.23605,-1.16264 -1.44155,-1.874812 -2.49459,-2.192576"
           id="path5435" />
        <path
           style="font-variation-settings:normal;opacity:1;vector-effect:none;fill:#a78ed0;fill-opacity:1;stroke:#000000;stroke-width:0.264583;stroke-linecap:butt;stroke-linejoin:miter;stroke-miterlimit:4;stroke-dasharray:none;stroke-dashoffset:0;stroke-opacity:1;-inkscape-stroke:none;stop-color:#000000;stop-opacity:1"
           d="m 227.36179,78.845545 c 4.58903,-0.172265 8.92113,2.963067 9.65415,7.387897 -0.3523,3.188386 0.20237,8.14274 -1.87645,11.216354 -2.44825,3.965824 -1.8902,8.789194 -1.54913,13.371134 -0.88369,4.24476 -1.3926,8.49964 -0.74632,12.81552 0.74528,3.27903 0.50064,7.28527 -0.006,10.73555 9.54946,16.10636 5.46672,3.8536 5.36438,-3.44828 3.64702,-1.58415 8.60281,-1.98153 12.54599,-1.08092 3.66342,0.90943 3.28484,5.32179 5.72073,7.92832 3.69587,2.45783 -0.35836,-6.89556 -0.72881,-8.53602 -2.43265,-2.35605 -5.67721,-3.22814 -9.27959,-3.59018 -1.31866,-1.54305 -3.58373,-2.75063 -4.97611,-4.09782 3.6667,-1.78054 6.35305,-1.58601 8.7539,-5.08447 3.41144,-1.4422 7.18546,-3.34764 11.00212,-3.69964 3.7414,-1.20904 6.5668,-0.12887 8.0892,3.13426 2.93513,3.36151 0.10402,7.93037 1.22519,11.53094 2.43131,-2.34923 1.60434,-10.02804 6.5854,-8.71749 2.16856,-0.53627 6.35543,3.7324 4.00862,-0.36464 -3.37123,-1.21107 -6.12823,-2.49753 -9.87034,-3.78445 -2.03749,-2.21297 -3.88715,-5.28265 -7.69423,-5.32218 -4.255,0.70717 -8.73825,0.27187 -12.55142,2.58326 -3.85511,0.89626 -9.45095,0.95766 -9.92085,-4.14548 -0.36241,-4.3601 0.48712,-9.415893 4.51126,-11.937252 3.99737,-0.715476 7.88864,-0.793267 11.56034,0.749687 1.38476,0.889902 4.69796,1.469251 4.73754,1.917667 -3.63779,-0.473222 -4.16628,-5.463422 -5.05894,-6.719019 -0.962,-2.252816 -1.10988,-7.572867 -5.30354,-5.153255 -3.25296,2.269121 -10.03167,-1.817369 -5.77022,-4.501491 1.0893,-3.581171 5.26992,-3.168031 8.08687,-3.32054 3.65803,-1.878078 8.48769,-1.488799 11.32826,1.139727 -0.17059,3.497145 3.11481,-0.90973 4.69529,-0.779191 2.4593,-1.216206 3.35826,-3.71195 6.34391,-3.983475 -0.15285,-4.182197 4.98672,-4.263585 5.22646,-7.780803 0.75889,-4.112403 4.24104,-4.590916 6.84146,-5.024098 1.69969,-0.925737 1.02776,-3.73687 -1.43301,-2.460991 -1.7912,0.147369 -3.01108,0.228961 -2.20833,-2.482912 -4.58743,-3.441061 -2.14469,5.438552 -4.14192,7.025511 -1.63593,2.840512 -4.77603,5.553458 -5.96014,8.072243 -2.30742,2.080093 -5.4144,1.165684 -7.79853,1.93979 -2.21882,1.036765 -9.73546,0.416902 -7.17408,-4.487848 0.0352,-2.582651 4.33951,-4.652391 3.25028,-6.535152 -2.1429,1.834011 -5.67585,1.778703 -6.15465,4.198885 -2.21377,3.863398 -7.40757,3.075356 -10.74819,2.980889 -2.82783,-2.272201 -0.90618,-6.18457 -1.17455,-9.485077 3.06555,-2.02735 4.13325,-4.481459 6.80207,-7.668017 3.37036,-0.819209 6.68661,-1.316774 10.48496,-0.591856 5.07756,1.148311 -2.96618,-0.819503 -0.94366,-4.0547 -1.69389,-2.812886 6.47384,-2.734547 2.16285,-4.760718 -4.18945,-1.551251 -5.72248,4.143826 -9.72111,3.587185 -1.57431,0.534328 -2.92223,3.916701 -5.6388,1.463717 -3.38179,-0.33384 -2.43983,-5.678922 -2.68606,-8.95884 1.21855,-2.696674 2.64546,-6.999327 5.7567,-8.086709 5.05918,-3.393282 -0.11174,-3.930907 -4.31859,-2.277042 -2.83953,1.824878 -5.07598,4.242575 -4.84076,7.927062 -2.28643,4.228233 1.51374,9.542133 -2.47854,13.293869 0.28984,3.851449 -0.66487,7.349205 -2.06561,10.765111 -2.76461,3.248457 -1.46256,8.539521 -4.85914,11.267277 -2.09107,0.6946 -6.807,3.131306 -5.05987,5.888701 z"
           id="path5437"
           sodipodi:nodetypes="ccccccccccccccccccccccccccccccccccccccccccccccccccccccccccc" />
        <path
           style="font-variation-settings:normal;opacity:1;vector-effect:none;fill:#f3cd4b;fill-opacity:1;stroke:#000000;stroke-width:0.264583;stroke-linecap:butt;stroke-linejoin:miter;stroke-miterlimit:4;stroke-dasharray:none;stroke-dashoffset:0;stroke-opacity:1;-inkscape-stroke:none;stop-color:#000000;stop-opacity:1"
           d="m 221.04434,73.178728 c -3.77168,0.867581 -7.7941,0.59446 -11.34198,2.367054 -3.84112,0.790211 -4.96117,6.625239 -0.73476,7.676674 3.34227,0.362162 6.75825,0.375493 10.12406,0.210036 3.1452,-0.49987 6.3182,-1.35229 9.1749,-2.776202 2.7491,-1.525781 1.6041,-6.127904 -0.9511,-7.291866 -2.08786,-0.158702 -4.20091,0.23546 -6.27112,-0.185696 z"
           id="path5439" />
        <path
           style="font-variation-settings:normal;opacity:1;vector-effect:none;fill:#d999aa;fill-opacity:1;stroke:#000000;stroke-width:0.264583;stroke-linecap:butt;stroke-linejoin:miter;stroke-miterlimit:4;stroke-dasharray:none;stroke-dashoffset:0;stroke-opacity:1;-inkscape-stroke:none;stop-color:#000000;stop-opacity:1"
           d="m 219.65026,76.424411 c -1.06283,-0.551119 -2.82511,-0.542018 -3.29001,0.781163 -0.60212,1.356205 1.17772,2.473301 2.34112,1.843326 1.04165,0.0041 2.88844,-0.873906 1.9178,-2.094372 -0.28315,-0.35456 -0.73656,-0.642901 -1.20721,-0.563243"
           id="path5441" />
      </g>
      <use
         x="0"
         y="0"
         xlink:href="#g208872"
         id="use5445"
         transform="translate(222.25008,-42.333335)"
         width="100%"
         height="100%" />
      <use
         x="0"
         y="0"
         xlink:href="#g208872"
         id="use5447"
         transform="translate(0,105.83334)"
         width="100%"
         height="100%" />
      <use
         x="0"
         y="0"
         xlink:href="#g208872"
         id="use5449"
         transform="translate(222.25008,63.500001)"
         width="100%"
         height="100%" />
      <use
         x="0"
         y="0"
         xlink:href="#g208872"
         id="use5451"
         transform="translate(0,-105.83334)"
         width="100%"
         height="100%" />
      <use
         x="0"
         y="0"
         xlink:href="#g208872"
         id="use5455"
         transform="translate(222.25008,169.33338)"
         width="100%"
         height="100%" />
      <g
         id="g5491"
         transform="translate(-274.98167,35.175186)">
        <path
           style="font-variation-settings:normal;opacity:1;vector-effect:none;fill:#a78ed0;fill-opacity:1;stroke:#000000;stroke-width:0.264583;stroke-linecap:butt;stroke-linejoin:miter;stroke-miterlimit:4;stroke-dasharray:none;stroke-dashoffset:0;stroke-opacity:1;-inkscape-stroke:none;stop-color:#000000;stop-opacity:1"
           d="m 104.77599,73.851159 c -6.376892,-1.41616 -13.539578,-5.27148 -14.68401,-12.325194 0.156554,-5.626065 2.488495,-10.863308 4.032994,-16.196141 1.794134,-4.260457 9.373876,-5.319343 9.951616,-9.096612 -5.688262,0.308943 3.30594,-9.12628 -1.46442,-5.334545 -2.11347,1.736665 -6.557122,9.847669 -6.608732,6.395567 -0.57802,-3.593773 1.19305,-7.045073 1.61149,-10.581182 0.41853,-2.064935 2.25368,-8.164797 0.25789,-7.884727 -0.85403,2.634392 -1.98209,5.175462 -2.951213,7.770659 -3.506234,1.688585 -1.348306,8.487288 -2.46448,12.090826 -0.167115,5.658947 -2.154793,10.999829 -4.456613,16.097422 -5.77816,-2.340915 -3.796417,-9.729325 -0.904185,-13.621177 0.798742,-3.511567 7.543566,-8.746134 3.373036,-11.353515 -0.843415,-5.541695 -0.670715,2.795477 -2.17098,4.330168 -1.026206,1.874298 -2.864069,6.939833 -2.10559,2.170606 0.287196,-2.109288 0.872481,-3.740973 -1.654499,-3.223287 -2.382815,-4.240378 -0.663479,5.476589 -1.046218,7.243745 0.06577,2.017477 0.6814,6.046362 -1.496981,2.53716 -3.64711,-2.559769 -1.953428,5.290913 -1.429443,7.124893 0.784574,5.281001 5.813159,9.195283 4.835863,14.695442 -0.965044,5.63197 -7.783702,-0.0765 -10.23388,-2.239819 -4.795929,-4.148879 -6.516175,-11.406486 -3.66344,-17.134064 1.752938,-4.550723 7.202534,-6.050167 9.095914,-10.39432 -1.87504,1.124049 -3.484806,1.992805 -3.353692,-0.790636 -1.463742,1.647715 -3.722084,7.81786 -5.973755,5.698753 0.816048,-4.216572 4.211861,-7.114895 6.488634,-10.584661 3.2452,-3.671389 -3.127237,1.774947 -2.475842,-0.951509 l 1.122662,-5.832432 c -2.490549,3.402705 -3.354097,9.087924 -7.513225,10.654007 -3.377356,-2.515077 -1.931795,1.825755 -2.151137,3.810211 0.05581,3.318778 0.111627,6.637557 0.16744,9.956335 -4.117999,2.688912 -3.892488,-5.868451 -4.12459,-8.467377 0.216763,-6.77049 1.949741,-13.368354 3.495951,-19.933648 -2.901218,-0.284476 -2.611445,8.046799 -3.071123,1.961047 l -0.413252,-5.25441 c -1.476697,3.433677 -1.927386,7.081078 -1.569406,10.769868 -0.152743,2.863408 -0.109305,12.197176 -4.530019,9.010895 -1.707593,-4.403531 -1.107272,-9.586668 0.601977,-13.920849 1.187468,-2.60522 1.762812,-5.138962 -0.543353,-6.08467 -0.440507,-3.587735 -0.865514,0.715235 -1.153685,1.978344 -0.197139,1.823025 -0.446244,3.485952 -1.941121,1.310856 -2.691175,-3.170701 -1.252471,0.03571 -0.485629,2.339172 0.515269,2.245288 1.240018,7.990257 0.15957,8.241737 l -5.234342,-4.586216 c -1.73275,2.842001 3.394798,5.850814 4.542743,8.683207 2.683733,3.833023 5.812922,7.451853 7.913189,11.628861 -0.816143,5.761202 -7.712017,-0.02989 -9.864943,-2.256278 -2.957527,-5.125809 -6.208563,-10.119334 -9.820348,-14.794122 -1.358601,-1.867815 -0.110685,-8.438721 -0.7163,-7.376212 -1.52824,0.578528 -2.830891,-1.891321 -1.799181,1.260237 1.081234,3.901557 -1.582721,7.223138 2.479443,9.807711 2.520177,2.95265 4.997942,6.042926 6.480351,9.668117 l -7.814238,-0.936659 c 2.853566,3.443519 8.555987,2.755951 10.869186,7.065064 2.456794,3.901796 7.501953,2.053738 10.563101,4.55231 2.301182,3.623876 4.816064,7.115548 7.201756,10.687142 0.254153,4.17906 3.478518,10.78005 -0.514029,13.50688 -2.339201,-0.041 -6.23216,-8.105786 -5.470401,-2.2999 0.472765,4.07427 -4.812272,-1.63033 -6.734658,-1.65962 -1.541595,-0.5307 -8.231311,1.38624 -3.6853,1.72247 2.766026,-0.11205 8.003489,4.14613 2.255767,3.82688 -5.047172,1.39564 -10.659446,-1.44253 -10.643344,-7.055139 -0.952865,-5.330351 -0.1251,-10.751475 0.630393,-16.050067 -0.758245,1.764021 -2.478972,2.27245 -2.911029,0.91774 -0.930302,5.699917 -1.020976,11.524744 -1.140668,17.301656 -2.62483,3.62252 4.922613,7.63563 0.414187,10.43997 -1.164858,0.31117 2.684609,-0.53444 3.704633,-0.72731 2.309837,-0.47488 4.619673,-0.94977 6.92951,-1.42466 -1.658019,3.74667 -4.874536,6.86824 -6.042337,10.66003 4.561665,0.5532 5.377055,-6.79072 9.259928,-8.66694 3.90476,-4.18441 11.268982,-3.68124 13.576282,1.89351 1.640203,6.18926 -8.015414,5.51108 -11.648012,7.98225 -6.109126,2.22974 -12.204357,4.62826 -17.787041,8.001961 -0.475098,3.03083 3.708358,0.14767 5.442731,0.0972 1.931757,-0.6231 4.118477,-1.456021 1.803731,1.41559 -1.294721,2.77602 -4.116722,7.8629 -4.496035,9.25387 1.577575,-1.85693 3.155149,-3.71387 4.732724,-5.5708 -0.232542,2.86452 0.812992,3.54614 2.049193,0.57542 1.869604,-2.43543 5.387973,-8.532971 6.207092,-8.635131 -0.504513,3.357721 -3.06504,9.356801 -2.271591,11.047021 2.525052,-1.42457 2.483427,4.69223 3.492896,-0.12015 -0.520265,-5.49824 2.21648,-11.204471 7.111429,-13.994811 3.798456,-1.69011 11.406979,0.81422 7.974326,5.852371 -1.183872,6.14023 -6.679435,9.86818 -11.140431,13.63934 3.176236,1.0663 7.087471,-4.93506 8.061125,-3.89866 l -1.961066,5.87451 c 0.691434,-3.86676 4.843559,0.70468 4.157433,-0.43615 0.395672,-3.99635 1.984095,-10.43441 4.013938,-12.29057 0.921777,1.55588 3.009506,8.08661 3.188641,6.47382 L 75.858586,93.501589 c 2.998533,0.71445 7.759572,-1.54196 9.296292,1.6667 2.508751,5.216541 1.732555,11.178931 2.641179,16.699941 2.542318,-1.08132 -0.668311,-9.07831 3.758866,-5.6296 2.777922,2.27963 3.374265,6.58291 6.893575,8.05826 -2.40597,-2.948 -2.97896,-8.05569 2.362482,-5.93881 3.17254,0.34734 -2.744582,-3.08683 -3.624792,-4.3454 -3.130539,-2.90782 -6.722421,-5.405061 -9.545519,-8.585491 -2.122762,-2.54239 -0.382609,-7.09862 2.691899,-3.39468 4.020822,1.94462 9.814732,7.67962 13.435482,6.17584 -1.89671,-1.51319 -4.658592,-4.28196 -0.2486,-3.20588 1.88836,0.11355 4.57956,-0.008 1.05347,-0.97948 -4.05524,-2.39539 -10.464514,-2.51434 -12.642693,-7.02597 1.302427,-4.30943 6.169651,-6.78631 9.909523,-8.75641 2.64312,0.0477 2.42717,-2.46225 2.92658,-4.34563 l 0.01,-0.0438 z"
           id="path5457"
           sodipodi:nodetypes="ccscccccccccaccccccccccccccccaccccccccccccsccccccccccccsccccccccccccccccccccccccccsscccccccccccccccccccccc" />
        <path
           style="font-variation-settings:normal;opacity:1;vector-effect:none;fill:#a28ac6;fill-opacity:1;stroke:#000000;stroke-width:0.264583;stroke-linecap:butt;stroke-linejoin:miter;stroke-miterlimit:4;stroke-dasharray:none;stroke-dashoffset:0;stroke-opacity:1;-inkscape-stroke:none;stop-color:#000000;stop-opacity:1"
           d="m 127.35129,80.502129 c 1.30745,-0.059 2.3341,0.96784 3.57848,1.19935 1.02737,0.55006 0.69079,2.26355 -0.56426,2.07869 -1.30298,0.11098 -2.53025,-0.44042 -3.75294,-0.78808 -1.14863,-0.84641 -0.0652,-1.95152 0.73872,-2.48996 z"
           id="path5459" />
        <path
           style="font-variation-settings:normal;opacity:1;vector-effect:none;fill:#a28ac6;fill-opacity:1;stroke:#000000;stroke-width:0.264583;stroke-linecap:butt;stroke-linejoin:miter;stroke-miterlimit:4;stroke-dasharray:none;stroke-dashoffset:0;stroke-opacity:1;-inkscape-stroke:none;stop-color:#000000;stop-opacity:1"
           d="m 157.49738,86.196699 c -1.63998,-0.35151 -3.3423,-0.13868 -4.98151,-0.50332 -1.72807,-0.12656 -1.91209,2.70026 -0.19587,2.86811 1.53298,0.22724 3.08806,-0.10659 4.63292,-0.0677 1.28422,0.29801 1.62839,-1.69212 0.68948,-2.25365 z"
           id="path5461" />
        <path
           style="font-variation-settings:normal;opacity:1;vector-effect:none;fill:#a28ac6;fill-opacity:1;stroke:#000000;stroke-width:0.264583;stroke-linecap:butt;stroke-linejoin:miter;stroke-miterlimit:4;stroke-dasharray:none;stroke-dashoffset:0;stroke-opacity:1;-inkscape-stroke:none;stop-color:#000000;stop-opacity:1"
           d="m 182.10307,82.106149 c -1.46485,0.23556 -2.84273,0.8086 -4.22412,1.30657 -0.9832,0.48506 -1.41572,1.79489 -1.11382,2.79594 0.74799,1.03164 2.17306,-0.0226 3.2145,0.0945 1.36368,0.007 2.79598,-0.74842 2.88281,-2.25615 0.10871,-0.68996 0.0194,-1.68147 -0.75937,-1.94091 z"
           id="path5463" />
        <path
           style="font-variation-settings:normal;opacity:1;vector-effect:none;fill:#a28ac6;fill-opacity:1;stroke:#000000;stroke-width:0.264583;stroke-linecap:butt;stroke-linejoin:miter;stroke-miterlimit:4;stroke-dasharray:none;stroke-dashoffset:0;stroke-opacity:1;-inkscape-stroke:none;stop-color:#000000;stop-opacity:1"
           d="m 206.12907,78.469274 c -1.48468,-0.111329 -3.09165,0.312541 -4.22008,1.296534 -1.12447,1.147282 0.26005,2.369531 1.4798,2.403262 1.52878,0.261918 3.17324,-0.152919 4.40771,-1.082235 0.88943,-1.277128 -1.25322,-1.730107 -1.66743,-2.617561 z"
           id="path5465" />
        <path
           style="font-variation-settings:normal;opacity:1;vector-effect:none;fill:#2b7130;fill-opacity:1;stroke:#000000;stroke-width:0.264583;stroke-linecap:butt;stroke-linejoin:miter;stroke-miterlimit:4;stroke-dasharray:none;stroke-dashoffset:0;stroke-opacity:1;-inkscape-stroke:none;stop-color:#000000;stop-opacity:1"
           d="m 84.095399,86.838079 c 3.018852,-2.47519 1.4071,-5.05387 -0.302888,-6.94352 -1.689752,-1.48463 -3.839728,-3.73831 -6.114478,-3.30156 -3.346458,0.64251 -1.553486,4.29087 0.03598,5.62771 1.410811,1.53086 2.131581,3.49411 4.251233,4.16085 0.568553,0.20818 1.660583,0.84153 2.130153,0.45652 z"
           id="path5467"
           sodipodi:nodetypes="scsccs" />
        <path
           style="font-variation-settings:normal;opacity:1;vector-effect:none;fill:#f3cd4b;fill-opacity:1;stroke:#000000;stroke-width:0.264583;stroke-linecap:butt;stroke-linejoin:miter;stroke-miterlimit:4;stroke-dasharray:none;stroke-dashoffset:0;stroke-opacity:1;-inkscape-stroke:none;stop-color:#000000;stop-opacity:1"
           d="m 103.98574,77.189529 c 0.81494,2.68315 3.2345,4.14039 5.63391,5.16672 2.59777,1.81635 5.75526,1.8763 8.71666,2.48852 2.49698,-0.15665 5.27908,0.70762 7.53799,-0.69658 1.65864,-1.24201 3.11272,-3.98715 1.40938,-5.78212 -2.20385,-1.45181 -4.73961,-2.40871 -7.20146,-3.38411 -2.87723,-0.43992 -5.46326,-2.00674 -8.40366,-2.20056 -2.33963,-0.34797 -6.24442,-0.98145 -7.17794,1.91357 -0.24058,0.86714 -0.23038,1.77527 -0.38023,2.65784"
           id="path5469" />
        <path
           style="font-variation-settings:normal;opacity:1;vector-effect:none;fill:#d999aa;fill-opacity:1;stroke:#000000;stroke-width:0.264583;stroke-linecap:butt;stroke-linejoin:miter;stroke-miterlimit:4;stroke-dasharray:none;stroke-dashoffset:0;stroke-opacity:1;-inkscape-stroke:none;stop-color:#000000;stop-opacity:1"
           d="m 112.17643,75.436689 c -0.52962,-0.0345 -1.09542,-0.052 -1.57959,0.19992 -0.31364,0.15793 -0.47676,0.5172 -0.44584,0.85863 0.008,0.34314 0.1351,0.69666 0.41808,0.90841 0.44739,0.34435 1.0263,0.41815 1.5654,0.51687 0.30403,0.041 0.5982,0.16413 0.90995,0.13443 0.60487,-0.0231 1.19966,-0.44146 1.33901,-1.04566 0.0447,-0.1727 0.0341,-0.35182 0.0754,-0.52482 0.0546,-0.34322 -0.13531,-0.69374 -0.44172,-0.85127 -0.37516,-0.21005 -0.82516,-0.22722 -1.24065,-0.16169 -0.2004,0.001 -0.40195,-0.002 -0.60006,-0.0348 z"
           id="path5471" />
        <path
           style="font-variation-settings:normal;opacity:1;vector-effect:none;fill:#f3cd4b;fill-opacity:1;stroke:#000000;stroke-width:0.264583;stroke-linecap:butt;stroke-linejoin:miter;stroke-miterlimit:4;stroke-dasharray:none;stroke-dashoffset:0;stroke-opacity:1;-inkscape-stroke:none;stop-color:#000000;stop-opacity:1"
           d="m 143.31401,81.512659 c -4.12871,-0.43545 -8.86617,-2.69118 -12.68635,-0.13216 -3.19324,3.8321 2.27877,6.55686 5.27219,7.74435 4.09828,1.48131 8.56429,1.38058 12.85867,1.50412 4.94559,0.4282 5.35228,-5.93853 1.15252,-7.41984 -2.04413,-0.94629 -4.30052,-1.8552 -6.59703,-1.69647 z"
           id="path5473" />
        <path
           style="font-variation-settings:normal;opacity:1;vector-effect:none;fill:#d999aa;fill-opacity:1;stroke:#000000;stroke-width:0.264583;stroke-linecap:butt;stroke-linejoin:miter;stroke-miterlimit:4;stroke-dasharray:none;stroke-dashoffset:0;stroke-opacity:1;-inkscape-stroke:none;stop-color:#000000;stop-opacity:1"
           d="m 140.77596,84.836539 c -0.6075,0.1939 -1.1399,-0.36521 -1.72937,-0.2635 -0.96486,0.22754 -1.40354,1.55102 -0.75624,2.30961 0.40982,0.65729 1.26773,0.52039 1.92209,0.47116 0.65862,-0.13627 1.3487,-0.44488 1.7805,-0.97468 0.29585,-0.48092 0.24095,-1.30808 -0.42176,-1.43338 -0.32345,-0.0136 -0.64295,-0.0726 -0.96443,-0.11254"
           id="path5475" />
        <path
           style="font-variation-settings:normal;opacity:1;vector-effect:none;fill:#f3cd4b;fill-opacity:1;stroke:#000000;stroke-width:0.264583;stroke-linecap:butt;stroke-linejoin:miter;stroke-miterlimit:4;stroke-dasharray:none;stroke-dashoffset:0;stroke-opacity:1;-inkscape-stroke:none;stop-color:#000000;stop-opacity:1"
           d="m 170.30469,82.610289 c -4.646,0.69036 -9.50673,0.95464 -13.76172,3.13931 -0.90893,0.25591 -1.23927,1.25465 -1.15784,2.11872 0.24593,1.72885 1.85795,2.81342 3.29177,3.55776 1.41432,0.75379 3.00203,1.05364 4.5861,1.16466 3.58293,0.3463 7.28432,0.36451 10.75982,-0.67795 2.31878,-0.88759 4.51165,-2.76436 4.99023,-5.29965 0.18025,-1.11807 -0.004,-2.41559 -0.95045,-3.15294 -1.51135,-1.30211 -3.65449,-1.11356 -5.50648,-0.97968 -0.74936,0.0583 -1.49901,0.13255 -2.25143,0.12977 z"
           id="path5477" />
        <path
           style="font-variation-settings:normal;opacity:1;vector-effect:none;fill:#d999aa;fill-opacity:1;stroke:#000000;stroke-width:0.264583;stroke-linecap:butt;stroke-linejoin:miter;stroke-miterlimit:4;stroke-dasharray:none;stroke-dashoffset:0;stroke-opacity:1;-inkscape-stroke:none;stop-color:#000000;stop-opacity:1"
           d="m 167.88728,86.331149 c -0.80104,-0.0351 -2.10549,0.12192 -2.09842,1.16606 -0.0782,0.76471 0.15299,1.90893 1.12448,1.89245 0.94548,-0.0357 1.97414,0.28795 2.79899,-0.35642 0.89689,-0.50816 0.9763,-2.04784 -0.0858,-2.41191 -0.56771,-0.13042 -1.16941,-0.11677 -1.73929,-0.29018 z"
           id="path5479" />
        <path
           style="font-variation-settings:normal;opacity:1;vector-effect:none;fill:#f3cd4b;fill-opacity:1;stroke:#000000;stroke-width:0.264583;stroke-linecap:butt;stroke-linejoin:miter;stroke-miterlimit:4;stroke-dasharray:none;stroke-dashoffset:0;stroke-opacity:1;-inkscape-stroke:none;stop-color:#000000;stop-opacity:1"
           d="m 187.42907,78.688001 c -2.64842,0.288467 -6.49442,1.43981 -6.1692,4.791822 1.19682,2.589448 4.78134,2.927448 7.30953,3.040383 3.41007,-0.271355 6.76971,-0.176987 10.12435,-0.957704 3.70115,0.359172 7.17442,-3.810568 3.02309,-6.205241 -3.07612,-1.686431 -6.8714,-1.413638 -10.26882,-1.125691 -1.32972,0.229609 -2.66664,0.433417 -4.01895,0.456431 z"
           id="path5481" />
        <path
           style="font-variation-settings:normal;opacity:1;vector-effect:none;fill:#d999aa;fill-opacity:1;stroke:#000000;stroke-width:0.264583;stroke-linecap:butt;stroke-linejoin:miter;stroke-miterlimit:4;stroke-dasharray:none;stroke-dashoffset:0;stroke-opacity:1;-inkscape-stroke:none;stop-color:#000000;stop-opacity:1"
           d="m 192.82924,80.401483 c -1.72908,-1.054669 -3.00645,1.772134 -1.34488,2.680687 0.9109,1.296234 3.80661,1.403526 3.73699,-0.600803 -0.23605,-1.16264 -1.44155,-1.874812 -2.49459,-2.192576"
           id="path5483" />
        <path
           style="font-variation-settings:normal;opacity:1;vector-effect:none;fill:#a78ed0;fill-opacity:1;stroke:#000000;stroke-width:0.264583;stroke-linecap:butt;stroke-linejoin:miter;stroke-miterlimit:4;stroke-dasharray:none;stroke-dashoffset:0;stroke-opacity:1;-inkscape-stroke:none;stop-color:#000000;stop-opacity:1"
           d="m 227.36179,78.845545 c 4.58903,-0.172265 8.92113,2.963067 9.65415,7.387897 -0.3523,3.188386 0.20237,8.14274 -1.87645,11.216354 -2.44825,3.965824 -1.8902,8.789194 -1.54913,13.371134 -0.88369,4.24476 -1.3926,8.49964 -0.74632,12.81552 0.74528,3.27903 0.50064,7.28527 -0.006,10.73555 9.54946,16.10636 5.46672,3.8536 5.36438,-3.44828 3.64702,-1.58415 8.60281,-1.98153 12.54599,-1.08092 3.66342,0.90943 3.28484,5.32179 5.72073,7.92832 3.69587,2.45783 -0.35836,-6.89556 -0.72881,-8.53602 -2.43265,-2.35605 -5.67721,-3.22814 -9.27959,-3.59018 -1.31866,-1.54305 -3.58373,-2.75063 -4.97611,-4.09782 3.6667,-1.78054 6.35305,-1.58601 8.7539,-5.08447 3.41144,-1.4422 7.18546,-3.34764 11.00212,-3.69964 3.7414,-1.20904 6.5668,-0.12887 8.0892,3.13426 2.93513,3.36151 0.10402,7.93037 1.22519,11.53094 2.43131,-2.34923 1.60434,-10.02804 6.5854,-8.71749 2.16856,-0.53627 6.35543,3.7324 4.00862,-0.36464 -3.37123,-1.21107 -6.12823,-2.49753 -9.87034,-3.78445 -2.03749,-2.21297 -3.88715,-5.28265 -7.69423,-5.32218 -4.255,0.70717 -8.73825,0.27187 -12.55142,2.58326 -3.85511,0.89626 -9.45095,0.95766 -9.92085,-4.14548 -0.36241,-4.3601 0.48712,-9.415893 4.51126,-11.937252 3.99737,-0.715476 7.88864,-0.793267 11.56034,0.749687 1.38476,0.889902 4.69796,1.469251 4.73754,1.917667 -3.63779,-0.473222 -4.16628,-5.463422 -5.05894,-6.719019 -0.962,-2.252816 -1.10988,-7.572867 -5.30354,-5.153255 -3.25296,2.269121 -10.03167,-1.817369 -5.77022,-4.501491 1.0893,-3.581171 5.26992,-3.168031 8.08687,-3.32054 3.65803,-1.878078 8.48769,-1.488799 11.32826,1.139727 -0.17059,3.497145 3.11481,-0.90973 4.69529,-0.779191 2.4593,-1.216206 3.35826,-3.71195 6.34391,-3.983475 -0.15285,-4.182197 4.98672,-4.263585 5.22646,-7.780803 0.75889,-4.112403 4.24104,-4.590916 6.84146,-5.024098 1.69969,-0.925737 1.02776,-3.73687 -1.43301,-2.460991 -1.7912,0.147369 -3.01108,0.228961 -2.20833,-2.482912 -4.58743,-3.441061 -2.14469,5.438552 -4.14192,7.025511 -1.63593,2.840512 -4.77603,5.553458 -5.96014,8.072243 -2.30742,2.080093 -5.4144,1.165684 -7.79853,1.93979 -2.21882,1.036765 -9.73546,0.416902 -7.17408,-4.487848 0.0352,-2.582651 4.33951,-4.652391 3.25028,-6.535152 -2.1429,1.834011 -5.67585,1.778703 -6.15465,4.198885 -2.21377,3.863398 -7.40757,3.075356 -10.74819,2.980889 -2.82783,-2.272201 -0.90618,-6.18457 -1.17455,-9.485077 3.06555,-2.02735 4.13325,-4.481459 6.80207,-7.668017 3.37036,-0.819209 6.68661,-1.316774 10.48496,-0.591856 5.07756,1.148311 -2.96618,-0.819503 -0.94366,-4.0547 -1.69389,-2.812886 6.47384,-2.734547 2.16285,-4.760718 -4.18945,-1.551251 -5.72248,4.143826 -9.72111,3.587185 -1.57431,0.534328 -2.92223,3.916701 -5.6388,1.463717 -3.38179,-0.33384 -2.43983,-5.678922 -2.68606,-8.95884 1.21855,-2.696674 2.64546,-6.999327 5.7567,-8.086709 5.05918,-3.393282 -0.11174,-3.930907 -4.31859,-2.277042 -2.83953,1.824878 -5.07598,4.242575 -4.84076,7.927062 -2.28643,4.228233 1.51374,9.542133 -2.47854,13.293869 0.28984,3.851449 -0.66487,7.349205 -2.06561,10.765111 -2.76461,3.248457 -1.46256,8.539521 -4.85914,11.267277 -2.09107,0.6946 -6.807,3.131306 -5.05987,5.888701 z"
           id="path5485"
           sodipodi:nodetypes="ccccccccccccccccccccccccccccccccccccccccccccccccccccccccccc" />
        <path
           style="font-variation-settings:normal;opacity:1;vector-effect:none;fill:#f3cd4b;fill-opacity:1;stroke:#000000;stroke-width:0.264583;stroke-linecap:butt;stroke-linejoin:miter;stroke-miterlimit:4;stroke-dasharray:none;stroke-dashoffset:0;stroke-opacity:1;-inkscape-stroke:none;stop-color:#000000;stop-opacity:1"
           d="m 221.04434,73.178728 c -3.77168,0.867581 -7.7941,0.59446 -11.34198,2.367054 -3.84112,0.790211 -4.96117,6.625239 -0.73476,7.676674 3.34227,0.362162 6.75825,0.375493 10.12406,0.210036 3.1452,-0.49987 6.3182,-1.35229 9.1749,-2.776202 2.7491,-1.525781 1.6041,-6.127904 -0.9511,-7.291866 -2.08786,-0.158702 -4.20091,0.23546 -6.27112,-0.185696 z"
           id="path5487" />
        <path
           style="font-variation-settings:normal;opacity:1;vector-effect:none;fill:#d999aa;fill-opacity:1;stroke:#000000;stroke-width:0.264583;stroke-linecap:butt;stroke-linejoin:miter;stroke-miterlimit:4;stroke-dasharray:none;stroke-dashoffset:0;stroke-opacity:1;-inkscape-stroke:none;stop-color:#000000;stop-opacity:1"
           d="m 219.65026,76.424411 c -1.06283,-0.551119 -2.82511,-0.542018 -3.29001,0.781163 -0.60212,1.356205 1.17772,2.473301 2.34112,1.843326 1.04165,0.0041 2.88844,-0.873906 1.9178,-2.094372 -0.28315,-0.35456 -0.73656,-0.642901 -1.20721,-0.563243"
           id="path5489" />
      </g>
      <use
         x="0"
         y="0"
         xlink:href="#g208872"
         id="use5493"
         transform="translate(444.50022,127.00002)"
         width="100%"
         height="100%" />
      <use
         x="0"
         y="0"
         xlink:href="#g208872"
         id="use5495"
         transform="translate(444.50022,-84.666669)"
         width="100%"
         height="100%" />
      <use
         x="0"
         y="0"
         xlink:href="#g208872"
         id="use5497"
         transform="translate(666.75036,-21.166667)"
         width="100%"
         height="100%" />
      <use
         x="0"
         y="0"
         xlink:href="#g208872"
         id="use5499"
         transform="translate(666.75036,84.666669)"
         width="100%"
         height="100%" />
      <use
         x="0"
         y="0"
         xlink:href="#g208872"
         id="use5503"
         transform="translate(666.75036,190.50006)"
         width="100%"
         height="100%" />
    </g>
  </g>
</svg>
