<?xml version="1.0" encoding="UTF-8" standalone="no"?>
<!-- Created with Inkscape (http://www.inkscape.org/) -->

<svg
   width="442.60635mm"
   height="132.086mm"
   viewBox="0 0 442.60635 132.08599"
   version="1.1"
   id="svg5"
   inkscape:version="1.1.2 (0a00cf5339, 2022-02-04)"
   sodipodi:docname="real-neuron.svg"
   xmlns:inkscape="http://www.inkscape.org/namespaces/inkscape"
   xmlns:sodipodi="http://sodipodi.sourceforge.net/DTD/sodipodi-0.dtd"
   xmlns="http://www.w3.org/2000/svg"
   xmlns:svg="http://www.w3.org/2000/svg">
  <sodipodi:namedview
     id="namedview7"
     pagecolor="#ffffff"
     bordercolor="#666666"
     borderopacity="1.0"
     inkscape:pageshadow="2"
     inkscape:pageopacity="0.0"
     inkscape:pagecheckerboard="0"
     inkscape:document-units="mm"
     showgrid="false"
     inkscape:snap-global="true"
     inkscape:zoom="0.76207826"
     inkscape:cx="889.67241"
     inkscape:cy="396.28476"
     inkscape:window-width="2554"
     inkscape:window-height="1365"
     inkscape:window-x="1920"
     inkscape:window-y="32"
     inkscape:window-maximized="1"
     inkscape:current-layer="layer1"
     fit-margin-top="5"
     fit-margin-left="5"
     fit-margin-right="5"
     fit-margin-bottom="5" />
  <defs
     id="defs2" />
  <g
     inkscape:label="Layer 1"
     inkscape:groupmode="layer"
     id="layer1"
     transform="translate(136.59734,-18.784486)">
    <path
       id="path250205"
       style="font-variation-settings:normal;opacity:1;vector-effect:none;fill:#fff6d5;fill-opacity:1;stroke:#000000;stroke-width:0.264583;stroke-linecap:butt;stroke-linejoin:miter;stroke-miterlimit:4;stroke-dasharray:none;stroke-dashoffset:0;stroke-opacity:1;-inkscape-stroke:none;stop-color:#000000;stop-opacity:1"
       d="m 224.86078,100.74909 h 51.29544 v 18.79417 L 300.84666,84.827487 276.15622,50.111709 v 18.794175 h -51.29544 c 0,10.473355 0,21.258187 0,31.843206 z"
       sodipodi:nodetypes="cccccccc" />
    <path
       id="path249465"
       style="font-variation-settings:normal;opacity:1;vector-effect:none;fill:#fff6d5;fill-opacity:1;stroke:#000000;stroke-width:0.264583;stroke-linecap:butt;stroke-linejoin:miter;stroke-miterlimit:4;stroke-dasharray:none;stroke-dashoffset:0;stroke-opacity:1;-inkscape-stroke:none;stop-color:#000000;stop-opacity:1"
       d="m -131.46505,100.74909 h 51.295443 v 18.79417 L -55.479172,84.827487 -80.169607,50.111709 v 18.794175 h -51.295443 c 0,10.473355 0,21.258187 0,31.843206 z"
       sodipodi:nodetypes="cccccccc" />
    <text
       xml:space="preserve"
       style="font-size:8.46667px;line-height:1.25;font-family:'DejaVu Sans';-inkscape-font-specification:'DejaVu Sans';stroke-width:0.264583"
       x="115.11166"
       y="56.842026"
       id="text53086"><tspan
         sodipodi:role="line"
         id="tspan53084"
         style="stroke-width:0.264583"
         x="115.11166"
         y="56.842026" /></text>
    <g
       id="g208872"
       transform="translate(-61.694732,19.98345)">
      <path
         style="font-variation-settings:normal;opacity:1;vector-effect:none;fill:#a78ed0;fill-opacity:1;stroke:#000000;stroke-width:0.264583;stroke-linecap:butt;stroke-linejoin:miter;stroke-miterlimit:4;stroke-dasharray:none;stroke-dashoffset:0;stroke-opacity:1;-inkscape-stroke:none;stop-color:#000000;stop-opacity:1"
         d="m 104.77599,73.851159 c -6.376892,-1.41616 -13.539578,-5.27148 -14.68401,-12.325194 0.156554,-5.626065 2.488495,-10.863308 4.032994,-16.196141 1.794134,-4.260457 9.373876,-5.319343 9.951616,-9.096612 -5.688262,0.308943 3.30594,-9.12628 -1.46442,-5.334545 -2.11347,1.736665 -6.557122,9.847669 -6.608732,6.395567 -0.57802,-3.593773 1.19305,-7.045073 1.61149,-10.581182 0.41853,-2.064935 2.25368,-8.164797 0.25789,-7.884727 -0.85403,2.634392 -1.98209,5.175462 -2.951213,7.770659 -3.506234,1.688585 -1.348306,8.487288 -2.46448,12.090826 -0.167115,5.658947 -2.154793,10.999829 -4.456613,16.097422 -5.77816,-2.340915 -3.796417,-9.729325 -0.904185,-13.621177 0.798742,-3.511567 7.543566,-8.746134 3.373036,-11.353515 -0.843415,-5.541695 -0.670715,2.795477 -2.17098,4.330168 -1.026206,1.874298 -2.864069,6.939833 -2.10559,2.170606 0.287196,-2.109288 0.872481,-3.740973 -1.654499,-3.223287 -2.382815,-4.240378 -0.663479,5.476589 -1.046218,7.243745 0.06577,2.017477 0.6814,6.046362 -1.496981,2.53716 -3.64711,-2.559769 -1.953428,5.290913 -1.429443,7.124893 0.784574,5.281001 5.813159,9.195283 4.835863,14.695442 -0.965044,5.63197 -7.783702,-0.0765 -10.23388,-2.239819 -4.795929,-4.148879 -6.516175,-11.406486 -3.66344,-17.134064 1.752938,-4.550723 7.202534,-6.050167 9.095914,-10.39432 -1.87504,1.124049 -3.484806,1.992805 -3.353692,-0.790636 -1.463742,1.647715 -3.722084,7.81786 -5.973755,5.698753 0.816048,-4.216572 4.211861,-7.114895 6.488634,-10.584661 3.2452,-3.671389 -3.127237,1.774947 -2.475842,-0.951509 l 1.122662,-5.832432 c -2.490549,3.402705 -3.354097,9.087924 -7.513225,10.654007 -3.377356,-2.515077 -1.931795,1.825755 -2.151137,3.810211 0.05581,3.318778 0.111627,6.637557 0.16744,9.956335 -4.117999,2.688912 -3.892488,-5.868451 -4.12459,-8.467377 0.216763,-6.77049 1.949741,-13.368354 3.495951,-19.933648 -2.901218,-0.284476 -2.611445,8.046799 -3.071123,1.961047 l -0.413252,-5.25441 c -1.476697,3.433677 -1.927386,7.081078 -1.569406,10.769868 -0.152743,2.863408 -0.109305,12.197176 -4.530019,9.010895 -1.707593,-4.403531 -1.107272,-9.586668 0.601977,-13.920849 1.187468,-2.60522 1.762812,-5.138962 -0.543353,-6.08467 -0.440507,-3.587735 -0.865514,0.715235 -1.153685,1.978344 -0.197139,1.823025 -0.446244,3.485952 -1.941121,1.310856 -2.691175,-3.170701 -1.252471,0.03571 -0.485629,2.339172 0.515269,2.245288 1.240018,7.990257 0.15957,8.241737 l -5.234342,-4.586216 c -1.73275,2.842001 3.394798,5.850814 4.542743,8.683207 2.683733,3.833023 5.812922,7.451853 7.913189,11.628861 -0.816143,5.761202 -7.712017,-0.02989 -9.864943,-2.256278 -2.957527,-5.125809 -6.208563,-10.119334 -9.820348,-14.794122 -1.358601,-1.867815 -0.110685,-8.438721 -0.7163,-7.376212 -1.52824,0.578528 -2.830891,-1.891321 -1.799181,1.260237 1.081234,3.901557 -1.582721,7.223138 2.479443,9.807711 2.520177,2.95265 4.997942,6.042926 6.480351,9.668117 l -7.814238,-0.936659 c 2.853566,3.443519 8.555987,2.755951 10.869186,7.065064 2.456794,3.901796 7.501953,2.053738 10.563101,4.55231 2.301182,3.623876 4.816064,7.115548 7.201756,10.687142 0.254153,4.17906 3.478518,10.78005 -0.514029,13.50688 -2.339201,-0.041 -6.23216,-8.105786 -5.470401,-2.2999 0.472765,4.07427 -4.812272,-1.63033 -6.734658,-1.65962 -1.541595,-0.5307 -8.231311,1.38624 -3.6853,1.72247 2.766026,-0.11205 8.003489,4.14613 2.255767,3.82688 -5.047172,1.39564 -10.659446,-1.44253 -10.643344,-7.055139 -0.952865,-5.330351 -0.1251,-10.751475 0.630393,-16.050067 -0.758245,1.764021 -2.478972,2.27245 -2.911029,0.91774 -0.930302,5.699917 -1.020976,11.524744 -1.140668,17.301656 -2.62483,3.62252 4.922613,7.63563 0.414187,10.43997 -1.164858,0.31117 2.684609,-0.53444 3.704633,-0.72731 2.309837,-0.47488 4.619673,-0.94977 6.92951,-1.42466 -1.658019,3.74667 -4.874536,6.86824 -6.042337,10.66003 4.561665,0.5532 5.377055,-6.79072 9.259928,-8.66694 3.90476,-4.18441 11.268982,-3.68124 13.576282,1.89351 1.640203,6.18926 -8.015414,5.51108 -11.648012,7.98225 -6.109126,2.22974 -12.204357,4.62826 -17.787041,8.001961 -0.475098,3.03083 3.708358,0.14767 5.442731,0.0972 1.931757,-0.6231 4.118477,-1.456021 1.803731,1.41559 -1.294721,2.77602 -4.116722,7.8629 -4.496035,9.25387 1.577575,-1.85693 3.155149,-3.71387 4.732724,-5.5708 -0.232542,2.86452 0.812992,3.54614 2.049193,0.57542 1.869604,-2.43543 5.387973,-8.532971 6.207092,-8.635131 -0.504513,3.357721 -3.06504,9.356801 -2.271591,11.047021 2.525052,-1.42457 2.483427,4.69223 3.492896,-0.12015 -0.520265,-5.49824 2.21648,-11.204471 7.111429,-13.994811 3.798456,-1.69011 11.406979,0.81422 7.974326,5.852371 -1.183872,6.14023 -6.679435,9.86818 -11.140431,13.63934 3.176236,1.0663 7.087471,-4.93506 8.061125,-3.89866 l -1.961066,5.87451 c 0.691434,-3.86676 4.843559,0.70468 4.157433,-0.43615 0.395672,-3.99635 1.984095,-10.43441 4.013938,-12.29057 0.921777,1.55588 3.009506,8.08661 3.188641,6.47382 L 75.858586,93.501589 c 2.998533,0.71445 7.759572,-1.54196 9.296292,1.6667 2.508751,5.216541 1.732555,11.178931 2.641179,16.699941 2.542318,-1.08132 -0.668311,-9.07831 3.758866,-5.6296 2.777922,2.27963 3.374265,6.58291 6.893575,8.05826 -2.40597,-2.948 -2.97896,-8.05569 2.362482,-5.93881 3.17254,0.34734 -2.744582,-3.08683 -3.624792,-4.3454 -3.130539,-2.90782 -6.722421,-5.405061 -9.545519,-8.585491 -2.122762,-2.54239 -0.382609,-7.09862 2.691899,-3.39468 4.020822,1.94462 9.814732,7.67962 13.435482,6.17584 -1.89671,-1.51319 -4.658592,-4.28196 -0.2486,-3.20588 1.88836,0.11355 4.57956,-0.008 1.05347,-0.97948 -4.05524,-2.39539 -10.464514,-2.51434 -12.642693,-7.02597 1.302427,-4.30943 6.169651,-6.78631 9.909523,-8.75641 2.64312,0.0477 2.42717,-2.46225 2.92658,-4.34563 l 0.01,-0.0438 z"
         id="path3850"
         sodipodi:nodetypes="ccscccccccccaccccccccccccccccaccccccccccccsccccccccccccsccccccccccccccccccccccccccsscccccccccccccccccccccc" />
      <path
         style="font-variation-settings:normal;opacity:1;vector-effect:none;fill:#a78ed0;fill-opacity:1;stroke:#000000;stroke-width:0.264583;stroke-linecap:butt;stroke-linejoin:miter;stroke-miterlimit:4;stroke-dasharray:none;stroke-dashoffset:0;stroke-opacity:1;-inkscape-stroke:none;stop-color:#000000;stop-opacity:1"
         d="m 212.43566,51.221572 5.46759,-14.982081 c 0.002,-2.244385 1.08521,-4.646622 -0.68013,-6.566166 -1.0843,-3.057845 -4.40925,-2.300857 -5.75073,0.123439 -2.46986,1.995403 -4.60637,-2.387335 -1.3143,-3.0299 4.13139,-0.387991 -0.69207,-3.879449 -2.49783,-4.164334 -0.93098,-1.566911 4.34597,-4.891362 4.81406,-2.443021 -1.19373,2.516006 1.94096,3.811512 3.72598,4.685392 1.29996,0.313059 3.73468,2.35146 3.78458,0.01705 0.15921,-0.901798 1.07511,-1.220849 1.41505,-1.947812 0.53089,-1.135298 0.91036,-2.230969 0.91762,-3.646188 -0.7616,-2.507172 3.29194,-2.661684 1.97914,0.100129 0.0762,4.187154 4.76965,0.156198 6.31541,2.24574 1.21221,2.798021 -3.5053,2.614289 -5.20095,2.190922 -2.31938,-0.095 -3.43405,3.069996 -3.98382,5.035263 -0.23137,1.634921 -0.95524,4.824059 -0.16863,5.53489 6.10269,-3.312434 12.7156,-6.247042 17.43767,-11.506089 1.83978,-1.470595 -0.34756,-4.377565 1.85808,-5.817868 1.22116,-1.897586 4.61825,-1.151305 2.97409,1.35992 -0.64635,1.301574 -0.37037,1.801965 0.98141,1.647019 1.11476,1.757617 -3.94939,4.306991 -3.35208,4.10094 1.3736,-1.325728 5.37428,-2.386596 5.91293,-0.483805 0.6174,2.180985 -4.05926,2.019478 -6.06245,3.080195 -3.02826,1.60351 -6.75221,2.226614 -9.00224,4.963286 -4.56172,2.272166 -9.95919,4.406359 -12.10841,9.424476 -1.5305,2.123188 0.0464,4.602125 2.52179,3.129071 3.75709,-1.605414 6.47651,-6.045283 10.12923,-6.748113 0.73178,-0.140804 1.35821,-1.582994 2.00218,-2.614613 0.94687,-1.51685 1.15416,-3.057106 1.96311,-0.942054 0.42925,1.122307 0.27594,2.553909 1.19722,0.938678 3.42235,-2.293682 5.08247,-3.164343 4.61056,0.197053 -0.51498,3.271556 -4.59525,3.369342 -7.19833,3.686719 -0.0626,0.115308 1.66281,0.355849 2.31398,0.521149 0.67368,0.190078 2.49609,0.247114 0.91347,0.698511 -4.11702,1.530593 -7.11588,2.138476 -8.3223,3.470969 -0.20613,0.0553 9.79687,1.615813 14.10108,3.928493 2.96595,1.593624 6.75678,1.61157 9.31178,3.913963 1.43598,2.523879 -2.94493,0.580981 -4.08129,0.454173 -3.1153,-0.872097 -6.15814,-1.982812 -9.1728,-3.151431 2.27232,2.085086 5.1704,3.910701 5.87739,7.151138 0.73401,2.283815 0.41163,4.716441 0.59639,7.043923 0.24199,3.189128 3.53145,2.592458 5.62418,4.091496 2.34658,1.253208 0.85401,3.355229 -1.3315,3.054336 -3.68837,0.0318 -5.78249,-3.728513 -6.60523,-6.87421 -0.2211,-1.578234 -0.46242,-2.626544 -1.60625,-1.025501 -1.01178,0.880688 -1.91385,2.038119 -2.99298,2.748905 -1.16019,0.197406 -1.68186,-0.116614 -1.14038,-1.282202 -0.0965,-1.891787 2.18048,-2.03795 3.14762,-3.317532 2.40558,-1.838689 1.73511,-5.328706 -0.41042,-7.066321 -3.12381,-2.935232 -6.93736,-5.105582 -10.85958,-6.784662 -1.55289,-1.28545 -6.26752,0.06255 -3.22405,1.942838 2.66926,2.275579 3.18958,6.031164 2.65118,9.323337 -0.75393,-0.246363 -2.52961,0.565986 -2.34912,-0.648225 -0.20864,-2.56248 -0.087,-5.433546 -1.81954,-7.538902 0.17966,3.214432 0.35931,6.428863 0.53897,9.643295 -1.36593,1.770451 -4.2524,-0.05014 -2.86151,-2.031202 0.29414,-2.524436 -0.29161,-5.065838 -1.25086,-7.391355 -2.82504,-2.718536 -5.57732,0.430117 -7.03625,2.864768 -0.89993,-0.435959 -1.79985,-0.871919 -2.69978,-1.307878 z"
         id="path8725"
         sodipodi:nodetypes="ccssaacssacccassaacccaasscssscccaccsaccccaaacscaaccccccccccc" />
      <path
         style="font-variation-settings:normal;opacity:1;vector-effect:none;fill:#a28ac6;fill-opacity:1;stroke:#000000;stroke-width:0.264583;stroke-linecap:butt;stroke-linejoin:miter;stroke-miterlimit:4;stroke-dasharray:none;stroke-dashoffset:0;stroke-opacity:1;-inkscape-stroke:none;stop-color:#000000;stop-opacity:1"
         d="m 127.35129,80.502129 c 1.30745,-0.059 2.3341,0.96784 3.57848,1.19935 1.02737,0.55006 0.69079,2.26355 -0.56426,2.07869 -1.30298,0.11098 -2.53025,-0.44042 -3.75294,-0.78808 -1.14863,-0.84641 -0.0652,-1.95152 0.73872,-2.48996 z"
         id="path13747" />
      <path
         style="font-variation-settings:normal;opacity:1;vector-effect:none;fill:#a28ac6;fill-opacity:1;stroke:#000000;stroke-width:0.264583;stroke-linecap:butt;stroke-linejoin:miter;stroke-miterlimit:4;stroke-dasharray:none;stroke-dashoffset:0;stroke-opacity:1;-inkscape-stroke:none;stop-color:#000000;stop-opacity:1"
         d="m 157.49738,86.196699 c -1.63998,-0.35151 -3.3423,-0.13868 -4.98151,-0.50332 -1.72807,-0.12656 -1.91209,2.70026 -0.19587,2.86811 1.53298,0.22724 3.08806,-0.10659 4.63292,-0.0677 1.28422,0.29801 1.62839,-1.69212 0.68948,-2.25365 z"
         id="path14481" />
      <path
         style="font-variation-settings:normal;opacity:1;vector-effect:none;fill:#a28ac6;fill-opacity:1;stroke:#000000;stroke-width:0.264583;stroke-linecap:butt;stroke-linejoin:miter;stroke-miterlimit:4;stroke-dasharray:none;stroke-dashoffset:0;stroke-opacity:1;-inkscape-stroke:none;stop-color:#000000;stop-opacity:1"
         d="m 182.10307,82.106149 c -1.46485,0.23556 -2.84273,0.8086 -4.22412,1.30657 -0.9832,0.48506 -1.41572,1.79489 -1.11382,2.79594 0.74799,1.03164 2.17306,-0.0226 3.2145,0.0945 1.36368,0.007 2.79598,-0.74842 2.88281,-2.25615 0.10871,-0.68996 0.0194,-1.68147 -0.75937,-1.94091 z"
         id="path15312" />
      <path
         style="font-variation-settings:normal;opacity:1;vector-effect:none;fill:#a28ac6;fill-opacity:1;stroke:#000000;stroke-width:0.264583;stroke-linecap:butt;stroke-linejoin:miter;stroke-miterlimit:4;stroke-dasharray:none;stroke-dashoffset:0;stroke-opacity:1;-inkscape-stroke:none;stop-color:#000000;stop-opacity:1"
         d="m 200.50713,69.299017 c -1.34567,0.63705 -2.53312,1.799799 -3.02772,3.212942 -0.41044,1.55313 1.39725,1.93132 2.47426,1.35776 1.45844,-0.52794 2.68295,-1.70137 3.29675,-3.119391 0.14195,-1.549839 -1.94457,-0.884572 -2.74329,-1.451311 z"
         id="path15747" />
      <path
         style="font-variation-settings:normal;opacity:1;vector-effect:none;fill:#2b7130;fill-opacity:1;stroke:#000000;stroke-width:0.264583;stroke-linecap:butt;stroke-linejoin:miter;stroke-miterlimit:4;stroke-dasharray:none;stroke-dashoffset:0;stroke-opacity:1;-inkscape-stroke:none;stop-color:#000000;stop-opacity:1"
         d="m 84.095399,86.838079 c 3.018852,-2.47519 1.4071,-5.05387 -0.302888,-6.94352 -1.689752,-1.48463 -3.839728,-3.73831 -6.114478,-3.30156 -3.346458,0.64251 -1.553486,4.29087 0.03598,5.62771 1.410811,1.53086 2.131581,3.49411 4.251233,4.16085 0.568553,0.20818 1.660583,0.84153 2.130153,0.45652 z"
         id="path12069"
         sodipodi:nodetypes="scsccs" />
      <path
         style="font-variation-settings:normal;opacity:1;vector-effect:none;fill:#f3cd4b;fill-opacity:1;stroke:#000000;stroke-width:0.264583;stroke-linecap:butt;stroke-linejoin:miter;stroke-miterlimit:4;stroke-dasharray:none;stroke-dashoffset:0;stroke-opacity:1;-inkscape-stroke:none;stop-color:#000000;stop-opacity:1"
         d="m 103.98574,77.189529 c 0.81494,2.68315 3.2345,4.14039 5.63391,5.16672 2.59777,1.81635 5.75526,1.8763 8.71666,2.48852 2.49698,-0.15665 5.27908,0.70762 7.53799,-0.69658 1.65864,-1.24201 3.11272,-3.98715 1.40938,-5.78212 -2.20385,-1.45181 -4.73961,-2.40871 -7.20146,-3.38411 -2.87723,-0.43992 -5.46326,-2.00674 -8.40366,-2.20056 -2.33963,-0.34797 -6.24442,-0.98145 -7.17794,1.91357 -0.24058,0.86714 -0.23038,1.77527 -0.38023,2.65784"
         id="path12615" />
      <path
         style="font-variation-settings:normal;opacity:1;vector-effect:none;fill:#d999aa;fill-opacity:1;stroke:#000000;stroke-width:0.264583;stroke-linecap:butt;stroke-linejoin:miter;stroke-miterlimit:4;stroke-dasharray:none;stroke-dashoffset:0;stroke-opacity:1;-inkscape-stroke:none;stop-color:#000000;stop-opacity:1"
         d="m 112.17643,75.436689 c -0.52962,-0.0345 -1.09542,-0.052 -1.57959,0.19992 -0.31364,0.15793 -0.47676,0.5172 -0.44584,0.85863 0.008,0.34314 0.1351,0.69666 0.41808,0.90841 0.44739,0.34435 1.0263,0.41815 1.5654,0.51687 0.30403,0.041 0.5982,0.16413 0.90995,0.13443 0.60487,-0.0231 1.19966,-0.44146 1.33901,-1.04566 0.0447,-0.1727 0.0341,-0.35182 0.0754,-0.52482 0.0546,-0.34322 -0.13531,-0.69374 -0.44172,-0.85127 -0.37516,-0.21005 -0.82516,-0.22722 -1.24065,-0.16169 -0.2004,0.001 -0.40195,-0.002 -0.60006,-0.0348 z"
         id="path12749" />
      <path
         style="font-variation-settings:normal;opacity:1;vector-effect:none;fill:#f3cd4b;fill-opacity:1;stroke:#000000;stroke-width:0.264583;stroke-linecap:butt;stroke-linejoin:miter;stroke-miterlimit:4;stroke-dasharray:none;stroke-dashoffset:0;stroke-opacity:1;-inkscape-stroke:none;stop-color:#000000;stop-opacity:1"
         d="m 143.31401,81.512659 c -4.12871,-0.43545 -8.86617,-2.69118 -12.68635,-0.13216 -3.19324,3.8321 2.27877,6.55686 5.27219,7.74435 4.09828,1.48131 8.56429,1.38058 12.85867,1.50412 4.94559,0.4282 5.35228,-5.93853 1.15252,-7.41984 -2.04413,-0.94629 -4.30052,-1.8552 -6.59703,-1.69647 z"
         id="path13048" />
      <path
         style="font-variation-settings:normal;opacity:1;vector-effect:none;fill:#d999aa;fill-opacity:1;stroke:#000000;stroke-width:0.264583;stroke-linecap:butt;stroke-linejoin:miter;stroke-miterlimit:4;stroke-dasharray:none;stroke-dashoffset:0;stroke-opacity:1;-inkscape-stroke:none;stop-color:#000000;stop-opacity:1"
         d="m 140.77596,84.836539 c -0.6075,0.1939 -1.1399,-0.36521 -1.72937,-0.2635 -0.96486,0.22754 -1.40354,1.55102 -0.75624,2.30961 0.40982,0.65729 1.26773,0.52039 1.92209,0.47116 0.65862,-0.13627 1.3487,-0.44488 1.7805,-0.97468 0.29585,-0.48092 0.24095,-1.30808 -0.42176,-1.43338 -0.32345,-0.0136 -0.64295,-0.0726 -0.96443,-0.11254"
         id="path13314" />
      <path
         style="font-variation-settings:normal;opacity:1;vector-effect:none;fill:#f3cd4b;fill-opacity:1;stroke:#000000;stroke-width:0.264583;stroke-linecap:butt;stroke-linejoin:miter;stroke-miterlimit:4;stroke-dasharray:none;stroke-dashoffset:0;stroke-opacity:1;-inkscape-stroke:none;stop-color:#000000;stop-opacity:1"
         d="m 170.30469,82.610289 c -4.646,0.69036 -9.50673,0.95464 -13.76172,3.13931 -0.90893,0.25591 -1.23927,1.25465 -1.15784,2.11872 0.24593,1.72885 1.85795,2.81342 3.29177,3.55776 1.41432,0.75379 3.00203,1.05364 4.5861,1.16466 3.58293,0.3463 7.28432,0.36451 10.75982,-0.67795 2.31878,-0.88759 4.51165,-2.76436 4.99023,-5.29965 0.18025,-1.11807 -0.004,-2.41559 -0.95045,-3.15294 -1.51135,-1.30211 -3.65449,-1.11356 -5.50648,-0.97968 -0.74936,0.0583 -1.49901,0.13255 -2.25143,0.12977 z"
         id="path14015" />
      <path
         style="font-variation-settings:normal;opacity:1;vector-effect:none;fill:#d999aa;fill-opacity:1;stroke:#000000;stroke-width:0.264583;stroke-linecap:butt;stroke-linejoin:miter;stroke-miterlimit:4;stroke-dasharray:none;stroke-dashoffset:0;stroke-opacity:1;-inkscape-stroke:none;stop-color:#000000;stop-opacity:1"
         d="m 167.88728,86.331149 c -0.80104,-0.0351 -2.10549,0.12192 -2.09842,1.16606 -0.0782,0.76471 0.15299,1.90893 1.12448,1.89245 0.94548,-0.0357 1.97414,0.28795 2.79899,-0.35642 0.89689,-0.50816 0.9763,-2.04784 -0.0858,-2.41191 -0.56771,-0.13042 -1.16941,-0.11677 -1.73929,-0.29018 z"
         id="path14248" />
      <path
         style="font-variation-settings:normal;opacity:1;vector-effect:none;fill:#f3cd4b;fill-opacity:1;stroke:#000000;stroke-width:0.264583;stroke-linecap:butt;stroke-linejoin:miter;stroke-miterlimit:4;stroke-dasharray:none;stroke-dashoffset:0;stroke-opacity:1;-inkscape-stroke:none;stop-color:#000000;stop-opacity:1"
         d="m 184.35916,78.731979 c -2.15972,1.5598 -4.93401,4.46163 -2.9945,7.21482 2.32029,1.65948 5.60341,0.18159 7.85701,-0.96984 2.83028,-1.92138 5.79749,-3.49991 8.32783,-5.83669 3.39497,-1.51713 4.35334,-6.85865 -0.43906,-6.88849 -3.50765,0.0544 -6.67209,2.16743 -9.48317,4.09698 -1.04245,0.85684 -2.10391,1.69481 -3.26811,2.38322 z"
         id="path14747" />
      <path
         style="font-variation-settings:normal;opacity:1;vector-effect:none;fill:#d999aa;fill-opacity:1;stroke:#000000;stroke-width:0.264583;stroke-linecap:butt;stroke-linejoin:miter;stroke-miterlimit:4;stroke-dasharray:none;stroke-dashoffset:0;stroke-opacity:1;-inkscape-stroke:none;stop-color:#000000;stop-opacity:1"
         d="m 189.9005,77.552389 c -2.0244,-0.0622 -1.73763,3.02653 0.15586,2.99508 1.43254,0.6766 4.00284,-0.66139 2.95164,-2.36936 -0.77986,-0.89402 -2.17981,-0.91728 -3.25229,-0.67303"
         id="path14947" />
      <path
         style="font-variation-settings:normal;opacity:1;vector-effect:none;fill:#f3cd4b;fill-opacity:1;stroke:#000000;stroke-width:0.264583;stroke-linecap:butt;stroke-linejoin:miter;stroke-miterlimit:4;stroke-dasharray:none;stroke-dashoffset:0;stroke-opacity:1;-inkscape-stroke:none;stop-color:#000000;stop-opacity:1"
         d="m 205.87808,56.224264 c -1.88471,3.380251 -4.78393,6.181846 -5.84708,10.002745 -1.98868,3.379914 1.59014,8.12271 5.20363,5.69152 2.50934,-2.237232 4.80925,-4.763003 6.94286,-7.371402 1.73758,-2.668889 3.2322,-5.594751 4.09072,-8.669032 0.71079,-3.062723 -3.47164,-5.298305 -6.04828,-4.182611 -1.51743,1.442835 -2.64151,3.274989 -4.34185,4.52878 z"
         id="path15514" />
      <path
         style="font-variation-settings:normal;opacity:1;vector-effect:none;fill:#d999aa;fill-opacity:1;stroke:#000000;stroke-width:0.264583;stroke-linecap:butt;stroke-linejoin:miter;stroke-miterlimit:4;stroke-dasharray:none;stroke-dashoffset:0;stroke-opacity:1;-inkscape-stroke:none;stop-color:#000000;stop-opacity:1"
         d="m 207.35186,59.434541 c -1.12144,0.419171 -2.29609,1.732911 -1.62593,2.964911 0.60267,1.355961 2.62475,0.784176 2.93722,-0.501406 0.70132,-0.770209 1.28791,-2.729116 -0.26839,-2.827072 -0.45291,-0.02759 -0.97082,0.11555 -1.22723,0.518179"
         id="path16013" />
      <text
         xml:space="preserve"
         style="font-size:8.46667px;line-height:1.25;font-family:'DejaVu Sans';-inkscape-font-specification:'DejaVu Sans';stroke-width:0.264583"
         x="99.219131"
         y="14.211482"
         id="text60438"><tspan
           sodipodi:role="line"
           id="tspan60436"
           style="font-style:normal;font-variant:normal;font-weight:normal;font-stretch:normal;font-size:8.46667px;font-family:'Nimbus Sans';-inkscape-font-specification:'Nimbus Sans';stroke-width:0.264583"
           x="99.219131"
           y="14.211482">x<tspan
   style="font-size:65%;baseline-shift:sub"
   id="tspan93492">1</tspan></tspan></text>
      <text
         xml:space="preserve"
         style="font-size:8.46667px;line-height:1.25;font-family:'DejaVu Sans';-inkscape-font-specification:'DejaVu Sans';stroke-width:0.264583"
         x="79.549721"
         y="19.801414"
         id="text94722"><tspan
           sodipodi:role="line"
           id="tspan94720"
           style="font-style:normal;font-variant:normal;font-weight:normal;font-stretch:normal;font-size:8.46667px;font-family:'Nimbus Sans';-inkscape-font-specification:'Nimbus Sans';stroke-width:0.264583"
           x="79.549721"
           y="19.801414">x<tspan
   style="font-size:65%;baseline-shift:sub"
   id="tspan98770">2</tspan></tspan></text>
      <text
         xml:space="preserve"
         style="font-size:8.46667px;line-height:1.25;font-family:'DejaVu Sans';-inkscape-font-specification:'DejaVu Sans';stroke-width:0.264583"
         x="65.092682"
         y="10.533525"
         id="text94728"><tspan
           sodipodi:role="line"
           id="tspan94726"
           style="font-style:normal;font-variant:normal;font-weight:normal;font-stretch:normal;font-size:8.46667px;font-family:'Nimbus Sans';-inkscape-font-specification:'Nimbus Sans';stroke-width:0.264583"
           x="65.092682"
           y="10.533525">x<tspan
   style="font-size:65%;baseline-shift:sub"
   id="tspan94724">3</tspan></tspan></text>
      <text
         xml:space="preserve"
         style="font-size:8.46667px;line-height:1.25;font-family:'DejaVu Sans';-inkscape-font-specification:'DejaVu Sans';stroke-width:0.264583"
         x="45.418808"
         y="8.2375708"
         id="text94734"><tspan
           sodipodi:role="line"
           id="tspan94732"
           style="font-style:normal;font-variant:normal;font-weight:normal;font-stretch:normal;font-size:8.46667px;font-family:'Nimbus Sans';-inkscape-font-specification:'Nimbus Sans';stroke-width:0.264583"
           x="45.418808"
           y="8.2375708">x<tspan
   style="font-size:65%;baseline-shift:sub"
   id="tspan94730">4</tspan></tspan></text>
      <text
         xml:space="preserve"
         style="font-size:8.46667px;line-height:1.25;font-family:'DejaVu Sans';-inkscape-font-specification:'DejaVu Sans';stroke-width:0.264583"
         x="27.838509"
         y="15.792704"
         id="text94740"><tspan
           sodipodi:role="line"
           id="tspan94738"
           style="font-style:normal;font-variant:normal;font-weight:normal;font-stretch:normal;font-size:8.46667px;font-family:'Nimbus Sans';-inkscape-font-specification:'Nimbus Sans';stroke-width:0.264583"
           x="27.838509"
           y="15.792704">x<tspan
   style="font-size:65%;baseline-shift:sub"
   id="tspan94736">5</tspan></tspan></text>
      <text
         xml:space="preserve"
         style="font-size:8.46667px;line-height:1.25;font-family:'DejaVu Sans';-inkscape-font-specification:'DejaVu Sans';stroke-width:0.264583"
         x="28.197063"
         y="54.983482"
         id="text94746"><tspan
           sodipodi:role="line"
           id="tspan94744"
           style="font-style:normal;font-variant:normal;font-weight:normal;font-stretch:normal;font-size:8.46667px;font-family:'Nimbus Sans';-inkscape-font-specification:'Nimbus Sans';stroke-width:0.264583"
           x="28.197063"
           y="54.983482">x<tspan
   style="font-size:65%;baseline-shift:sub"
   id="tspan94742">6</tspan></tspan></text>
      <text
         xml:space="preserve"
         style="font-size:8.46667px;line-height:1.25;font-family:'DejaVu Sans';-inkscape-font-specification:'DejaVu Sans';stroke-width:0.264583"
         x="29.767017"
         y="116.16915"
         id="text94752"><tspan
           sodipodi:role="line"
           id="tspan94750"
           style="font-style:normal;font-variant:normal;font-weight:normal;font-stretch:normal;font-size:8.46667px;font-family:'Nimbus Sans';-inkscape-font-specification:'Nimbus Sans';stroke-width:0.264583"
           x="29.767017"
           y="116.16915">x<tspan
   style="font-size:65%;baseline-shift:sub"
   id="tspan94748">7</tspan></tspan></text>
      <text
         xml:space="preserve"
         style="font-size:8.46667px;line-height:1.25;font-family:'DejaVu Sans';-inkscape-font-specification:'DejaVu Sans';stroke-width:0.264583"
         x="58.750736"
         y="124.06712"
         id="text94758"><tspan
           sodipodi:role="line"
           id="tspan94756"
           style="font-style:normal;font-variant:normal;font-weight:normal;font-stretch:normal;font-size:8.46667px;font-family:'Nimbus Sans';-inkscape-font-specification:'Nimbus Sans';stroke-width:0.264583"
           x="58.750736"
           y="124.06712">x<tspan
   style="font-size:65%;baseline-shift:sub"
   id="tspan94754">8</tspan></tspan></text>
      <text
         xml:space="preserve"
         style="font-size:8.46667px;line-height:1.25;font-family:'DejaVu Sans';-inkscape-font-specification:'DejaVu Sans';stroke-width:0.264583"
         x="99.764076"
         y="123.92249"
         id="text94764"><tspan
           sodipodi:role="line"
           id="tspan94762"
           style="font-style:normal;font-variant:normal;font-weight:normal;font-stretch:normal;font-size:8.46667px;font-family:'Nimbus Sans';-inkscape-font-specification:'Nimbus Sans';stroke-width:0.264583"
           x="99.764076"
           y="123.92249">x<tspan
   style="font-size:65%;baseline-shift:sub"
   id="tspan94760">9</tspan></tspan></text>
      <text
         xml:space="preserve"
         style="font-size:8.46667px;line-height:1.25;font-family:'DejaVu Sans';-inkscape-font-specification:'DejaVu Sans';stroke-width:0.264583"
         x="112.76085"
         y="102.61065"
         id="text94770"><tspan
           sodipodi:role="line"
           id="tspan94768"
           style="font-style:normal;font-variant:normal;font-weight:normal;font-stretch:normal;font-size:8.46667px;font-family:'Nimbus Sans';-inkscape-font-specification:'Nimbus Sans';stroke-width:0.264583"
           x="112.76085"
           y="102.61065">x<tspan
   style="font-size:65%;baseline-shift:sub"
   id="tspan94766">10</tspan></tspan></text>
      <text
         xml:space="preserve"
         style="font-size:8.46667px;line-height:1.25;font-family:'DejaVu Sans';-inkscape-font-specification:'DejaVu Sans';stroke-width:0.264583"
         x="209.21394"
         y="13.530173"
         id="text123068"><tspan
           sodipodi:role="line"
           id="tspan123066"
           style="font-style:normal;font-variant:normal;font-weight:normal;font-stretch:normal;font-size:8.46667px;font-family:'Nimbus Sans';-inkscape-font-specification:'Nimbus Sans';stroke-width:0.264583"
           x="209.21394"
           y="13.530173">y<tspan
   style="font-size:65%;baseline-shift:sub"
   id="tspan123064">1</tspan></tspan></text>
      <text
         xml:space="preserve"
         style="font-size:8.46667px;line-height:1.25;font-family:'DejaVu Sans';-inkscape-font-specification:'DejaVu Sans';stroke-width:0.264583"
         x="249.66936"
         y="16.973518"
         id="text123176"><tspan
           sodipodi:role="line"
           id="tspan123174"
           style="font-style:normal;font-variant:normal;font-weight:normal;font-stretch:normal;font-size:8.46667px;font-family:'Nimbus Sans';-inkscape-font-specification:'Nimbus Sans';stroke-width:0.264583"
           x="249.66936"
           y="16.973518">y<tspan
   style="font-size:65%;baseline-shift:sub"
   id="tspan123172">2</tspan></tspan></text>
      <text
         xml:space="preserve"
         style="font-size:8.46667px;line-height:1.25;font-family:'DejaVu Sans';-inkscape-font-specification:'DejaVu Sans';stroke-width:0.264583"
         x="249.95456"
         y="38.068531"
         id="text123182"><tspan
           sodipodi:role="line"
           id="tspan123180"
           style="font-style:normal;font-variant:normal;font-weight:normal;font-stretch:normal;font-size:8.46667px;font-family:'Nimbus Sans';-inkscape-font-specification:'Nimbus Sans';stroke-width:0.264583"
           x="249.95456"
           y="38.068531">y<tspan
   style="font-size:65%;baseline-shift:sub"
   id="tspan123178">3</tspan></tspan></text>
      <text
         xml:space="preserve"
         style="font-size:8.46667px;line-height:1.25;font-family:'DejaVu Sans';-inkscape-font-specification:'DejaVu Sans';stroke-width:0.264583"
         x="257.7236"
         y="75.690926"
         id="text123188"><tspan
           sodipodi:role="line"
           id="tspan123186"
           style="font-style:normal;font-variant:normal;font-weight:normal;font-stretch:normal;font-size:8.46667px;font-family:'Nimbus Sans';-inkscape-font-specification:'Nimbus Sans';stroke-width:0.264583"
           x="257.7236"
           y="75.690926">y<tspan
   style="font-size:65%;baseline-shift:sub"
   id="tspan123184">4</tspan></tspan></text>
      <text
         xml:space="preserve"
         style="font-size:8.46667px;line-height:1.25;font-family:'DejaVu Sans';-inkscape-font-specification:'DejaVu Sans';stroke-width:0.264583"
         x="221.57898"
         y="70.90081"
         id="text123194"><tspan
           sodipodi:role="line"
           id="tspan123192"
           style="font-style:normal;font-variant:normal;font-weight:normal;font-stretch:normal;font-size:8.46667px;font-family:'Nimbus Sans';-inkscape-font-specification:'Nimbus Sans';stroke-width:0.264583"
           x="221.57898"
           y="70.90081">y<tspan
   style="font-size:65%;baseline-shift:sub"
   id="tspan123190">5</tspan></tspan></text>
    </g>
    <g
       id="g207775"
       transform="translate(-0.55280887)" />
    <text
       xml:space="preserve"
       style="font-size:8.46667px;line-height:1.25;font-family:'DejaVu Sans';-inkscape-font-specification:'DejaVu Sans';text-align:center;text-anchor:middle;stroke-width:0.264583"
       x="-101.49415"
       y="81.581718"
       id="text220565"><tspan
         sodipodi:role="line"
         id="tspan220563"
         style="font-style:normal;font-variant:normal;font-weight:normal;font-stretch:normal;font-size:8.46667px;font-family:'Nimbus Sans';-inkscape-font-specification:'Nimbus Sans';text-align:center;text-anchor:middle;stroke-width:0.264583"
         x="-101.49415"
         y="81.581718">input signals</tspan><tspan
         sodipodi:role="line"
         style="font-style:normal;font-variant:normal;font-weight:normal;font-stretch:normal;font-size:8.46667px;font-family:'Nimbus Sans';-inkscape-font-specification:'Nimbus Sans';text-align:center;text-anchor:middle;stroke-width:0.264583"
         x="-101.49415"
         y="92.425537"
         id="tspan243336">x<tspan
   style="font-size:65%;baseline-shift:sub"
   id="tspan244222">1</tspan>, x<tspan
   style="font-size:65%;baseline-shift:sub"
   id="tspan244220">2</tspan>, ..., x<tspan
   style="font-size:65%;baseline-shift:sub"
   id="tspan244218">10</tspan></tspan></text>
    <text
       xml:space="preserve"
       style="font-size:8.46667px;line-height:1.25;font-family:'DejaVu Sans';-inkscape-font-specification:'DejaVu Sans';text-align:center;text-anchor:middle;stroke-width:0.264583"
       x="256.9718"
       y="81.56881"
       id="text221194"><tspan
         sodipodi:role="line"
         id="tspan221192"
         style="font-style:normal;font-variant:normal;font-weight:normal;font-stretch:normal;font-size:8.46667px;font-family:'Nimbus Sans';-inkscape-font-specification:'Nimbus Sans';text-align:center;text-anchor:middle;stroke-width:0.264583"
         x="256.9718"
         y="81.56881">output signals</tspan><tspan
         sodipodi:role="line"
         style="font-style:normal;font-variant:normal;font-weight:normal;font-stretch:normal;font-size:8.46667px;font-family:'Nimbus Sans';-inkscape-font-specification:'Nimbus Sans';text-align:center;text-anchor:middle;stroke-width:0.264583"
         x="256.9718"
         y="92.412628"
         id="tspan247546">y<tspan
   style="font-size:65%;baseline-shift:sub"
   id="tspan249184">1</tspan>, y<tspan
   style="font-size:65%;baseline-shift:sub"
   id="tspan249182">2</tspan>, y<tspan
   style="font-size:65%;baseline-shift:sub"
   id="tspan249180">3</tspan>, y<tspan
   style="font-size:65%;baseline-shift:sub"
   id="tspan249178">4</tspan>, y<tspan
   style="font-size:65%;baseline-shift:sub"
   id="tspan249176">5</tspan></tspan></text>
  </g>
</svg>
