<?xml version="1.0" encoding="UTF-8" standalone="no"?>
<svg
   width="598.16565pt"
   height="181.46063pt"
   viewBox="0 0 613.166 186.01117"
   version="1.1"
   id="svg666"
   sodipodi:docname="rise-of-deep-learning.svg"
   inkscape:version="1.2.1 (9c6d41e, 2022-07-14)"
   xmlns:inkscape="http://www.inkscape.org/namespaces/inkscape"
   xmlns:sodipodi="http://sodipodi.sourceforge.net/DTD/sodipodi-0.dtd"
   xmlns:xlink="http://www.w3.org/1999/xlink"
   xmlns="http://www.w3.org/2000/svg"
   xmlns:svg="http://www.w3.org/2000/svg"
   xmlns:rdf="http://www.w3.org/1999/02/22-rdf-syntax-ns#"
   xmlns:cc="http://creativecommons.org/ns#"
   xmlns:dc="http://purl.org/dc/elements/1.1/">
  <sodipodi:namedview
     id="namedview668"
     pagecolor="#ffffff"
     bordercolor="#000000"
     borderopacity="0.25"
     inkscape:showpageshadow="2"
     inkscape:pageopacity="0.0"
     inkscape:pagecheckerboard="0"
     inkscape:deskcolor="#d1d1d1"
     inkscape:document-units="pt"
     showgrid="false"
     inkscape:zoom="1.1728221"
     inkscape:cx="421.20624"
     inkscape:cy="183.74483"
     inkscape:window-width="1371"
     inkscape:window-height="793"
     inkscape:window-x="0"
     inkscape:window-y="25"
     inkscape:window-maximized="0"
     inkscape:current-layer="svg666" />
  <metadata
     id="metadata132">
    <rdf:RDF>
      <cc:Work>
        <dc:type
           rdf:resource="http://purl.org/dc/dcmitype/StillImage" />
        <dc:date>2024-07-19T11:19:42.005122</dc:date>
        <dc:format>image/svg+xml</dc:format>
        <dc:creator>
          <cc:Agent>
            <dc:title>Matplotlib v3.9.1, https://matplotlib.org/</dc:title>
          </cc:Agent>
        </dc:creator>
      </cc:Work>
    </rdf:RDF>
  </metadata>
  <defs
     id="defs136">
    <style
       type="text/css"
       id="style134">*{stroke-linejoin: round; stroke-linecap: butt}</style>
  </defs>
  <g
     id="patch_2"
     transform="translate(-41.790517,-22.705381)">
    <path
       d="M 90,192.24 H 648 V 25.92 H 90 Z"
       style="fill:#ffffff"
       id="path141" />
  </g>
  <g
     id="xtick_1"
     transform="translate(-41.790517,-22.705381)">
    <g
       id="line2d_1">
      <defs
         id="defs145">
        <path
           id="md516f3e26b"
           d="M 0,0 V 3.5"
           style="stroke:#000000;stroke-width:0.8" />
      </defs>
      <g
         id="g149">
        <use
           xlink:href="#md516f3e26b"
           x="90"
           y="192.24001"
           style="stroke:#000000;stroke-width:0.8"
           id="use147" />
      </g>
    </g>
    <g
       id="text_1">
      <!-- 2004 -->
      <g
         transform="matrix(0.1,0,0,-0.1,77.275,206.83844)"
         id="g165">
        <defs
           id="defs155">
          <path
             id="DejaVuSans-32"
             d="M 1228,531 H 3431 V 0 H 469 v 531 q 359,372 979,998 621,627 780,809 303,340 423,576 121,236 121,464 0,372 -261,606 -261,235 -680,235 -297,0 -627,-103 -329,-103 -704,-313 v 638 q 381,153 712,231 332,78 607,78 725,0 1156,-363 431,-362 431,-968 0,-288 -108,-546 -107,-257 -392,-607 -78,-91 -497,-524 Q 1991,1309 1228,531 Z"
             transform="scale(0.015625)" />
          <path
             id="DejaVuSans-30"
             d="m 2034,4250 q -487,0 -733,-480 -245,-479 -245,-1442 0,-959 245,-1439 246,-480 733,-480 491,0 736,480 246,480 246,1439 0,963 -246,1442 -245,480 -736,480 z m 0,500 q 785,0 1199,-621 414,-620 414,-1801 0,-1178 -414,-1799 -414,-620 -1199,-620 -784,0 -1198,620 -414,621 -414,1799 0,1181 414,1801 414,621 1198,621 z"
             transform="scale(0.015625)" />
          <path
             id="DejaVuSans-34"
             d="M 2419,4116 825,1625 h 1594 z m -166,550 h 794 V 1625 h 666 V 1100 H 3047 V 0 H 2419 V 1100 H 313 v 609 z"
             transform="scale(0.015625)" />
        </defs>
        <use
           xlink:href="#DejaVuSans-32"
           id="use157" />
        <use
           xlink:href="#DejaVuSans-30"
           x="63.623047"
           id="use159" />
        <use
           xlink:href="#DejaVuSans-30"
           x="127.24609"
           id="use161" />
        <use
           xlink:href="#DejaVuSans-34"
           x="190.86914"
           id="use163" />
      </g>
    </g>
  </g>
  <g
     id="xtick_2"
     transform="translate(-41.790517,-22.705381)">
    <g
       id="line2d_2">
      <g
         id="g171">
        <use
           xlink:href="#md516f3e26b"
           x="144.43903"
           y="192.24001"
           style="stroke:#000000;stroke-width:0.8"
           id="use169" />
      </g>
    </g>
    <g
       id="text_2">
      <!-- 2006 -->
      <g
         transform="matrix(0.1,0,0,-0.1,131.71402,206.83844)"
         id="g185">
        <defs
           id="defs175">
          <path
             id="DejaVuSans-36"
             d="m 2113,2584 q -425,0 -674,-291 -248,-290 -248,-796 0,-503 248,-796 249,-292 674,-292 425,0 673,292 248,293 248,796 0,506 -248,796 -248,291 -673,291 z m 1253,1979 v -575 q -238,112 -480,171 -242,60 -480,60 -625,0 -955,-422 -329,-422 -376,-1275 184,272 462,417 279,145 613,145 703,0 1111,-427 408,-426 408,-1160 0,-719 -425,-1154 -425,-434 -1131,-434 -810,0 -1238,620 -428,621 -428,1799 0,1106 525,1764 525,658 1409,658 238,0 480,-47 242,-47 505,-140 z"
             transform="scale(0.015625)" />
        </defs>
        <use
           xlink:href="#DejaVuSans-32"
           id="use177" />
        <use
           xlink:href="#DejaVuSans-30"
           x="63.623047"
           id="use179" />
        <use
           xlink:href="#DejaVuSans-30"
           x="127.24609"
           id="use181" />
        <use
           xlink:href="#DejaVuSans-36"
           x="190.86914"
           id="use183" />
      </g>
    </g>
  </g>
  <g
     id="xtick_3"
     transform="translate(-41.790517,-22.705381)">
    <g
       id="line2d_3">
      <g
         id="g191">
        <use
           xlink:href="#md516f3e26b"
           x="198.87805"
           y="192.24001"
           style="stroke:#000000;stroke-width:0.8"
           id="use189" />
      </g>
    </g>
    <g
       id="text_3">
      <!-- 2008 -->
      <g
         transform="matrix(0.1,0,0,-0.1,186.15305,206.83844)"
         id="g205">
        <defs
           id="defs195">
          <path
             id="DejaVuSans-38"
             d="m 2034,2216 q -450,0 -708,-241 -257,-241 -257,-662 0,-422 257,-663 258,-241 708,-241 450,0 709,242 260,243 260,662 0,421 -258,662 -257,241 -711,241 z m -631,268 q -406,100 -633,378 -226,279 -226,679 0,559 398,884 399,325 1092,325 697,0 1094,-325 397,-325 397,-884 0,-400 -227,-679 -226,-278 -629,-378 456,-106 710,-416 255,-309 255,-755 Q 3634,634 3220,271 2806,-91 2034,-91 1263,-91 848,271 434,634 434,1313 q 0,446 256,755 257,310 713,416 z m -231,997 q 0,-362 226,-565 227,-203 636,-203 407,0 636,203 230,203 230,565 0,363 -230,566 -229,203 -636,203 -409,0 -636,-203 -226,-203 -226,-566 z"
             transform="scale(0.015625)" />
        </defs>
        <use
           xlink:href="#DejaVuSans-32"
           id="use197" />
        <use
           xlink:href="#DejaVuSans-30"
           x="63.623047"
           id="use199" />
        <use
           xlink:href="#DejaVuSans-30"
           x="127.24609"
           id="use201" />
        <use
           xlink:href="#DejaVuSans-38"
           x="190.86914"
           id="use203" />
      </g>
    </g>
  </g>
  <g
     id="xtick_4"
     transform="translate(-41.790517,-22.705381)">
    <g
       id="line2d_4">
      <g
         id="g211">
        <use
           xlink:href="#md516f3e26b"
           x="253.31708"
           y="192.24001"
           style="stroke:#000000;stroke-width:0.8"
           id="use209" />
      </g>
    </g>
    <g
       id="text_4">
      <!-- 2010 -->
      <g
         transform="matrix(0.1,0,0,-0.1,240.59207,206.83844)"
         id="g225">
        <defs
           id="defs215">
          <path
             id="DejaVuSans-31"
             d="M 794,531 H 1825 V 4091 L 703,3866 v 575 l 1116,225 h 631 V 531 H 3481 V 0 H 794 Z"
             transform="scale(0.015625)" />
        </defs>
        <use
           xlink:href="#DejaVuSans-32"
           id="use217" />
        <use
           xlink:href="#DejaVuSans-30"
           x="63.623047"
           id="use219" />
        <use
           xlink:href="#DejaVuSans-31"
           x="127.24609"
           id="use221" />
        <use
           xlink:href="#DejaVuSans-30"
           x="190.86914"
           id="use223" />
      </g>
    </g>
  </g>
  <g
     id="xtick_5"
     transform="translate(-41.790517,-22.705381)">
    <g
       id="line2d_5">
      <g
         id="g231">
        <use
           xlink:href="#md516f3e26b"
           x="307.7561"
           y="192.24001"
           style="stroke:#000000;stroke-width:0.8"
           id="use229" />
      </g>
    </g>
    <g
       id="text_5">
      <!-- 2012 -->
      <g
         transform="matrix(0.1,0,0,-0.1,295.0311,206.83844)"
         id="g242">
        <use
           xlink:href="#DejaVuSans-32"
           id="use234" />
        <use
           xlink:href="#DejaVuSans-30"
           x="63.623047"
           id="use236" />
        <use
           xlink:href="#DejaVuSans-31"
           x="127.24609"
           id="use238" />
        <use
           xlink:href="#DejaVuSans-32"
           x="190.86914"
           id="use240" />
      </g>
    </g>
  </g>
  <g
     id="xtick_6"
     transform="translate(-41.790517,-22.705381)">
    <g
       id="line2d_6">
      <g
         id="g248">
        <use
           xlink:href="#md516f3e26b"
           x="362.19513"
           y="192.24001"
           style="stroke:#000000;stroke-width:0.8"
           id="use246" />
      </g>
    </g>
    <g
       id="text_6">
      <!-- 2014 -->
      <g
         transform="matrix(0.1,0,0,-0.1,349.47012,206.83844)"
         id="g259">
        <use
           xlink:href="#DejaVuSans-32"
           id="use251" />
        <use
           xlink:href="#DejaVuSans-30"
           x="63.623047"
           id="use253" />
        <use
           xlink:href="#DejaVuSans-31"
           x="127.24609"
           id="use255" />
        <use
           xlink:href="#DejaVuSans-34"
           x="190.86914"
           id="use257" />
      </g>
    </g>
  </g>
  <g
     id="xtick_7"
     transform="translate(-41.790517,-22.705381)">
    <g
       id="line2d_7">
      <g
         id="g265">
        <use
           xlink:href="#md516f3e26b"
           x="416.63416"
           y="192.24001"
           style="stroke:#000000;stroke-width:0.8"
           id="use263" />
      </g>
    </g>
    <g
       id="text_7">
      <!-- 2016 -->
      <g
         transform="matrix(0.1,0,0,-0.1,403.90915,206.83844)"
         id="g276">
        <use
           xlink:href="#DejaVuSans-32"
           id="use268" />
        <use
           xlink:href="#DejaVuSans-30"
           x="63.623047"
           id="use270" />
        <use
           xlink:href="#DejaVuSans-31"
           x="127.24609"
           id="use272" />
        <use
           xlink:href="#DejaVuSans-36"
           x="190.86914"
           id="use274" />
      </g>
    </g>
  </g>
  <g
     id="xtick_8"
     transform="translate(-41.790517,-22.705381)">
    <g
       id="line2d_8">
      <g
         id="g282">
        <use
           xlink:href="#md516f3e26b"
           x="471.07318"
           y="192.24001"
           style="stroke:#000000;stroke-width:0.8"
           id="use280" />
      </g>
    </g>
    <g
       id="text_8">
      <!-- 2018 -->
      <g
         transform="matrix(0.1,0,0,-0.1,458.34817,206.83844)"
         id="g293">
        <use
           xlink:href="#DejaVuSans-32"
           id="use285" />
        <use
           xlink:href="#DejaVuSans-30"
           x="63.623047"
           id="use287" />
        <use
           xlink:href="#DejaVuSans-31"
           x="127.24609"
           id="use289" />
        <use
           xlink:href="#DejaVuSans-38"
           x="190.86914"
           id="use291" />
      </g>
    </g>
  </g>
  <g
     id="xtick_9"
     transform="translate(-41.790517,-22.705381)">
    <g
       id="line2d_9">
      <g
         id="g299">
        <use
           xlink:href="#md516f3e26b"
           x="525.51221"
           y="192.24001"
           style="stroke:#000000;stroke-width:0.8"
           id="use297" />
      </g>
    </g>
    <g
       id="text_9">
      <!-- 2020 -->
      <g
         transform="matrix(0.1,0,0,-0.1,512.78719,206.83844)"
         id="g310">
        <use
           xlink:href="#DejaVuSans-32"
           id="use302" />
        <use
           xlink:href="#DejaVuSans-30"
           x="63.623047"
           id="use304" />
        <use
           xlink:href="#DejaVuSans-32"
           x="127.24609"
           id="use306" />
        <use
           xlink:href="#DejaVuSans-30"
           x="190.86914"
           id="use308" />
      </g>
    </g>
  </g>
  <g
     id="xtick_10"
     transform="translate(-41.790517,-22.705381)">
    <g
       id="line2d_10">
      <g
         id="g316">
        <use
           xlink:href="#md516f3e26b"
           x="579.95123"
           y="192.24001"
           style="stroke:#000000;stroke-width:0.8"
           id="use314" />
      </g>
    </g>
    <g
       id="text_10">
      <!-- 2022 -->
      <g
         transform="matrix(0.1,0,0,-0.1,567.22622,206.83844)"
         id="g327">
        <use
           xlink:href="#DejaVuSans-32"
           id="use319" />
        <use
           xlink:href="#DejaVuSans-30"
           x="63.623047"
           id="use321" />
        <use
           xlink:href="#DejaVuSans-32"
           x="127.24609"
           id="use323" />
        <use
           xlink:href="#DejaVuSans-32"
           x="190.86914"
           id="use325" />
      </g>
    </g>
  </g>
  <g
     id="xtick_11"
     transform="translate(-41.790517,-22.705381)">
    <g
       id="line2d_11">
      <g
         id="g333">
        <use
           xlink:href="#md516f3e26b"
           x="634.39026"
           y="192.24001"
           style="stroke:#000000;stroke-width:0.8"
           id="use331" />
      </g>
    </g>
    <g
       id="text_11">
      <!-- 2024 -->
      <g
         transform="matrix(0.1,0,0,-0.1,621.66524,206.83844)"
         id="g344">
        <use
           xlink:href="#DejaVuSans-32"
           id="use336" />
        <use
           xlink:href="#DejaVuSans-30"
           x="63.623047"
           id="use338" />
        <use
           xlink:href="#DejaVuSans-32"
           x="127.24609"
           id="use340" />
        <use
           xlink:href="#DejaVuSans-34"
           x="190.86914"
           id="use342" />
      </g>
    </g>
  </g>
  <g
     id="xtick_12"
     transform="translate(-41.790517,-22.705381)">
    <g
       id="line2d_12">
      <defs
         id="defs349">
        <path
           id="mb6b9eac183"
           d="M 0,0 V 2"
           style="stroke:#000000;stroke-width:0.6" />
      </defs>
      <g
         id="g353">
        <use
           xlink:href="#mb6b9eac183"
           x="117.21951"
           y="192.24001"
           style="stroke:#000000;stroke-width:0.6"
           id="use351" />
      </g>
    </g>
  </g>
  <g
     id="xtick_13"
     transform="translate(-41.790517,-22.705381)">
    <g
       id="line2d_13">
      <g
         id="g359">
        <use
           xlink:href="#mb6b9eac183"
           x="171.65854"
           y="192.24001"
           style="stroke:#000000;stroke-width:0.6"
           id="use357" />
      </g>
    </g>
  </g>
  <g
     id="xtick_14"
     transform="translate(-41.790517,-22.705381)">
    <g
       id="line2d_14">
      <g
         id="g365">
        <use
           xlink:href="#mb6b9eac183"
           x="226.09756"
           y="192.24001"
           style="stroke:#000000;stroke-width:0.6"
           id="use363" />
      </g>
    </g>
  </g>
  <g
     id="xtick_15"
     transform="translate(-41.790517,-22.705381)">
    <g
       id="line2d_15">
      <g
         id="g371">
        <use
           xlink:href="#mb6b9eac183"
           x="280.53659"
           y="192.24001"
           style="stroke:#000000;stroke-width:0.6"
           id="use369" />
      </g>
    </g>
  </g>
  <g
     id="xtick_16"
     transform="translate(-41.790517,-22.705381)">
    <g
       id="line2d_16">
      <g
         id="g377">
        <use
           xlink:href="#mb6b9eac183"
           x="334.97562"
           y="192.24001"
           style="stroke:#000000;stroke-width:0.6"
           id="use375" />
      </g>
    </g>
  </g>
  <g
     id="xtick_17"
     transform="translate(-41.790517,-22.705381)">
    <g
       id="line2d_17">
      <g
         id="g383">
        <use
           xlink:href="#mb6b9eac183"
           x="389.41464"
           y="192.24001"
           style="stroke:#000000;stroke-width:0.6"
           id="use381" />
      </g>
    </g>
  </g>
  <g
     id="xtick_18"
     transform="translate(-41.790517,-22.705381)">
    <g
       id="line2d_18">
      <g
         id="g389">
        <use
           xlink:href="#mb6b9eac183"
           x="443.85367"
           y="192.24001"
           style="stroke:#000000;stroke-width:0.6"
           id="use387" />
      </g>
    </g>
  </g>
  <g
     id="xtick_19"
     transform="translate(-41.790517,-22.705381)">
    <g
       id="line2d_19">
      <g
         id="g395">
        <use
           xlink:href="#mb6b9eac183"
           x="498.29269"
           y="192.24001"
           style="stroke:#000000;stroke-width:0.6"
           id="use393" />
      </g>
    </g>
  </g>
  <g
     id="xtick_20"
     transform="translate(-41.790517,-22.705381)">
    <g
       id="line2d_20">
      <g
         id="g401">
        <use
           xlink:href="#mb6b9eac183"
           x="552.73169"
           y="192.24001"
           style="stroke:#000000;stroke-width:0.6"
           id="use399" />
      </g>
    </g>
  </g>
  <g
     id="xtick_21"
     transform="translate(-41.790517,-22.705381)">
    <g
       id="line2d_21">
      <g
         id="g407">
        <use
           xlink:href="#mb6b9eac183"
           x="607.17072"
           y="192.24001"
           style="stroke:#000000;stroke-width:0.6"
           id="use405" />
      </g>
    </g>
  </g>
  <g
     id="matplotlib.axis_2"
     transform="translate(-41.790517,-22.705381)">
    <g
       id="ytick_1">
      <g
         id="line2d_22">
        <defs
           id="defs413">
          <path
             id="mecb8f2394e"
             d="M 0,0 H -3.5"
             style="stroke:#000000;stroke-width:0.8" />
        </defs>
        <g
           id="g417">
          <use
             xlink:href="#mecb8f2394e"
             x="90"
             y="192.24001"
             style="stroke:#000000;stroke-width:0.8"
             id="use415" />
        </g>
      </g>
      <g
         id="text_12">
        <!-- 0 -->
        <g
           transform="matrix(0.1,0,0,-0.1,76.6375,196.03922)"
           id="g422">
          <use
             xlink:href="#DejaVuSans-30"
             id="use420" />
        </g>
      </g>
    </g>
    <g
       id="ytick_2">
      <g
         id="line2d_23">
        <g
           id="g428">
          <use
             xlink:href="#mecb8f2394e"
             x="90"
             y="162"
             style="stroke:#000000;stroke-width:0.8"
             id="use426" />
        </g>
      </g>
      <g
         id="text_13">
        <!-- 20 -->
        <g
           transform="matrix(0.1,0,0,-0.1,70.275,165.79922)"
           id="g435">
          <use
             xlink:href="#DejaVuSans-32"
             id="use431" />
          <use
             xlink:href="#DejaVuSans-30"
             x="63.623047"
             id="use433" />
        </g>
      </g>
    </g>
    <g
       id="ytick_3">
      <g
         id="line2d_24">
        <g
           id="g441">
          <use
             xlink:href="#mecb8f2394e"
             x="90"
             y="131.75999"
             style="stroke:#000000;stroke-width:0.8"
             id="use439" />
        </g>
      </g>
      <g
         id="text_14">
        <!-- 40 -->
        <g
           transform="matrix(0.1,0,0,-0.1,70.275,135.55922)"
           id="g448">
          <use
             xlink:href="#DejaVuSans-34"
             id="use444" />
          <use
             xlink:href="#DejaVuSans-30"
             x="63.623047"
             id="use446" />
        </g>
      </g>
    </g>
    <g
       id="ytick_4">
      <g
         id="line2d_25">
        <g
           id="g454">
          <use
             xlink:href="#mecb8f2394e"
             x="90"
             y="101.52"
             style="stroke:#000000;stroke-width:0.8"
             id="use452" />
        </g>
      </g>
      <g
         id="text_15">
        <!-- 60 -->
        <g
           transform="matrix(0.1,0,0,-0.1,70.275,105.31922)"
           id="g461">
          <use
             xlink:href="#DejaVuSans-36"
             id="use457" />
          <use
             xlink:href="#DejaVuSans-30"
             x="63.623047"
             id="use459" />
        </g>
      </g>
    </g>
    <g
       id="ytick_5">
      <g
         id="line2d_26">
        <g
           id="g467">
          <use
             xlink:href="#mecb8f2394e"
             x="90"
             y="71.279999"
             style="stroke:#000000;stroke-width:0.8"
             id="use465" />
        </g>
      </g>
      <g
         id="text_16">
        <!-- 80 -->
        <g
           transform="matrix(0.1,0,0,-0.1,70.275,75.079219)"
           id="g474">
          <use
             xlink:href="#DejaVuSans-38"
             id="use470" />
          <use
             xlink:href="#DejaVuSans-30"
             x="63.623047"
             id="use472" />
        </g>
      </g>
    </g>
    <g
       id="ytick_6">
      <g
         id="line2d_27">
        <g
           id="g480">
          <use
             xlink:href="#mecb8f2394e"
             x="90"
             y="41.040001"
             style="stroke:#000000;stroke-width:0.8"
             id="use478" />
        </g>
      </g>
      <g
         id="text_17">
        <!-- 100 -->
        <g
           transform="matrix(0.1,0,0,-0.1,63.9125,44.839219)"
           id="g489">
          <use
             xlink:href="#DejaVuSans-31"
             id="use483" />
          <use
             xlink:href="#DejaVuSans-30"
             x="63.623047"
             id="use485" />
          <use
             xlink:href="#DejaVuSans-30"
             x="127.24609"
             id="use487" />
        </g>
      </g>
    </g>
    <g
       id="text_18">
      <!-- relative Google searches -->
      <g
         transform="matrix(0,-0.1,-0.1,0,57.832812,171.03625)"
         id="g557">
        <defs
           id="defs507">
          <path
             id="DejaVuSans-72"
             d="m 2631,2963 q -97,56 -211,82 -114,27 -251,27 -488,0 -749,-317 -261,-317 -261,-911 V 0 H 581 v 3500 h 578 v -544 q 182,319 472,473 291,155 707,155 59,0 131,-8 72,-7 159,-23 z"
             transform="scale(0.015625)" />
          <path
             id="DejaVuSans-65"
             d="M 3597,1894 V 1613 H 953 q 38,-594 358,-905 320,-311 892,-311 331,0 642,81 311,81 618,244 V 178 Q 3153,47 2828,-22 2503,-91 2169,-91 1331,-91 842,396 353,884 353,1716 q 0,859 464,1363 464,505 1252,505 706,0 1117,-455 411,-454 411,-1235 z m -575,169 q -6,471 -264,752 -258,282 -683,282 -481,0 -770,-272 -289,-272 -333,-766 z"
             transform="scale(0.015625)" />
          <path
             id="DejaVuSans-6c"
             d="m 603,4863 h 575 V 0 H 603 Z"
             transform="scale(0.015625)" />
          <path
             id="DejaVuSans-61"
             d="m 2194,1759 q -697,0 -966,-159 -269,-159 -269,-544 0,-306 202,-486 202,-179 548,-179 479,0 768,339 289,339 289,901 v 128 z m 1147,238 V 0 H 2766 V 531 Q 2569,213 2275,61 1981,-91 1556,-91 q -537,0 -855,302 -317,302 -317,808 0,590 395,890 396,300 1180,300 h 807 v 57 q 0,397 -261,614 -261,217 -733,217 -300,0 -585,-72 -284,-72 -546,-216 v 532 q 315,122 612,182 297,61 578,61 760,0 1135,-394 375,-393 375,-1193 z"
             transform="scale(0.015625)" />
          <path
             id="DejaVuSans-74"
             d="M 1172,4494 V 3500 H 2356 V 3053 H 1172 V 1153 q 0,-428 117,-550 117,-122 477,-122 h 590 V 0 H 1766 Q 1100,0 847,248 594,497 594,1153 V 3053 H 172 v 447 h 422 v 994 z"
             transform="scale(0.015625)" />
          <path
             id="DejaVuSans-69"
             d="m 603,3500 h 575 V 0 H 603 Z m 0,1363 h 575 V 4134 H 603 Z"
             transform="scale(0.015625)" />
          <path
             id="DejaVuSans-76"
             d="M 191,3500 H 800 L 1894,563 2988,3500 h 609 L 2284,0 h -781 z"
             transform="scale(0.015625)" />
          <path
             id="DejaVuSans-20"
             transform="scale(0.015625)"
             d="" />
          <path
             id="DejaVuSans-47"
             d="M 3809,666 V 1919 H 2778 v 519 H 4434 V 434 Q 4069,175 3628,42 3188,-91 2688,-91 1594,-91 976,548 359,1188 359,2328 q 0,1144 617,1783 618,639 1712,639 456,0 867,-113 411,-112 758,-331 v -672 q -350,297 -744,447 -394,150 -828,150 -857,0 -1287,-478 -429,-478 -429,-1425 0,-944 429,-1422 430,-478 1287,-478 334,0 596,58 263,58 472,180 z"
             transform="scale(0.015625)" />
          <path
             id="DejaVuSans-6f"
             d="m 1959,3097 q -462,0 -731,-361 -269,-361 -269,-989 0,-628 267,-989 268,-361 733,-361 460,0 728,362 269,363 269,988 0,622 -269,986 -268,364 -728,364 z m 0,487 q 750,0 1178,-488 429,-487 429,-1349 Q 3566,888 3137,398 2709,-91 1959,-91 1206,-91 779,398 353,888 353,1747 q 0,862 426,1349 427,488 1180,488 z"
             transform="scale(0.015625)" />
          <path
             id="DejaVuSans-67"
             d="m 2906,1791 q 0,625 -258,968 -257,344 -723,344 -462,0 -720,-344 -258,-343 -258,-968 0,-622 258,-966 258,-344 720,-344 466,0 723,344 258,344 258,966 z M 3481,434 q 0,-893 -397,-1329 -396,-436 -1215,-436 -303,0 -572,45 -269,45 -522,139 v 559 q 253,-137 500,-202 247,-66 503,-66 566,0 847,295 281,295 281,892 V 616 Q 2728,306 2450,153 2172,0 1784,0 1141,0 747,490 353,981 353,1791 q 0,812 394,1302 394,491 1037,491 388,0 666,-153 278,-153 456,-462 v 531 h 575 z"
             transform="scale(0.015625)" />
          <path
             id="DejaVuSans-73"
             d="m 2834,3397 v -544 q -243,125 -506,187 -262,63 -544,63 -428,0 -642,-131 -214,-131 -214,-394 0,-200 153,-314 153,-114 616,-217 l 197,-44 q 612,-131 870,-370 258,-239 258,-667 0,-488 -386,-773 Q 2250,-91 1575,-91 1294,-91 989,-36 684,19 347,128 v 594 q 319,-166 628,-249 309,-82 613,-82 406,0 624,139 219,139 219,392 0,234 -158,359 -157,125 -692,241 l -200,47 q -534,112 -772,345 -237,233 -237,639 0,494 350,762 350,269 994,269 318,0 599,-47 282,-46 519,-140 z"
             transform="scale(0.015625)" />
          <path
             id="DejaVuSans-63"
             d="m 3122,3366 v -538 q -244,135 -489,202 -245,67 -495,67 -560,0 -870,-355 -309,-354 -309,-995 0,-641 309,-996 310,-354 870,-354 250,0 495,67 245,67 489,202 V 134 Q 2881,22 2623,-34 2366,-91 2075,-91 1284,-91 818,406 353,903 353,1747 q 0,856 470,1346 471,491 1290,491 265,0 518,-55 253,-54 491,-163 z"
             transform="scale(0.015625)" />
          <path
             id="DejaVuSans-68"
             d="M 3513,2113 V 0 h -575 v 2094 q 0,497 -194,743 -194,247 -581,247 -466,0 -735,-297 -269,-296 -269,-809 V 0 H 581 v 4863 h 578 V 2956 q 207,316 486,472 280,156 646,156 603,0 912,-373 310,-373 310,-1098 z"
             transform="scale(0.015625)" />
        </defs>
        <use
           xlink:href="#DejaVuSans-72"
           id="use509" />
        <use
           xlink:href="#DejaVuSans-65"
           x="38.863281"
           id="use511" />
        <use
           xlink:href="#DejaVuSans-6c"
           x="100.38672"
           id="use513" />
        <use
           xlink:href="#DejaVuSans-61"
           x="128.16992"
           id="use515" />
        <use
           xlink:href="#DejaVuSans-74"
           x="189.44922"
           id="use517" />
        <use
           xlink:href="#DejaVuSans-69"
           x="228.6582"
           id="use519" />
        <use
           xlink:href="#DejaVuSans-76"
           x="256.44141"
           id="use521" />
        <use
           xlink:href="#DejaVuSans-65"
           x="315.62109"
           id="use523" />
        <use
           xlink:href="#DejaVuSans-20"
           x="377.14453"
           id="use525" />
        <use
           xlink:href="#DejaVuSans-47"
           x="408.93164"
           id="use527" />
        <use
           xlink:href="#DejaVuSans-6f"
           x="486.42188"
           id="use529" />
        <use
           xlink:href="#DejaVuSans-6f"
           x="547.60352"
           id="use531" />
        <use
           xlink:href="#DejaVuSans-67"
           x="608.78516"
           id="use533" />
        <use
           xlink:href="#DejaVuSans-6c"
           x="672.26172"
           id="use535" />
        <use
           xlink:href="#DejaVuSans-65"
           x="700.04492"
           id="use537" />
        <use
           xlink:href="#DejaVuSans-20"
           x="761.56836"
           id="use539" />
        <use
           xlink:href="#DejaVuSans-73"
           x="793.35547"
           id="use541" />
        <use
           xlink:href="#DejaVuSans-65"
           x="845.45508"
           id="use543" />
        <use
           xlink:href="#DejaVuSans-61"
           x="906.97852"
           id="use545" />
        <use
           xlink:href="#DejaVuSans-72"
           x="968.25781"
           id="use547" />
        <use
           xlink:href="#DejaVuSans-63"
           x="1007.1211"
           id="use549" />
        <use
           xlink:href="#DejaVuSans-68"
           x="1062.1016"
           id="use551" />
        <use
           xlink:href="#DejaVuSans-65"
           x="1125.4805"
           id="use553" />
        <use
           xlink:href="#DejaVuSans-73"
           x="1187.0039"
           id="use555" />
      </g>
    </g>
  </g>
  <g
     id="line2d_28"
     transform="translate(-41.790517,-22.705381)">
    <path
       d="m 90,56.16 2.268293,-6.048 2.268292,-9.072 h 2.268293 l 2.268293,4.536 4.536589,36.288 2.26829,9.072 2.26829,-13.608 2.26829,1.512 2.2683,-7.56 2.26829,9.072 2.26829,13.608 2.26829,-1.512 2.2683,7.56 2.26829,-12.096 2.26829,-1.512 2.2683,13.608 2.26829,15.12 h 2.26829 l 2.26829,-6.048 2.2683,-3.024 h 2.26829 l 2.26829,12.096 2.26829,4.536 2.2683,-1.512 h 2.26829 l 2.26829,1.512 h 2.26829 l 2.2683,6.048 2.26829,10.584 2.26829,3.024 2.2683,-12.096 4.53658,3.024 2.26829,6.048 2.2683,4.536 2.26829,1.512 2.26829,-6.048 2.26829,1.512 2.2683,-3.024 2.26829,4.536 2.26829,10.584 2.26829,-1.512 2.2683,-4.536 h 2.26829 l 2.26829,-4.536 2.2683,3.024 2.26829,7.56 2.26829,-1.512 2.26829,-3.024 2.2683,-1.512 2.26829,1.512 2.26829,4.536 2.26829,6.048 2.2683,1.512 4.53658,-6.048 2.2683,-4.536 2.26829,7.56 2.26829,3.024 2.26829,-6.048 4.53659,-3.024 h 2.26829 l 2.26829,7.56 2.2683,4.536 h 2.26829 l 2.26829,-1.512 2.26829,-3.024 2.2683,-4.536 2.26829,4.536 h 2.26829 l 2.2683,3.024 2.26829,-7.56 h 4.53658 l 2.2683,6.048 2.26829,9.072 4.53658,-6.048 2.2683,-1.512 H 276 l 2.26829,1.512 h 4.53659 L 285.07317,162 h 4.53659 l 2.26829,3.024 2.26829,6.048 2.26829,-1.512 2.2683,-3.024 2.26829,-1.512 2.26829,-3.024 4.53659,6.048 2.26829,-3.024 h 6.80488 l 4.53658,6.048 2.2683,1.512 2.26829,-4.536 2.26829,-1.512 2.26829,1.512 h 2.2683 l 2.26829,1.512 2.26829,-1.512 h 2.2683 l 2.26829,-4.536 6.80488,9.072 2.26829,1.512 4.53658,-6.048 2.2683,-1.512 2.26829,3.024 h 6.80488 l 4.53658,-3.024 2.26829,4.536 2.2683,3.024 2.26829,-1.512 2.26829,-3.024 2.2683,-1.512 h 4.53658 l 2.26829,1.512 6.80488,-4.536 h 2.26829 l 4.53659,-3.024 2.26829,7.56 4.53659,-6.048 2.26829,-1.512 h 2.26829 l 2.2683,3.024 2.26829,-3.024 2.26829,-6.048 h 4.53659 l 2.26829,1.512 2.26829,6.048 2.2683,3.024 2.26829,-6.048 2.26829,-4.536 2.26829,-13.608 2.2683,4.536 2.26829,3.024 2.26829,-6.048 4.53659,30.24 2.26829,-1.512 2.26829,-4.536 h 4.53659 L 462,163.512 h 2.26829 l 2.26829,-3.024 2.2683,10.584 2.26829,1.512 2.26829,-10.584 2.2683,-33.264 2.26829,-6.048 h 2.26829 l 2.26829,3.024 2.2683,4.536 2.26829,10.584 4.53658,-6.048 2.2683,-6.048 2.26829,7.56 2.26829,3.024 h 2.2683 l 2.26829,-4.536 2.26829,-6.048 2.26829,7.56 2.2683,1.512 4.53658,6.048 2.26829,-4.536 2.2683,-3.024 2.26829,-1.512 2.26829,4.536 2.2683,-33.264 2.26829,-39.312 2.26829,49.896 2.26829,19.656 2.2683,-1.512 6.80487,9.072 2.2683,-1.512 2.26829,4.536 h 4.53659 l 2.26829,3.024 2.26829,1.512 2.26829,-4.536 h 4.53659 l 2.26829,1.512 2.26829,6.048 2.2683,4.536 2.26829,-6.048 2.26829,-3.024 2.26829,-1.512 h 2.2683 l 2.26829,-7.56 2.26829,-3.024 2.26829,-1.512 2.2683,1.512 2.26829,-4.536 2.26829,3.024 2.2683,4.536 4.53658,-9.072 2.26829,-6.048 2.2683,-13.608 2.26829,-28.728 2.26829,33.264 2.26829,-24.192 2.2683,-7.56 2.26829,3.024 h 2.26829 l 2.2683,9.072 2.26829,12.096 2.26829,9.072 2.26829,-12.096 2.2683,-15.12 2.26829,-1.512 h 2.26829 l 2.26829,13.608 2.2683,-16.632 2.26829,-1.512 2.26829,-6.048 2.2683,6.048 2.26829,15.12 2.26829,6.048 v 0"
       clip-path="url(#p4ca46d89a7)"
       style="fill:none;stroke:#1f77b4;stroke-width:1.5;stroke-linecap:square"
       id="path561" />
  </g>
  <g
     id="line2d_29"
     transform="translate(-41.790517,-22.705381)">
    <path
       d="m 90,192.24 h 11.34146 l 2.2683,-1.512 h 11.34146 l 2.26829,1.512 2.26829,-1.512 h 6.80488 l 2.2683,1.512 2.26829,-1.512 h 11.34146 l 2.26829,1.512 2.2683,-1.512 h 9.07317 l 2.26829,1.512 2.26829,-1.512 h 54.43903 l 2.26829,-1.512 2.26829,-6.048 2.2683,1.512 2.26829,3.024 2.26829,1.512 2.26829,-1.512 2.2683,-15.12 2.26829,-4.536 2.26829,10.584 2.26829,6.048 2.2683,4.536 2.26829,-1.512 h 2.26829 l 2.26829,-1.512 4.53659,3.024 h 2.26829 l 2.2683,1.512 h 72.58536 l 2.26829,-1.512 2.2683,1.512 h 9.07317 l 2.26829,-1.512 h 18.14634 l 2.26829,-1.512 h 20.41464 l 2.26829,-3.024 h 4.53659 l 2.26829,-1.512 2.26829,1.512 h 2.26829 l 2.2683,-1.512 h 6.80488 l 4.53658,-3.024 h 2.26829 l 2.2683,-3.024 2.26829,1.512 2.26829,-7.56 2.26829,1.512 h 4.53659 l 2.26829,1.512 h 2.2683 l 2.26829,-3.024 2.26829,-1.512 2.26829,-6.048 2.2683,1.512 4.53658,-6.048 4.53659,-3.024 h 2.26829 l 2.26829,-1.512 2.26829,1.512 2.2683,-3.024 H 462 l 4.53658,-6.048 2.2683,3.024 4.53658,-3.024 2.2683,1.512 2.26829,-3.024 2.26829,-1.512 2.26829,-3.024 2.2683,4.536 h 4.53658 l 2.26829,-3.024 2.2683,-1.512 2.26829,6.048 4.53659,-3.024 2.26829,-3.024 h 2.26829 l 2.26829,3.024 2.2683,1.512 2.26829,-3.024 2.26829,4.536 2.26829,-4.536 h 2.2683 l 6.80488,4.536 2.26829,-3.024 2.26829,4.536 h 2.26829 l 2.2683,-4.536 h 2.26829 l 4.53658,9.072 2.2683,-3.024 2.26829,7.56 h 4.53659 L 555,154.44 h 4.53658 l 4.53659,3.024 h 2.26829 l 2.2683,3.024 2.26829,-1.512 h 2.26829 l 2.26829,-3.024 h 2.2683 l 2.26829,-7.56 4.53658,-9.072 h 4.53659 l 2.26829,3.024 2.2683,6.048 h 2.26829 l 2.26829,-3.024 h 2.26829 l 2.2683,-4.536 2.26829,4.536 h 2.26829 l 4.53659,-6.048 2.26829,1.512 2.26829,-3.024 4.53659,6.048 2.26829,1.512 2.26829,-4.536 h 2.2683 l 2.26829,-1.512 h 4.53658 l 2.2683,-1.512 2.26829,-4.536 2.26829,3.024 h 2.2683 l 2.26829,7.56 L 648,142.344 v 0"
       clip-path="url(#p4ca46d89a7)"
       style="fill:none;stroke:#ff7f0e;stroke-width:1.5;stroke-linecap:square"
       id="path564" />
  </g>
  <g
     id="patch_3"
     transform="translate(-41.790517,-22.705381)">
    <path
       d="M 90,192.24 V 25.92"
       style="fill:none;stroke:#000000;stroke-width:0.8;stroke-linecap:square;stroke-linejoin:miter"
       id="path567" />
  </g>
  <g
     id="patch_4"
     transform="translate(-41.790517,-22.705381)">
    <path
       d="M 648,192.24 V 25.92"
       style="fill:none;stroke:#000000;stroke-width:0.8;stroke-linecap:square;stroke-linejoin:miter"
       id="path570" />
  </g>
  <g
     id="patch_5"
     transform="translate(-41.790517,-22.705381)">
    <path
       d="M 90,192.24 H 648"
       style="fill:none;stroke:#000000;stroke-width:0.8;stroke-linecap:square;stroke-linejoin:miter"
       id="path573" />
  </g>
  <g
     id="patch_6"
     transform="translate(-41.790517,-22.705381)">
    <path
       d="M 90,25.92 H 648"
       style="fill:none;stroke:#000000;stroke-width:0.8;stroke-linecap:square;stroke-linejoin:miter"
       id="path576" />
  </g>
  <g
     id="legend_1"
     transform="translate(-41.790517,-22.705381)">
    <g
       id="patch_7">
      <path
         d="M 533.36719,63.27625 H 641 q 2,0 2,-2 V 32.92 q 0,-2 -2,-2 H 533.36719 q -2,0 -2,2 v 28.35625 q 0,2 2,2 z"
         style="opacity:0.8;fill:#ffffff;stroke:#cccccc;stroke-linejoin:miter"
         id="path579" />
    </g>
    <g
       id="line2d_30">
      <path
         d="m 535.36719,39.018437 h 10 10"
         style="fill:none;stroke:#1f77b4;stroke-width:1.5;stroke-linecap:square"
         id="path582" />
    </g>
    <g
       id="text_19">
      <!-- neural network -->
      <g
         transform="matrix(0.1,0,0,-0.1,563.36719,42.518437)"
         id="g619">
        <defs
           id="defs589">
          <path
             id="DejaVuSans-6e"
             d="M 3513,2113 V 0 h -575 v 2094 q 0,497 -194,743 -194,247 -581,247 -466,0 -735,-297 -269,-296 -269,-809 V 0 H 581 v 3500 h 578 v -544 q 207,316 486,472 280,156 646,156 603,0 912,-373 310,-373 310,-1098 z"
             transform="scale(0.015625)" />
          <path
             id="DejaVuSans-75"
             d="m 544,1381 v 2119 h 575 V 1403 q 0,-497 193,-746 194,-248 582,-248 465,0 735,297 271,297 271,810 v 1984 h 575 V 0 H 2900 V 538 Q 2691,219 2414,64 2138,-91 1772,-91 1169,-91 856,284 544,659 544,1381 Z m 1447,2203 z"
             transform="scale(0.015625)" />
          <path
             id="DejaVuSans-77"
             d="m 269,3500 h 575 l 719,-2731 715,2731 h 678 l 719,-2731 716,2731 h 575 L 4050,0 H 3372 L 2619,2869 1863,0 h -679 z"
             transform="scale(0.015625)" />
          <path
             id="DejaVuSans-6b"
             d="m 581,4863 h 578 V 1991 l 1716,1509 h 734 L 1753,1863 3688,0 H 2938 L 1159,1709 V 0 H 581 Z"
             transform="scale(0.015625)" />
        </defs>
        <use
           xlink:href="#DejaVuSans-6e"
           id="use591" />
        <use
           xlink:href="#DejaVuSans-65"
           x="63.378906"
           id="use593" />
        <use
           xlink:href="#DejaVuSans-75"
           x="124.90234"
           id="use595" />
        <use
           xlink:href="#DejaVuSans-72"
           x="188.28125"
           id="use597" />
        <use
           xlink:href="#DejaVuSans-61"
           x="229.39453"
           id="use599" />
        <use
           xlink:href="#DejaVuSans-6c"
           x="290.67383"
           id="use601" />
        <use
           xlink:href="#DejaVuSans-20"
           x="318.45703"
           id="use603" />
        <use
           xlink:href="#DejaVuSans-6e"
           x="350.24414"
           id="use605" />
        <use
           xlink:href="#DejaVuSans-65"
           x="413.62305"
           id="use607" />
        <use
           xlink:href="#DejaVuSans-74"
           x="475.14648"
           id="use609" />
        <use
           xlink:href="#DejaVuSans-77"
           x="514.35547"
           id="use611" />
        <use
           xlink:href="#DejaVuSans-6f"
           x="596.14258"
           id="use613" />
        <use
           xlink:href="#DejaVuSans-72"
           x="657.32422"
           id="use615" />
        <use
           xlink:href="#DejaVuSans-6b"
           x="698.4375"
           id="use617" />
      </g>
    </g>
    <g
       id="line2d_31">
      <path
         d="m 535.36719,53.696562 h 10 10"
         style="fill:none;stroke:#ff7f0e;stroke-width:1.5;stroke-linecap:square"
         id="path622" />
    </g>
    <g
       id="text_20">
      <!-- deep learning -->
      <g
         transform="matrix(0.1,0,0,-0.1,563.36719,57.196562)"
         id="g655">
        <defs
           id="defs627">
          <path
             id="DejaVuSans-64"
             d="m 2906,2969 v 1894 h 575 V 0 H 2906 V 525 Q 2725,213 2448,61 2172,-91 1784,-91 1150,-91 751,415 353,922 353,1747 q 0,825 398,1331 399,506 1033,506 388,0 664,-152 277,-151 458,-463 z M 947,1747 q 0,-634 261,-995 261,-361 717,-361 456,0 718,361 263,361 263,995 0,634 -263,995 -262,361 -718,361 -456,0 -717,-361 -261,-361 -261,-995 z"
             transform="scale(0.015625)" />
          <path
             id="DejaVuSans-70"
             d="M 1159,525 V -1331 H 581 v 4831 h 578 v -531 q 182,312 458,463 277,152 661,152 638,0 1036,-506 399,-506 399,-1331 0,-825 -399,-1332 -398,-506 -1036,-506 -384,0 -661,152 -276,152 -458,464 z m 1957,1222 q 0,634 -261,995 -261,361 -717,361 -457,0 -718,-361 -261,-361 -261,-995 0,-634 261,-995 261,-361 718,-361 456,0 717,361 261,361 261,995 z"
             transform="scale(0.015625)" />
        </defs>
        <use
           xlink:href="#DejaVuSans-64"
           id="use629" />
        <use
           xlink:href="#DejaVuSans-65"
           x="63.476562"
           id="use631" />
        <use
           xlink:href="#DejaVuSans-65"
           x="125"
           id="use633" />
        <use
           xlink:href="#DejaVuSans-70"
           x="186.52344"
           id="use635" />
        <use
           xlink:href="#DejaVuSans-20"
           x="250"
           id="use637" />
        <use
           xlink:href="#DejaVuSans-6c"
           x="281.78711"
           id="use639" />
        <use
           xlink:href="#DejaVuSans-65"
           x="309.57031"
           id="use641" />
        <use
           xlink:href="#DejaVuSans-61"
           x="371.09375"
           id="use643" />
        <use
           xlink:href="#DejaVuSans-72"
           x="432.37305"
           id="use645" />
        <use
           xlink:href="#DejaVuSans-6e"
           x="471.73633"
           id="use647" />
        <use
           xlink:href="#DejaVuSans-69"
           x="535.11523"
           id="use649" />
        <use
           xlink:href="#DejaVuSans-6e"
           x="562.89844"
           id="use651" />
        <use
           xlink:href="#DejaVuSans-67"
           x="626.27734"
           id="use653" />
      </g>
    </g>
  </g>
  <defs
     id="defs664">
    <clipPath
       id="p4ca46d89a7">
      <rect
         x="90"
         y="25.92"
         width="558"
         height="166.32001"
         id="rect661" />
    </clipPath>
  </defs>
  <text
     xml:space="preserve"
     style="font-size:6.05408px;line-height:1.25;font-family:sans-serif;stroke-width:0.504507"
     x="98.311852"
     y="147.5994"
     id="text1645"><tspan
       sodipodi:role="line"
       id="tspan1643"
       style="stroke-width:0.504507"
       x="98.311852"
       y="147.5994">Hinton et al., 2006</tspan><tspan
       sodipodi:role="line"
       style="stroke-width:0.504507"
       x="98.311852"
       y="155.16699"
       id="tspan1649">Bengio et al., 2007</tspan><tspan
       sodipodi:role="line"
       style="stroke-width:0.504507"
       x="98.311852"
       y="162.73459"
       id="tspan1647">Ranzato et al., 2007a</tspan></text>
  <text
     xml:space="preserve"
     style="font-size:6.05408px;line-height:1.25;font-family:sans-serif;text-align:center;text-anchor:middle;stroke-width:0.504507"
     x="265.8309"
     y="155.04285"
     id="text2367"><tspan
       sodipodi:role="line"
       style="text-align:center;text-anchor:middle;stroke-width:0.504507"
       x="265.8309"
       y="155.04285"
       id="tspan2365">AlexNet</tspan><tspan
       sodipodi:role="line"
       style="text-align:center;text-anchor:middle;stroke-width:0.504507"
       x="265.8309"
       y="162.61044"
       id="tspan2374">(8 layers)</tspan></text>
  <text
     xml:space="preserve"
     style="font-size:6.05408px;line-height:1.25;font-family:sans-serif;text-align:center;text-anchor:middle;stroke-width:0.504507"
     x="347.62411"
     y="155.04285"
     id="text2921"><tspan
       sodipodi:role="line"
       style="text-align:center;text-anchor:middle;stroke-width:0.504507"
       x="347.62411"
       y="155.04285"
       id="tspan2917">ResNet</tspan><tspan
       sodipodi:role="line"
       style="text-align:center;text-anchor:middle;stroke-width:0.504507"
       x="347.62411"
       y="162.61044"
       id="tspan2919">(152 layers)</tspan></text>
</svg>
